<svg width="486" height="550" viewBox="0 0 486 550" fill="none" xmlns="http://www.w3.org/2000/svg">
<rect width="486" height="550" fill="#F5F5F5"/>
<path d="M4.86988 2.304V4.128H11.6619V2.304H4.86988ZM10.7499 2.304C10.7499 6.816 11.5419 17.04 21.1419 22.848C21.4779 22.416 22.1979 21.648 22.6059 21.336C13.1259 15.72 12.5979 6.6 12.5979 2.304H10.7499ZM10.0779 7.008C8.61388 13.8 5.61388 18.648 0.285875 21.432C0.765875 21.768 1.58188 22.512 1.91788 22.896C7.22188 19.776 10.3899 14.712 12.1179 7.392L10.0779 7.008ZM25.3899 6.096V7.92H44.0139V6.096H25.3899ZM43.3179 6.096V6.48C42.8379 16.008 42.3099 19.752 41.3979 20.64C41.0859 20.928 40.7979 21 40.2699 21C39.6699 21 38.1339 20.976 36.5019 20.832C36.8379 21.36 37.0779 22.152 37.1019 22.68C38.5899 22.776 40.1259 22.824 40.9659 22.728C41.8779 22.656 42.4539 22.464 43.0299 21.768C44.0859 20.568 44.5899 16.992 45.1419 7.056C45.1659 6.768 45.1899 6.096 45.1899 6.096H43.3179ZM33.2379 0.887999V5.064C33.2379 10.032 32.6619 16.848 24.6939 21.6C25.1259 21.912 25.7979 22.584 26.0619 23.016C34.4619 17.952 35.1339 10.536 35.1339 5.064V0.887999H33.2379ZM55.3651 3.54545V21H53.2514V5.76136H53.1491L48.8878 8.59091V6.44318L53.2514 3.54545H55.3651Z" fill="black"/>
<path d="M151.998 545.656V547.432H168.942V545.656H151.998ZM159.366 526.984V546.664H161.214V526.984H159.366ZM151.11 538.96V548.944H152.934V538.96H151.11ZM167.982 538.96V548.872H169.83V538.96H167.982ZM152.046 529.144V537.424H168.87V529.144H166.998V535.672H153.822V529.144H152.046ZM174.39 532.096V533.92H193.014V532.096H174.39ZM192.318 532.096V532.48C191.838 542.008 191.31 545.752 190.398 546.64C190.086 546.928 189.798 547 189.27 547C188.67 547 187.134 546.976 185.502 546.832C185.838 547.36 186.078 548.152 186.102 548.68C187.59 548.776 189.126 548.824 189.966 548.728C190.878 548.656 191.454 548.464 192.03 547.768C193.086 546.568 193.59 542.992 194.142 533.056C194.166 532.768 194.19 532.096 194.19 532.096H192.318ZM182.238 526.888V531.064C182.238 536.032 181.662 542.848 173.694 547.6C174.126 547.912 174.798 548.584 175.062 549.016C183.462 543.952 184.134 536.536 184.134 531.064V526.888H182.238ZM204.365 529.545V547H202.251V531.761H202.149L197.888 534.591V532.443L202.251 529.545H204.365Z" fill="black"/>
<path d="M304.81 545.656V547.432H321.754V545.656H304.81ZM312.178 526.984V546.664H314.026V526.984H312.178ZM303.922 538.96V548.944H305.746V538.96H303.922ZM320.794 538.96V548.872H322.642V538.96H320.794ZM304.858 529.144V537.424H321.682V529.144H319.81V535.672H306.634V529.144H304.858ZM327.202 532.096V533.92H345.826V532.096H327.202ZM345.13 532.096V532.48C344.65 542.008 344.122 545.752 343.21 546.64C342.898 546.928 342.61 547 342.082 547C341.482 547 339.946 546.976 338.314 546.832C338.65 547.36 338.89 548.152 338.914 548.68C340.402 548.776 341.938 548.824 342.778 548.728C343.69 548.656 344.266 548.464 344.842 547.768C345.898 546.568 346.402 542.992 346.954 533.056C346.978 532.768 347.002 532.096 347.002 532.096H345.13ZM335.05 526.888V531.064C335.05 536.032 334.474 542.848 326.506 547.6C326.938 547.912 327.61 548.584 327.874 549.016C336.274 543.952 336.946 536.536 336.946 531.064V526.888H335.05ZM351.041 547V545.466L356.803 539.159C357.479 538.42 358.036 537.778 358.473 537.233C358.911 536.682 359.234 536.165 359.445 535.682C359.661 535.193 359.768 534.682 359.768 534.148C359.768 533.534 359.621 533.003 359.325 532.554C359.036 532.105 358.638 531.759 358.132 531.514C357.626 531.27 357.058 531.148 356.428 531.148C355.757 531.148 355.172 531.287 354.672 531.565C354.178 531.838 353.794 532.222 353.521 532.716C353.254 533.21 353.121 533.79 353.121 534.455H351.109C351.109 533.432 351.345 532.534 351.817 531.761C352.288 530.989 352.93 530.386 353.743 529.955C354.561 529.523 355.479 529.307 356.496 529.307C357.518 529.307 358.425 529.523 359.214 529.955C360.004 530.386 360.624 530.969 361.072 531.702C361.521 532.435 361.746 533.25 361.746 534.148C361.746 534.79 361.629 535.418 361.396 536.031C361.169 536.639 360.771 537.318 360.203 538.068C359.641 538.812 358.859 539.722 357.859 540.795L353.939 544.989V545.125H362.053V547H351.041Z" fill="black"/>
<path d="M170.682 2.304V4.128H177.474V2.304H170.682ZM176.562 2.304C176.562 6.816 177.354 17.04 186.954 22.848C187.29 22.416 188.01 21.648 188.418 21.336C178.938 15.72 178.41 6.6 178.41 2.304H176.562ZM175.89 7.008C174.426 13.8 171.426 18.648 166.098 21.432C166.578 21.768 167.394 22.512 167.73 22.896C173.034 19.776 176.202 14.712 177.93 7.392L175.89 7.008ZM191.202 6.096V7.92H209.826V6.096H191.202ZM209.13 6.096V6.48C208.65 16.008 208.122 19.752 207.21 20.64C206.898 20.928 206.61 21 206.082 21C205.482 21 203.946 20.976 202.314 20.832C202.65 21.36 202.89 22.152 202.914 22.68C204.402 22.776 205.938 22.824 206.778 22.728C207.69 22.656 208.266 22.464 208.842 21.768C209.898 20.568 210.402 16.992 210.954 7.056C210.978 6.768 211.002 6.096 211.002 6.096H209.13ZM199.05 0.887999V5.064C199.05 10.032 198.474 16.848 190.506 21.6C190.938 21.912 191.61 22.584 191.874 23.016C200.274 17.952 200.946 10.536 200.946 5.064V0.887999H199.05ZM215.041 21V19.4659L220.803 13.1591C221.479 12.4205 222.036 11.7784 222.473 11.233C222.911 10.6818 223.234 10.1648 223.445 9.68182C223.661 9.19318 223.768 8.68182 223.768 8.14773C223.768 7.53409 223.621 7.00284 223.325 6.55398C223.036 6.10511 222.638 5.75852 222.132 5.5142C221.626 5.26989 221.058 5.14773 220.428 5.14773C219.757 5.14773 219.172 5.28693 218.672 5.56534C218.178 5.83807 217.794 6.22159 217.521 6.71591C217.254 7.21023 217.121 7.78977 217.121 8.45454H215.109C215.109 7.43182 215.345 6.53409 215.817 5.76136C216.288 4.98864 216.93 4.38636 217.743 3.95454C218.561 3.52273 219.479 3.30682 220.496 3.30682C221.518 3.30682 222.425 3.52273 223.214 3.95454C224.004 4.38636 224.624 4.96875 225.072 5.7017C225.521 6.43466 225.746 7.25 225.746 8.14773C225.746 8.78977 225.629 9.41761 225.396 10.0312C225.169 10.6392 224.771 11.3182 224.203 12.0682C223.641 12.8125 222.859 13.7216 221.859 14.7955L217.939 18.9886V19.125H226.053V21H215.041Z" fill="black"/>
<path d="M307.807 2.304V4.128H314.599V2.304H307.807ZM313.687 2.304C313.687 6.816 314.479 17.04 324.079 22.848C324.415 22.416 325.135 21.648 325.543 21.336C316.063 15.72 315.535 6.6 315.535 2.304H313.687ZM313.015 7.008C311.551 13.8 308.551 18.648 303.223 21.432C303.703 21.768 304.519 22.512 304.855 22.896C310.159 19.776 313.327 14.712 315.055 7.392L313.015 7.008ZM328.327 6.096V7.92H346.951V6.096H328.327ZM346.255 6.096V6.48C345.775 16.008 345.247 19.752 344.335 20.64C344.023 20.928 343.735 21 343.207 21C342.607 21 341.071 20.976 339.439 20.832C339.775 21.36 340.015 22.152 340.039 22.68C341.527 22.776 343.063 22.824 343.903 22.728C344.815 22.656 345.391 22.464 345.967 21.768C347.023 20.568 347.527 16.992 348.079 7.056C348.103 6.768 348.127 6.096 348.127 6.096H346.255ZM336.175 0.887999V5.064C336.175 10.032 335.599 16.848 327.631 21.6C328.063 21.912 328.735 22.584 328.999 23.016C337.399 17.952 338.071 10.536 338.071 5.064V0.887999H336.175ZM358.064 21.2386C356.939 21.2386 355.936 21.0455 355.055 20.6591C354.18 20.2727 353.484 19.7358 352.967 19.0483C352.456 18.3551 352.178 17.5511 352.132 16.6364H354.28C354.325 17.1989 354.518 17.6847 354.859 18.0938C355.2 18.4972 355.646 18.8097 356.197 19.0312C356.749 19.2528 357.359 19.3636 358.03 19.3636C358.78 19.3636 359.445 19.233 360.024 18.9716C360.604 18.7102 361.058 18.3466 361.388 17.8807C361.717 17.4148 361.882 16.875 361.882 16.2614C361.882 15.6193 361.723 15.054 361.405 14.5653C361.087 14.071 360.621 13.6847 360.007 13.4062C359.393 13.1278 358.643 12.9886 357.757 12.9886H356.359V11.1136H357.757C358.45 11.1136 359.058 10.9886 359.581 10.7386C360.109 10.4886 360.521 10.1364 360.817 9.68182C361.118 9.22727 361.268 8.69318 361.268 8.07954C361.268 7.48864 361.138 6.97443 360.876 6.53693C360.615 6.09943 360.246 5.75852 359.768 5.5142C359.297 5.26989 358.74 5.14773 358.098 5.14773C357.496 5.14773 356.928 5.25852 356.393 5.48011C355.865 5.69602 355.433 6.01136 355.098 6.42614C354.763 6.83523 354.581 7.32955 354.553 7.90909H352.507C352.541 6.99432 352.817 6.19318 353.334 5.50568C353.851 4.8125 354.527 4.27273 355.362 3.88636C356.203 3.5 357.126 3.30682 358.132 3.30682C359.212 3.30682 360.138 3.52557 360.911 3.96307C361.683 4.39489 362.277 4.96591 362.692 5.67614C363.107 6.38636 363.314 7.15341 363.314 7.97727C363.314 8.96023 363.055 9.7983 362.538 10.4915C362.027 11.1847 361.331 11.6648 360.45 11.9318V12.0682C361.553 12.25 362.413 12.7187 363.033 13.4744C363.652 14.2244 363.962 15.1534 363.962 16.2614C363.962 17.2102 363.703 18.0625 363.186 18.8182C362.675 19.5682 361.976 20.1591 361.089 20.5909C360.203 21.0227 359.195 21.2386 358.064 21.2386Z" fill="black"/>
<path d="M36 43C33.5288 43.3089 31.1361 53.9262 30.5556 55.5556C26.9818 65.5851 26.0562 74.828 26 85.4444C25.9203 100.503 25.6368 115.927 29.7222 130.556C35.7802 152.247 46.8894 174.075 58.4445 193.333C68.9127 210.78 80.3951 228.932 96.5556 241.667C103.246 246.939 110.214 250.377 117.556 254.222C118.784 254.866 119.166 257.117 120.222 258.056C125.007 262.308 131.453 264.724 137.5 266.389C145.621 268.625 154.499 268.875 162.889 269C165.334 269.036 166.048 268.373 168.333 269.222C178.776 273.101 189.068 277.804 200.222 279.222C221.28 281.899 246.18 280.372 266.778 275.222C280.456 271.803 292.443 263.639 300.889 252.444C301.98 250.999 311.289 237.337 308.111 234.778C306.356 233.364 303.331 232.874 301.278 232.389C292.919 230.415 284.536 228.271 276.111 226.611C256.924 222.83 233.271 219.993 213.944 224.722C195.045 229.346 175.773 240.454 159.833 251.333C152.772 256.153 146.986 262.257 141.889 269.111C136.956 275.746 135.804 283.542 132.556 290.889C125.113 307.723 103.751 313.954 92.2778 327.722C89.0546 331.59 91.2622 320.975 91.4445 319.556C94.2101 298.007 105.225 284.267 121.222 270.556C139.187 255.157 161.15 245.527 182.944 236.833C205.759 227.732 229.986 220.824 254.667 219.722C267.861 219.133 287.057 224.65 289.556 240C293.352 263.319 275.075 283.681 257.444 295.667C245.914 303.506 233.637 309.069 219.944 311.778C204.747 314.784 195.294 301.706 189.167 289.111C182.256 274.906 176.752 257.581 175.222 241.778C175.056 240.056 173.29 230.367 177.444 232.444C185.549 236.497 192.472 244.397 198.889 250.5C213.726 264.609 226.236 280.954 236.667 298.556C236.832 298.834 239.819 305.382 240.833 305.889C243.434 307.189 241.053 300.061 240.778 297.167C238.47 272.933 231.323 247.552 218.222 226.944C210.481 214.768 202.234 205.724 190.667 197.444C189.427 196.557 183.213 193.706 183 192C182.7 189.598 180.415 193.539 180.056 193.944C169.308 206.079 159.761 218.537 150.833 232.111C143.067 243.919 137.144 257.178 132.889 270.667C130.336 278.76 128.896 292.406 132 300.556C132.861 302.815 133.897 303.985 136.389 304.444C149.083 306.783 163.491 305 176.278 305C196.745 305 218.682 305.186 237.333 295.444C256.393 285.49 268.067 264.309 281.556 248.444C291.886 236.294 304.107 225.311 320.833 224.889C339.092 224.429 353.61 233.074 366.944 244.722C379.588 255.767 389.889 275.095 389.889 292.278C389.889 298.884 384.593 302.545 378.778 304.222C359.991 309.639 340.216 311.347 321.222 316C288.284 324.068 259.792 342.54 228.056 354C216.035 358.341 203.481 361.62 202.222 375.889C201.425 384.922 204.193 392.748 208.5 400.5C209.788 402.818 207.722 405.575 206.778 407.667C202.383 417.397 198.866 427.672 193.444 436.889C190.345 442.157 186.811 447.246 184.611 453C181.852 460.215 182 469.043 182 476.667C182 489.315 181.916 501.662 185 514" stroke="black" stroke-width="3" stroke-linecap="round"/>
<circle cx="59" cy="200" r="19.5" fill="white" stroke="black" stroke-width="3"/>
<circle cx="186" cy="285" r="19.5" fill="white" stroke="black" stroke-width="3"/>
<circle cx="281" cy="187" r="19.5" fill="white" stroke="black" stroke-width="3"/>
<circle cx="390" cy="280" r="44.5" fill="white" stroke="black" stroke-width="3"/>
<path d="M333 47C335.958 48.9137 337.355 53.7977 338.778 57C340.107 59.9913 339 65.6234 339 68.7222C339 76.3519 339 83.9815 339 91.6111C339 112.952 343.003 133.991 335.222 154.222C331.72 163.327 328.303 169 317.889 169C311.544 169 307.007 171.578 301.222 174C298.948 174.952 296.263 175.737 294.5 177.5C293.137 178.863 291.308 182.543 289.5 182.944C287.643 183.357 287.707 184.969 286 185.778C284.458 186.508 280.8 186.726 279.056 186.944C275.009 187.45 270.821 188.302 267 190C260.849 192.734 252.874 191.581 246.333 193.611C237.705 196.289 226.983 199.224 219.222 204C216.656 205.579 212.867 207.841 210 208C208.005 208.111 205.649 210.059 203.444 210.5C199.835 211.222 194.627 211.446 191.5 213.611C184.639 218.361 176.598 220.573 169.778 225.444C165.729 228.337 161.742 232.541 158.111 235.944C151.95 241.721 145.855 246.205 141.444 253.556C136.565 261.689 132 268.314 132 278C132 283.767 131.337 289.364 129.222 294.778C125.323 304.76 119.37 333.397 131.333 339.778C136.703 342.642 128.895 360.255 136.5 361.944C141.036 362.952 143.213 364.704 146.778 368.222C154.087 375.436 161.038 379.401 171.444 375.556C188.324 369.317 206.618 372.503 224.278 372.944C237.546 373.276 251.203 373.635 264.444 372.778C273.422 372.196 281.848 368.99 290.778 368.222C305.395 366.965 319.983 371.315 334.778 369.778C343.42 368.88 351.031 363.25 359.444 361.056C364.165 359.824 369.494 359.656 373.778 357.222C377.368 355.182 379.297 351.594 383 349.778C390.153 346.269 398.329 347 406.056 347C411.006 347 415.798 339.248 412.222 334.778C411.05 333.313 413.903 328.025 412.5 325.5C411.506 323.711 414 322.315 414 320" stroke="black" stroke-width="3" stroke-linecap="round"/>
<path d="M436 275C449.697 275 462.451 277.05 472.389 287.556C479.332 294.896 480.232 303.859 481.444 313.389C483.193 327.124 482.563 341.483 483.444 355.333C484.827 377.06 483.192 396.035 468.444 412.889C446.305 438.191 414.833 435.438 384.5 432.944C370.921 431.828 356.504 432.114 343.222 429C332.5 426.486 324.048 420.355 314.333 415.556C304.063 410.482 298.421 400.489 290.222 392.889C280.7 384.062 266.273 371.618 252.667 371C248.802 370.824 253.016 364.395 253.778 362.667C253.938 362.304 255.865 359.304 255.333 359C252.28 357.255 248.958 355.892 245.889 354.111C236.977 348.938 226.51 345.216 222.778 334.889C219.698 326.368 217.467 319.046 215.778 310.222C212.788 294.611 204.155 285.072 191.556 276C185.655 271.752 188.033 267.542 186.944 261.556C186.527 259.257 183.696 256.888 182 255.556C178.753 253.004 178.27 247.513 177.056 243.667C173.361 231.966 176 216.582 176 204.389C176 197.3 175.9 189.597 180.556 183.611C183.151 180.273 194.416 183.686 197.778 183.944C201.824 184.256 203.997 182 208 182C211.484 182 214.084 181 217.5 181C222.256 181 225.326 181.681 229.778 183.222C239.111 186.453 250.084 188 260 188C264.944 188 274.199 190.225 278.222 193C281.064 194.96 282.876 198.298 286 199.778C287.076 200.287 288.899 200.431 289.778 201.222C295.245 206.142 288.415 219.963 286.389 224.611C281.339 236.195 275.305 247.655 269.111 258.667C264.118 267.544 257.425 275.425 252.944 284.611C250.154 290.333 247.395 296.263 243.944 301.611C237.171 312.111 229.027 322.023 222.778 332.778C217.074 342.593 212.009 353.071 207.444 363.444C206.143 366.402 204.306 369.694 201.556 371.444C199.241 372.918 195.614 372.616 193 373.778C191.379 374.498 187.816 374.233 186.222 373.778C176.147 370.899 166.916 365.644 157.222 361.778C143.507 356.308 124.667 351.486 114.111 340.444C106.192 332.161 101.385 321.236 94 312.444C90.5483 308.335 86.1777 305.486 86 299.889C85.6422 288.619 79.7408 281.614 71.2222 274.667C61.0371 266.36 48.0203 261.396 39.2222 251.444C37.2991 249.269 33.7635 244.282 35.2222 241C36.6773 237.726 39.1833 236.012 40.7778 233C42.0059 230.68 43.671 228.161 45.2222 226.222C46.5916 224.511 47.1335 220.933 49 220" stroke="black" stroke-width="3" stroke-linecap="round"/>
<path d="M381.57 289H376.184V271.545H381.809C383.502 271.545 384.951 271.895 386.156 272.594C387.36 273.287 388.283 274.284 388.925 275.585C389.567 276.881 389.888 278.432 389.888 280.239C389.888 282.057 389.565 283.622 388.917 284.935C388.269 286.241 387.326 287.247 386.087 287.952C384.849 288.651 383.343 289 381.57 289ZM378.298 287.125H381.434C382.877 287.125 384.073 286.847 385.022 286.29C385.971 285.733 386.678 284.94 387.144 283.912C387.61 282.884 387.843 281.659 387.843 280.239C387.843 278.83 387.613 277.616 387.153 276.599C386.692 275.577 386.005 274.793 385.09 274.247C384.175 273.696 383.036 273.42 381.673 273.42H378.298V287.125ZM393.434 289V271.545H399.536C400.752 271.545 401.755 271.756 402.545 272.176C403.335 272.591 403.923 273.151 404.309 273.855C404.695 274.554 404.888 275.33 404.888 276.182C404.888 276.932 404.755 277.551 404.488 278.04C404.227 278.528 403.88 278.915 403.448 279.199C403.022 279.483 402.559 279.693 402.059 279.83V280C402.593 280.034 403.13 280.222 403.67 280.562C404.21 280.903 404.661 281.392 405.025 282.028C405.388 282.665 405.57 283.443 405.57 284.364C405.57 285.239 405.371 286.026 404.974 286.724C404.576 287.423 403.948 287.977 403.09 288.386C402.232 288.795 401.116 289 399.741 289H393.434ZM395.548 287.125H399.741C401.121 287.125 402.102 286.858 402.681 286.324C403.266 285.784 403.559 285.131 403.559 284.364C403.559 283.773 403.408 283.227 403.107 282.727C402.806 282.222 402.377 281.818 401.82 281.517C401.263 281.21 400.604 281.057 399.843 281.057H395.548V287.125ZM395.548 279.216H399.468C400.104 279.216 400.678 279.091 401.19 278.841C401.707 278.591 402.116 278.239 402.417 277.784C402.724 277.33 402.877 276.795 402.877 276.182C402.877 275.415 402.61 274.764 402.076 274.23C401.542 273.69 400.695 273.42 399.536 273.42H395.548V279.216Z" fill="black"/>
<path d="M192 47C184.849 54.945 179.735 64.8992 172.444 73C164.27 82.0832 154.412 89.5601 146.444 98.7778C142.571 103.259 140.906 111.737 143.5 117.444C146.93 124.99 140.397 136.742 140 144.556C138.955 165.112 139.913 185.205 144.444 205.389C145.796 211.411 147.432 218.503 152.5 222.444C156.581 225.619 163.261 225.09 168 227.222C170.169 228.198 173.132 228.58 175.5 228.944C180.331 229.688 185.063 231.619 189.944 231.944C198.155 232.492 205.125 234.785 212.444 238.444C223.538 243.991 233 257.184 233 270.167C233 276.309 232.777 279.89 230.222 285C226.971 291.503 230.59 295.626 223.444 299.056C211.249 304.909 197.611 310.389 188 320C181.776 326.224 174.318 331.682 167.944 338.056C159.759 346.241 151.496 352.834 145.444 363C144.067 365.314 140.487 369.804 140.056 372.611C139.449 376.556 139.775 380.488 139.056 384.444C138.07 389.865 135.146 395.092 133.944 400.5C132.833 405.502 133.502 407.81 130.444 412.778C129.131 414.912 130.114 414.971 127.444 414C121.481 411.831 114.427 413.255 108.222 412.944C102.264 412.647 94.2255 413.586 91.7778 407.222C90.2208 403.174 87.9102 401.765 89.0555 396.611C89.3015 395.505 91.1346 394.703 92 394.222C95.6388 392.201 97.7925 386.652 100.778 383.667C104.256 380.189 105.86 378.955 108.5 374.556C111.174 370.098 115.871 367.071 118 362.222C119.735 358.269 127.505 354.353 130.778 351.222C133.331 348.78 137.91 346.433 141.5 346.056C146.256 345.555 150.027 340.946 154.056 338.5C160.556 334.553 167.987 332.11 175 329.222C183.86 325.574 192.42 320.984 201.444 317.778C206.07 316.134 212.9 314.227 217.833 315.556C221.221 316.467 224.506 318 228.111 318C241.369 318 256.127 315.244 265 327.444C271.807 336.804 276.597 325.646 281.056 320.444C284.947 315.904 288.765 307.549 294.5 305C300.666 302.26 293.009 302.34 291.778 300C283.536 284.34 270.884 274.837 257.889 263.389C253.373 259.41 244 253.84 244 247C244 238.583 212.924 244.877 207.778 245.556C195.428 247.183 182.065 248.076 169.944 246.056C161.125 244.586 148.118 239.118 141.556 232.556C138.428 229.428 129.126 227.735 125.5 230.556C120.303 234.597 138 255.259 138 262.778C138 267.99 136.9 273.769 137.611 278.889C138.095 282.371 140 285.987 140 289.5C140 294.912 140.656 299.988 141.556 305.333C142.509 310.996 142.056 320.359 146 325C155.082 335.684 161.859 346.338 173.444 354.944C189.212 366.657 204.686 371.619 223.333 376.556C234.946 379.629 244.952 385.336 256.056 389.5C266.402 393.38 288.93 404.887 296 393.222C312.01 366.805 324.04 334.068 316 303.056C313.53 293.528 309.67 288.785 299.778 289C290.736 289.197 290.017 293.836 285.944 300.556C284.318 303.239 280.184 307.694 280 311C279.698 316.429 284.722 322.79 286.778 327.556C290.428 336.016 296.634 343.642 298.944 352.5C301.813 363.498 308.797 373.071 312.611 383.667C313.862 387.142 316 389.914 316 393.667C316 398.884 316.28 404.184 315.944 409.389C315.55 415.508 317.664 420.291 318 426C318.15 428.547 319.473 431.88 320.056 434.5C322.181 444.065 321.934 456.498 318.222 465.778C316.425 470.271 315.156 476.61 316.056 481.556C316.733 485.281 319 488.255 319 492C319 496.619 320.104 499.48 321.444 503.5C322.264 505.958 304.664 509 312 509" stroke="black" stroke-width="3" stroke-linecap="round"/>
</svg>
