<svg width="532" height="474" viewBox="0 0 532 474" fill="none" xmlns="http://www.w3.org/2000/svg">
<rect width="532" height="474" fill="#F5F5F5"/>
<rect x="180.5" y="221.5" width="188" height="185" fill="white" stroke="black"/>
<rect x="4.5" y="78.5" width="153" height="112" rx="14.5" fill="white" stroke="black" stroke-width="3"/>
<rect x="210.5" y="97.5" width="87" height="73" rx="14.5" fill="white" stroke="black" stroke-width="3"/>
<rect x="410.5" y="97.5" width="120" height="308" rx="2.5" fill="white" stroke="black" stroke-width="3"/>
<rect x="197.5" y="240.5" width="53" height="50" rx="14.5" fill="white" stroke="black" stroke-width="3"/>
<rect x="197.5" y="332.5" width="62" height="59" rx="14.5" fill="white" stroke="black" stroke-width="3"/>
<rect x="279.5" y="241.5" width="74" height="69" rx="14.5" fill="white" stroke="black" stroke-width="3"/>
<rect x="279.5" y="323.5" width="74" height="69" rx="14.5" fill="white" stroke="black" stroke-width="3"/>
<rect x="1.5" y="222.5" width="153" height="188" rx="14.5" fill="white" stroke="black" stroke-width="3"/>
<path d="M76.9393 78.0607C77.5251 78.6464 78.4749 78.6464 79.0607 78.0607L88.6066 68.5147C89.1924 67.9289 89.1924 66.9792 88.6066 66.3934C88.0208 65.8076 87.0711 65.8076 86.4853 66.3934L78 74.8787L69.5147 66.3934C68.9289 65.8076 67.9792 65.8076 67.3934 66.3934C66.8076 66.9792 66.8076 67.9289 67.3934 68.5147L76.9393 78.0607ZM76.5 27V77H79.5V27H76.5Z" fill="black"/>
<path d="M120.939 78.0607C121.525 78.6464 122.475 78.6464 123.061 78.0607L132.607 68.5147C133.192 67.9289 133.192 66.9792 132.607 66.3934C132.021 65.8076 131.071 65.8076 130.485 66.3934L122 74.8787L113.515 66.3934C112.929 65.8076 111.979 65.8076 111.393 66.3934C110.808 66.9792 110.808 67.9289 111.393 68.5147L120.939 78.0607ZM120.5 27L120.5 77L123.5 77L123.5 27L120.5 27Z" fill="black"/>
<path d="M250.939 97.0607C251.525 97.6464 252.475 97.6464 253.061 97.0607L262.607 87.5147C263.192 86.9289 263.192 85.9792 262.607 85.3934C262.021 84.8076 261.071 84.8076 260.485 85.3934L252 93.8787L243.515 85.3934C242.929 84.8076 241.979 84.8076 241.393 85.3934C240.808 85.9792 240.808 86.9289 241.393 87.5147L250.939 97.0607ZM250.5 27L250.5 96L253.5 96L253.5 27L250.5 27Z" fill="black"/>
<path d="M210.061 135.061C210.646 134.475 210.646 133.525 210.061 132.939L200.515 123.393C199.929 122.808 198.979 122.808 198.393 123.393C197.808 123.979 197.808 124.929 198.393 125.515L206.879 134L198.393 142.485C197.808 143.071 197.808 144.021 198.393 144.607C198.979 145.192 199.929 145.192 200.515 144.607L210.061 135.061ZM159 135.5H209V132.5H159V135.5Z" fill="black"/>
<path d="M410.061 135.061C410.646 134.475 410.646 133.525 410.061 132.939L400.515 123.393C399.929 122.808 398.979 122.808 398.393 123.393C397.808 123.979 397.808 124.929 398.393 125.515L406.879 134L398.393 142.485C397.808 143.071 397.808 144.021 398.393 144.607C398.979 145.192 399.929 145.192 400.515 144.607L410.061 135.061ZM299 135.5H409V132.5H299V135.5Z" fill="black"/>
<path d="M92.9393 222.061C93.5251 222.646 94.4749 222.646 95.0607 222.061L104.607 212.515C105.192 211.929 105.192 210.979 104.607 210.393C104.021 209.808 103.071 209.808 102.485 210.393L94 218.879L85.5147 210.393C84.9289 209.808 83.9792 209.808 83.3934 210.393C82.8076 210.979 82.8076 211.929 83.3934 212.515L92.9393 222.061ZM92.5 192L92.5 221L95.5 221L95.5 192L92.5 192Z" fill="black"/>
<path d="M197.061 266.061C197.646 265.475 197.646 264.525 197.061 263.939L187.515 254.393C186.929 253.808 185.979 253.808 185.393 254.393C184.808 254.979 184.808 255.929 185.393 256.515L193.879 265L185.393 273.485C184.808 274.071 184.808 275.021 185.393 275.607C185.979 276.192 186.929 276.192 187.515 275.607L197.061 266.061ZM156 266.5H196V263.5H156V266.5Z" fill="black"/>
<path d="M314.939 323.061C315.525 323.646 316.475 323.646 317.061 323.061L326.607 313.515C327.192 312.929 327.192 311.979 326.607 311.393C326.021 310.808 325.071 310.808 324.485 311.393L316 319.879L307.515 311.393C306.929 310.808 305.979 310.808 305.393 311.393C304.808 311.979 304.808 312.929 305.393 313.515L314.939 323.061ZM314.5 312L314.5 322L317.5 322L317.5 312L314.5 312Z" fill="black"/>
<path d="M229.061 290.939C228.475 290.354 227.525 290.354 226.939 290.939L217.393 300.485C216.808 301.071 216.808 302.021 217.393 302.607C217.979 303.192 218.929 303.192 219.515 302.607L228 294.121L236.485 302.607C237.071 303.192 238.021 303.192 238.607 302.607C239.192 302.021 239.192 301.071 238.607 300.485L229.061 290.939ZM229.5 331L229.5 292L226.5 292L226.5 331L229.5 331Z" fill="black"/>
<path d="M275.061 266.061C275.646 265.475 275.646 264.525 275.061 263.939L265.515 254.393C264.929 253.808 263.979 253.808 263.393 254.393C262.808 254.979 262.808 255.929 263.393 256.515L271.879 265L263.393 273.485C262.808 274.071 262.808 275.021 263.393 275.607C263.979 276.192 264.929 276.192 265.515 275.607L275.061 266.061ZM252 266.5H274V263.5H252V266.5Z" fill="black"/>
<path d="M259.939 360.939C259.354 361.525 259.354 362.475 259.939 363.061L269.485 372.607C270.071 373.192 271.021 373.192 271.607 372.607C272.192 372.021 272.192 371.071 271.607 370.485L263.121 362L271.607 353.515C272.192 352.929 272.192 351.979 271.607 351.393C271.021 350.808 270.071 350.808 269.485 351.393L259.939 360.939ZM278 360.5L261 360.5L261 363.5L278 363.5L278 360.5Z" fill="black"/>
<path d="M314.939 449.061C315.525 449.646 316.475 449.646 317.061 449.061L326.607 439.515C327.192 438.929 327.192 437.979 326.607 437.393C326.021 436.808 325.071 436.808 324.485 437.393L316 445.879L307.515 437.393C306.929 436.808 305.979 436.808 305.393 437.393C304.808 437.979 304.808 438.929 305.393 439.515L314.939 449.061ZM314.5 394L314.5 448L317.5 448L317.5 394L314.5 394Z" fill="black"/>
<path d="M92.9393 443.061C93.5251 443.646 94.4749 443.646 95.0607 443.061L104.607 433.515C105.192 432.929 105.192 431.979 104.607 431.393C104.021 430.808 103.071 430.808 102.485 431.393L94 439.879L85.5147 431.393C84.9289 430.808 83.9792 430.808 83.3934 431.393C82.8076 431.979 82.8076 432.929 83.3934 433.515L92.9393 443.061ZM92.5 412L92.5 442L95.5 442L95.5 412L92.5 412Z" fill="black"/>
<path d="M353.939 356.939C353.354 357.525 353.354 358.475 353.939 359.061L363.485 368.607C364.071 369.192 365.021 369.192 365.607 368.607C366.192 368.021 366.192 367.071 365.607 366.485L357.121 358L365.607 349.515C366.192 348.929 366.192 347.979 365.607 347.393C365.021 346.808 364.071 346.808 363.485 347.393L353.939 356.939ZM409 356.5L355 356.5L355 359.5L409 359.5L409 356.5Z" fill="black"/>
<path d="M348.939 274.939C348.354 275.525 348.354 276.475 348.939 277.061L358.485 286.607C359.071 287.192 360.021 287.192 360.607 286.607C361.192 286.021 361.192 285.071 360.607 284.485L352.121 276L360.607 267.515C361.192 266.929 361.192 265.979 360.607 265.393C360.021 264.808 359.071 264.808 358.485 265.393L348.939 274.939ZM409 274.5L350 274.5L350 277.5L409 277.5L409 274.5Z" fill="black"/>
<rect x="19.5" y="281.5" width="87" height="99" rx="14.5" fill="white" stroke="black" stroke-width="3"/>
<path d="M61.5677 280.446C61.8138 281.237 62.6546 281.678 63.4456 281.432L76.3362 277.422C77.1272 277.176 77.569 276.335 77.3229 275.544C77.0768 274.753 76.236 274.311 75.445 274.557L63.9867 278.122L60.4219 266.664C60.1758 265.873 59.335 265.431 58.544 265.677C57.753 265.923 57.3112 266.764 57.5573 267.555L61.5677 280.446ZM92.6721 220.302L61.6721 279.302L64.3279 280.698L95.3279 221.698L92.6721 220.302Z" fill="black"/>
<path d="M93.6784 408.465C94.4875 408.643 95.2875 408.131 95.4651 407.322L98.3596 394.136C98.5372 393.326 98.0253 392.526 97.2161 392.349C96.4069 392.171 95.607 392.683 95.4294 393.492L92.8565 405.213L81.1356 402.64C80.3264 402.463 79.5265 402.975 79.3488 403.784C79.1712 404.593 79.6832 405.393 80.4923 405.571L93.6784 408.465ZM76.7366 382.809L92.7366 407.809L95.2634 406.191L79.2634 381.191L76.7366 382.809Z" fill="black"/>
<path d="M130 330L128.542 329.648L128.5 329.822V330H130ZM106.939 299.939C106.354 300.525 106.354 301.475 106.939 302.061L116.485 311.607C117.071 312.192 118.021 312.192 118.607 311.607C119.192 311.021 119.192 310.071 118.607 309.485L110.121 301L118.607 292.515C119.192 291.929 119.192 290.979 118.607 290.393C118.021 289.808 117.071 289.808 116.485 290.393L106.939 299.939ZM107.864 359.494C113.74 360.028 118.259 358.42 121.669 355.63C125.038 352.873 127.224 349.048 128.652 345.282C130.084 341.507 130.792 337.693 131.145 334.84C131.322 333.41 131.41 332.21 131.455 331.364C131.477 330.941 131.488 330.605 131.494 330.373C131.497 330.257 131.498 330.167 131.499 330.104C131.5 330.072 131.5 330.048 131.5 330.03C131.5 330.022 131.5 330.015 131.5 330.01C131.5 330.007 131.5 330.005 131.5 330.004C131.5 330.003 131.5 330.002 131.5 330.001C131.5 330.001 131.5 330 130 330C128.5 330 128.5 330 128.5 329.999C128.5 329.999 128.5 329.999 128.5 329.999C128.5 329.999 128.5 330 128.5 330.001C128.5 330.003 128.5 330.007 128.5 330.013C128.5 330.024 128.5 330.043 128.499 330.068C128.499 330.119 128.498 330.197 128.495 330.3C128.49 330.506 128.48 330.813 128.459 331.206C128.418 331.993 128.334 333.122 128.168 334.472C127.833 337.182 127.166 340.743 125.848 344.218C124.526 347.702 122.587 351.002 119.769 353.308C116.991 355.58 113.26 356.972 108.136 356.506L107.864 359.494ZM130 330C131.458 330.352 131.458 330.351 131.459 330.35C131.459 330.35 131.459 330.349 131.459 330.348C131.46 330.346 131.46 330.344 131.461 330.341C131.462 330.336 131.464 330.329 131.466 330.32C131.47 330.302 131.475 330.278 131.483 330.246C131.497 330.184 131.516 330.094 131.54 329.98C131.588 329.751 131.652 329.421 131.723 329.005C131.864 328.174 132.031 326.994 132.136 325.581C132.347 322.766 132.32 318.963 131.327 315.124C130.332 311.274 128.347 307.33 124.605 304.357C120.858 301.38 115.504 299.5 108 299.5V302.5C114.996 302.5 119.642 304.245 122.739 306.706C125.841 309.17 127.543 312.476 128.423 315.876C129.305 319.287 129.341 322.734 129.145 325.357C129.047 326.662 128.894 327.748 128.765 328.503C128.701 328.88 128.644 329.173 128.603 329.369C128.583 329.467 128.566 329.54 128.556 329.587C128.551 329.611 128.547 329.628 128.544 329.638C128.543 329.643 128.542 329.647 128.542 329.648C128.542 329.649 128.542 329.649 128.542 329.649C128.542 329.649 128.542 329.649 128.542 329.649C128.542 329.649 128.542 329.648 130 330Z" fill="black"/>
<path d="M32.448 2.304V4.128H39.24V2.304H32.448ZM38.328 2.304C38.328 6.816 39.12 17.04 48.72 22.848C49.056 22.416 49.776 21.648 50.184 21.336C40.704 15.72 40.176 6.6 40.176 2.304H38.328ZM37.656 7.008C36.192 13.8 33.192 18.648 27.864 21.432C28.344 21.768 29.16 22.512 29.496 22.896C34.8 19.776 37.968 14.712 39.696 7.392L37.656 7.008ZM52.968 6.096V7.92H71.592V6.096H52.968ZM70.896 6.096V6.48C70.416 16.008 69.888 19.752 68.976 20.64C68.664 20.928 68.376 21 67.848 21C67.248 21 65.712 20.976 64.08 20.832C64.416 21.36 64.656 22.152 64.68 22.68C66.168 22.776 67.704 22.824 68.544 22.728C69.456 22.656 70.032 22.464 70.608 21.768C71.664 20.568 72.168 16.992 72.72 7.056C72.744 6.768 72.768 6.096 72.768 6.096H70.896ZM60.816 0.887999V5.064C60.816 10.032 60.24 16.848 52.272 21.6C52.704 21.912 53.376 22.584 53.64 23.016C62.04 17.952 62.712 10.536 62.712 5.064V0.887999H60.816ZM82.9432 3.54545V21H80.8295V5.76136H80.7273L76.4659 8.59091V6.44318L80.8295 3.54545H82.9432Z" fill="black"/>
<path d="M113.448 2.304V4.128H120.24V2.304H113.448ZM119.328 2.304C119.328 6.816 120.12 17.04 129.72 22.848C130.056 22.416 130.776 21.648 131.184 21.336C121.704 15.72 121.176 6.6 121.176 2.304H119.328ZM118.656 7.008C117.192 13.8 114.192 18.648 108.864 21.432C109.344 21.768 110.16 22.512 110.496 22.896C115.8 19.776 118.968 14.712 120.696 7.392L118.656 7.008ZM133.968 6.096V7.92H152.592V6.096H133.968ZM151.896 6.096V6.48C151.416 16.008 150.888 19.752 149.976 20.64C149.664 20.928 149.376 21 148.848 21C148.248 21 146.712 20.976 145.08 20.832C145.416 21.36 145.656 22.152 145.68 22.68C147.168 22.776 148.704 22.824 149.544 22.728C150.456 22.656 151.032 22.464 151.608 21.768C152.664 20.568 153.168 16.992 153.72 7.056C153.744 6.768 153.768 6.096 153.768 6.096H151.896ZM141.816 0.887999V5.064C141.816 10.032 141.24 16.848 133.272 21.6C133.704 21.912 134.376 22.584 134.64 23.016C143.04 17.952 143.712 10.536 143.712 5.064V0.887999H141.816ZM157.807 21V19.4659L163.568 13.1591C164.244 12.4205 164.801 11.7784 165.239 11.233C165.676 10.6818 166 10.1648 166.21 9.68182C166.426 9.19318 166.534 8.68182 166.534 8.14773C166.534 7.53409 166.386 7.00284 166.091 6.55398C165.801 6.10511 165.403 5.75852 164.898 5.5142C164.392 5.26989 163.824 5.14773 163.193 5.14773C162.523 5.14773 161.938 5.28693 161.438 5.56534C160.943 5.83807 160.56 6.22159 160.287 6.71591C160.02 7.21023 159.886 7.78977 159.886 8.45454H157.875C157.875 7.43182 158.111 6.53409 158.582 5.76136C159.054 4.98864 159.696 4.38636 160.509 3.95454C161.327 3.52273 162.244 3.30682 163.261 3.30682C164.284 3.30682 165.19 3.52273 165.98 3.95454C166.77 4.38636 167.389 4.96875 167.838 5.7017C168.287 6.43466 168.511 7.25 168.511 8.14773C168.511 8.78977 168.395 9.41761 168.162 10.0312C167.935 10.6392 167.537 11.3182 166.969 12.0682C166.406 12.8125 165.625 13.7216 164.625 14.7955L160.705 18.9886V19.125H168.818V21H157.807Z" fill="black"/>
<path d="M229.448 2.304V4.128H236.24V2.304H229.448ZM235.328 2.304C235.328 6.816 236.12 17.04 245.72 22.848C246.056 22.416 246.776 21.648 247.184 21.336C237.704 15.72 237.176 6.6 237.176 2.304H235.328ZM234.656 7.008C233.192 13.8 230.192 18.648 224.864 21.432C225.344 21.768 226.16 22.512 226.496 22.896C231.8 19.776 234.968 14.712 236.696 7.392L234.656 7.008ZM249.968 6.096V7.92H268.592V6.096H249.968ZM267.896 6.096V6.48C267.416 16.008 266.888 19.752 265.976 20.64C265.664 20.928 265.376 21 264.848 21C264.248 21 262.712 20.976 261.08 20.832C261.416 21.36 261.656 22.152 261.68 22.68C263.168 22.776 264.704 22.824 265.544 22.728C266.456 22.656 267.032 22.464 267.608 21.768C268.664 20.568 269.168 16.992 269.72 7.056C269.744 6.768 269.768 6.096 269.768 6.096H267.896ZM257.816 0.887999V5.064C257.816 10.032 257.24 16.848 249.272 21.6C249.704 21.912 250.376 22.584 250.64 23.016C259.04 17.952 259.712 10.536 259.712 5.064V0.887999H257.816ZM279.705 21.2386C278.58 21.2386 277.577 21.0455 276.696 20.6591C275.821 20.2727 275.125 19.7358 274.608 19.0483C274.097 18.3551 273.818 17.5511 273.773 16.6364H275.92C275.966 17.1989 276.159 17.6847 276.5 18.0938C276.841 18.4972 277.287 18.8097 277.838 19.0312C278.389 19.2528 279 19.3636 279.67 19.3636C280.42 19.3636 281.085 19.233 281.665 18.9716C282.244 18.7102 282.699 18.3466 283.028 17.8807C283.358 17.4148 283.523 16.875 283.523 16.2614C283.523 15.6193 283.364 15.054 283.045 14.5653C282.727 14.071 282.261 13.6847 281.648 13.4062C281.034 13.1278 280.284 12.9886 279.398 12.9886H278V11.1136H279.398C280.091 11.1136 280.699 10.9886 281.222 10.7386C281.75 10.4886 282.162 10.1364 282.457 9.68182C282.759 9.22727 282.909 8.69318 282.909 8.07954C282.909 7.48864 282.778 6.97443 282.517 6.53693C282.256 6.09943 281.886 5.75852 281.409 5.5142C280.938 5.26989 280.381 5.14773 279.739 5.14773C279.136 5.14773 278.568 5.25852 278.034 5.48011C277.506 5.69602 277.074 6.01136 276.739 6.42614C276.403 6.83523 276.222 7.32955 276.193 7.90909H274.148C274.182 6.99432 274.457 6.19318 274.974 5.50568C275.491 4.8125 276.168 4.27273 277.003 3.88636C277.844 3.5 278.767 3.30682 279.773 3.30682C280.852 3.30682 281.778 3.52557 282.551 3.96307C283.324 4.39489 283.918 4.96591 284.332 5.67614C284.747 6.38636 284.955 7.15341 284.955 7.97727C284.955 8.96023 284.696 9.7983 284.179 10.4915C283.668 11.1847 282.972 11.6648 282.091 11.9318V12.0682C283.193 12.25 284.054 12.7187 284.673 13.4744C285.293 14.2244 285.602 15.1534 285.602 16.2614C285.602 17.2102 285.344 18.0625 284.827 18.8182C284.315 19.5682 283.616 20.1591 282.73 20.5909C281.844 21.0227 280.835 21.2386 279.705 21.2386Z" fill="black"/>
<path d="M462.57 251H457.184V233.545H462.809C464.502 233.545 465.951 233.895 467.156 234.594C468.36 235.287 469.283 236.284 469.925 237.585C470.567 238.881 470.888 240.432 470.888 242.239C470.888 244.057 470.565 245.622 469.917 246.935C469.269 248.241 468.326 249.247 467.087 249.952C465.849 250.651 464.343 251 462.57 251ZM459.298 249.125H462.434C463.877 249.125 465.073 248.847 466.022 248.29C466.971 247.733 467.678 246.94 468.144 245.912C468.61 244.884 468.843 243.659 468.843 242.239C468.843 240.83 468.613 239.616 468.153 238.599C467.692 237.577 467.005 236.793 466.09 236.247C465.175 235.696 464.036 235.42 462.673 235.42H459.298V249.125ZM474.434 251V233.545H480.536C481.752 233.545 482.755 233.756 483.545 234.176C484.335 234.591 484.923 235.151 485.309 235.855C485.695 236.554 485.888 237.33 485.888 238.182C485.888 238.932 485.755 239.551 485.488 240.04C485.227 240.528 484.88 240.915 484.448 241.199C484.022 241.483 483.559 241.693 483.059 241.83V242C483.593 242.034 484.13 242.222 484.67 242.562C485.21 242.903 485.661 243.392 486.025 244.028C486.388 244.665 486.57 245.443 486.57 246.364C486.57 247.239 486.371 248.026 485.974 248.724C485.576 249.423 484.948 249.977 484.09 250.386C483.232 250.795 482.116 251 480.741 251H474.434ZM476.548 249.125H480.741C482.121 249.125 483.102 248.858 483.681 248.324C484.266 247.784 484.559 247.131 484.559 246.364C484.559 245.773 484.408 245.227 484.107 244.727C483.806 244.222 483.377 243.818 482.82 243.517C482.263 243.21 481.604 243.057 480.843 243.057H476.548V249.125ZM476.548 241.216H480.468C481.104 241.216 481.678 241.091 482.19 240.841C482.707 240.591 483.116 240.239 483.417 239.784C483.724 239.33 483.877 238.795 483.877 238.182C483.877 237.415 483.61 236.764 483.076 236.23C482.542 235.69 481.695 235.42 480.536 235.42H476.548V241.216Z" fill="black"/>
<path d="M293.576 469.656V471.432H310.52V469.656H293.576ZM300.944 450.984V470.664H302.792V450.984H300.944ZM292.688 462.96V472.944H294.512V462.96H292.688ZM309.56 462.96V472.872H311.408V462.96H309.56ZM293.624 453.144V461.424H310.448V453.144H308.576V459.672H295.4V453.144H293.624ZM315.968 456.096V457.92H334.592V456.096H315.968ZM333.896 456.096V456.48C333.416 466.008 332.888 469.752 331.976 470.64C331.664 470.928 331.376 471 330.848 471C330.248 471 328.712 470.976 327.08 470.832C327.416 471.36 327.656 472.152 327.68 472.68C329.168 472.776 330.704 472.824 331.544 472.728C332.456 472.656 333.032 472.464 333.608 471.768C334.664 470.568 335.168 466.992 335.72 457.056C335.744 456.768 335.768 456.096 335.768 456.096H333.896ZM323.816 450.888V455.064C323.816 460.032 323.24 466.848 315.272 471.6C315.704 471.912 316.376 472.584 316.64 473.016C325.04 467.952 325.712 460.536 325.712 455.064V450.888H323.816ZM339.807 471V469.466L345.568 463.159C346.244 462.42 346.801 461.778 347.239 461.233C347.676 460.682 348 460.165 348.21 459.682C348.426 459.193 348.534 458.682 348.534 458.148C348.534 457.534 348.386 457.003 348.091 456.554C347.801 456.105 347.403 455.759 346.898 455.514C346.392 455.27 345.824 455.148 345.193 455.148C344.523 455.148 343.938 455.287 343.438 455.565C342.943 455.838 342.56 456.222 342.287 456.716C342.02 457.21 341.886 457.79 341.886 458.455H339.875C339.875 457.432 340.111 456.534 340.582 455.761C341.054 454.989 341.696 454.386 342.509 453.955C343.327 453.523 344.244 453.307 345.261 453.307C346.284 453.307 347.19 453.523 347.98 453.955C348.77 454.386 349.389 454.969 349.838 455.702C350.287 456.435 350.511 457.25 350.511 458.148C350.511 458.79 350.395 459.418 350.162 460.031C349.935 460.639 349.537 461.318 348.969 462.068C348.406 462.812 347.625 463.722 346.625 464.795L342.705 468.989V469.125H350.818V471H339.807Z" fill="black"/>
<path d="M67.576 463.656V465.432H84.52V463.656H67.576ZM74.944 444.984V464.664H76.792V444.984H74.944ZM66.688 456.96V466.944H68.512V456.96H66.688ZM83.56 456.96V466.872H85.408V456.96H83.56ZM67.624 447.144V455.424H84.448V447.144H82.576V453.672H69.4V447.144H67.624ZM89.968 450.096V451.92H108.592V450.096H89.968ZM107.896 450.096V450.48C107.416 460.008 106.888 463.752 105.976 464.64C105.664 464.928 105.376 465 104.848 465C104.248 465 102.712 464.976 101.08 464.832C101.416 465.36 101.656 466.152 101.68 466.68C103.168 466.776 104.704 466.824 105.544 466.728C106.456 466.656 107.032 466.464 107.608 465.768C108.664 464.568 109.168 460.992 109.72 451.056C109.744 450.768 109.768 450.096 109.768 450.096H107.896ZM97.816 444.888V449.064C97.816 454.032 97.24 460.848 89.272 465.6C89.704 465.912 90.376 466.584 90.64 467.016C99.04 461.952 99.712 454.536 99.712 449.064V444.888H97.816ZM119.943 447.545V465H117.83V449.761H117.727L113.466 452.591V450.443L117.83 447.545H119.943Z" fill="black"/>
</svg>
