<?xml version="1.0" encoding="UTF-8" standalone="no"?>
<!DOCTYPE svg PUBLIC "-//W3C//DTD SVG 1.1//EN"
 "http://www.w3.org/Graphics/SVG/1.1/DTD/svg11.dtd">
<!-- Generated by graphviz version 2.40.1 (20161225.0304)
 -->
<!-- Title: get() Pages: 1 -->
<svg width="270pt" height="454pt"
 viewBox="0.00 0.00 270.00 454.00" xmlns="http://www.w3.org/2000/svg" xmlns:xlink="http://www.w3.org/1999/xlink">
<g id="graph0" class="graph" transform="scale(1 1) rotate(0) translate(4 450)">
<title>get()</title>
<polygon fill="#ffffff" stroke="transparent" points="-4,4 -4,-450 266,-450 266,4 -4,4"/>
<g id="clust1" class="cluster">
<title>cluster_a</title>
<polygon fill="none" stroke="#000000" points="8,-65 8,-367 254,-367 254,-65 8,-65"/>
</g>
<!-- N1 -->
<g id="node1" class="node">
<title>N1</title>
<ellipse fill="none" stroke="#000000" cx="184" cy="-428" rx="27" ry="18"/>
<text text-anchor="middle" x="184" y="-424.3" font-family="Times,serif" font-size="14.00" fill="#000000">fp</text>
</g>
<!-- N2 -->
<g id="node2" class="node">
<title>N2</title>
<polygon fill="none" stroke="#000000" points="230,-359 138,-359 138,-323 230,-323 230,-359"/>
<text text-anchor="middle" x="184" y="-337.3" font-family="Courier,monospace" font-size="14.00" fill="#000000">readLine()</text>
</g>
<!-- N1&#45;&gt;N2 -->
<g id="edge1" class="edge">
<title>N1&#45;&gt;N2</title>
<path fill="none" stroke="#000000" d="M184,-409.9735C184,-398.1918 184,-382.5607 184,-369.1581"/>
<polygon fill="#000000" stroke="#000000" points="187.5001,-369.0033 184,-359.0034 180.5001,-369.0034 187.5001,-369.0033"/>
<text text-anchor="middle" x="203" y="-380.8" font-family="Times,serif" font-size="14.00" fill="#000000">#this</text>
</g>
<!-- N4 -->
<g id="node4" class="node">
<title>N4</title>
<polygon fill="none" stroke="#000000" points="172,-234 88,-234 88,-198 172,-198 172,-234"/>
<text text-anchor="middle" x="130" y="-212.3" font-family="Courier,monospace" font-size="14.00" fill="#000000">indexOf()</text>
</g>
<!-- N2&#45;&gt;N4 -->
<g id="edge2" class="edge">
<title>N2&#45;&gt;N4</title>
<path fill="none" stroke="#000000" d="M176.1479,-322.8239C167.1497,-301.9946 152.3056,-267.6333 141.8884,-243.5193"/>
<polygon fill="#000000" stroke="#000000" points="145.0404,-241.99 137.8615,-234.198 138.6144,-244.7661 145.0404,-241.99"/>
<text text-anchor="middle" x="178" y="-274.8" font-family="Times,serif" font-size="14.00" fill="#000000">#this</text>
</g>
<!-- N6 -->
<g id="node6" class="node">
<title>N6</title>
<polygon fill="none" stroke="#000000" points="179.5,-109 80.5,-109 80.5,-73 179.5,-73 179.5,-109"/>
<text text-anchor="middle" x="130" y="-87.3" font-family="Courier,monospace" font-size="14.00" fill="#000000">substring()</text>
</g>
<!-- N2&#45;&gt;N6 -->
<g id="edge4" class="edge">
<title>N2&#45;&gt;N6</title>
<path fill="none" stroke="#000000" d="M195.0166,-322.8274C201.3258,-310.7139 208,-294.1913 208,-278.5 208,-278.5 208,-278.5 208,-153.5 208,-137.118 197.3924,-124.3189 184.0009,-114.6879"/>
<polygon fill="#000000" stroke="#000000" points="185.6684,-111.5979 175.3729,-109.097 181.8617,-117.4724 185.6684,-111.5979"/>
<text text-anchor="middle" x="227" y="-212.3" font-family="Times,serif" font-size="14.00" fill="#000000">#this</text>
</g>
<!-- N3 -->
<g id="node3" class="node">
<title>N3</title>
<polygon fill="none" stroke="#000000" points="104,-359 50,-359 50,-323 104,-323 104,-359"/>
<text text-anchor="middle" x="77" y="-337.3" font-family="Courier,monospace" font-size="14.00" fill="#000000">&#39; &#39;</text>
</g>
<!-- N3&#45;&gt;N4 -->
<g id="edge3" class="edge">
<title>N3&#45;&gt;N4</title>
<path fill="none" stroke="#000000" d="M78.5297,-322.8344C80.2411,-308.3271 83.7865,-287.7294 91,-271 95.3103,-261.0035 101.6359,-251.0116 107.9437,-242.3401"/>
<polygon fill="#000000" stroke="#000000" points="110.8998,-244.2351 114.1702,-234.1576 105.3292,-239.9961 110.8998,-244.2351"/>
<text text-anchor="middle" x="110" y="-274.8" font-family="Times,serif" font-size="14.00" fill="#000000">#arg0</text>
</g>
<!-- N4&#45;&gt;N6 -->
<g id="edge6" class="edge">
<title>N4&#45;&gt;N6</title>
<path fill="none" stroke="#000000" d="M130,-197.8239C130,-177.2723 130,-143.5472 130,-119.4893"/>
<polygon fill="#000000" stroke="#000000" points="133.5001,-119.198 130,-109.198 126.5001,-119.198 133.5001,-119.198"/>
<text text-anchor="middle" x="149" y="-149.8" font-family="Times,serif" font-size="14.00" fill="#000000">#arg1</text>
</g>
<!-- N5 -->
<g id="node5" class="node">
<title>N5</title>
<polygon fill="none" stroke="#000000" points="70,-234 16,-234 16,-198 70,-198 70,-234"/>
<text text-anchor="middle" x="43" y="-212.3" font-family="Courier,monospace" font-size="14.00" fill="#000000">0</text>
</g>
<!-- N5&#45;&gt;N6 -->
<g id="edge5" class="edge">
<title>N5&#45;&gt;N6</title>
<path fill="none" stroke="#000000" d="M54.0754,-197.8986C62.9531,-183.6074 75.8861,-163.2677 88,-146 94.7619,-136.3613 102.5016,-126.0422 109.4796,-116.9762"/>
<polygon fill="#000000" stroke="#000000" points="112.2585,-119.1041 115.6239,-109.058 106.7282,-114.8127 112.2585,-119.1041"/>
<text text-anchor="middle" x="107" y="-149.8" font-family="Times,serif" font-size="14.00" fill="#000000">#arg0</text>
</g>
<!-- N7 -->
<g id="node7" class="node">
<title>N7</title>
<polygon fill="none" stroke="#000000" points="161,-36 99,-36 99,0 161,0 161,-36"/>
<text text-anchor="middle" x="130" y="-14.3" font-family="Times,serif" font-size="14.00" fill="#000000">return</text>
</g>
<!-- N6&#45;&gt;N7 -->
<g id="edge7" class="edge">
<title>N6&#45;&gt;N7</title>
<path fill="none" stroke="#000000" d="M130,-72.9551C130,-64.8828 130,-55.1764 130,-46.1817"/>
<polygon fill="#000000" stroke="#000000" points="133.5001,-46.0903 130,-36.0904 126.5001,-46.0904 133.5001,-46.0903"/>
</g>
</g>
</svg>
