<?xml version="1.0" encoding="UTF-8" standalone="no"?>
<!DOCTYPE svg PUBLIC "-//W3C//DTD SVG 1.1//EN"
 "http://www.w3.org/Graphics/SVG/1.1/DTD/svg11.dtd">
<!-- Generated by graphviz version 2.40.1 (20161225.0304)
 -->
<!-- Title: A Pages: 1 -->
<svg width="301pt" height="797pt"
 viewBox="0.00 0.00 300.79 797.00" xmlns="http://www.w3.org/2000/svg" xmlns:xlink="http://www.w3.org/1999/xlink">
<g id="graph0" class="graph" transform="scale(1 1) rotate(0) translate(4 793)">
<title>A</title>
<polygon fill="#ffffff" stroke="transparent" points="-4,4 -4,-793 296.7947,-793 296.7947,4 -4,4"/>
<g id="clust1" class="cluster">
<title>cluster_a</title>
<polygon fill="none" stroke="#000000" points="8,-387 8,-712 254,-712 254,-387 8,-387"/>
<text text-anchor="middle" x="131" y="-696.8" font-family="Times,serif" font-size="14.00" fill="#000000">get()</text>
</g>
<g id="clust2" class="cluster">
<title>cluster_b</title>
<polygon fill="none" stroke="#000000" points="23,-8 23,-368 165,-368 165,-8 23,-8"/>
<text text-anchor="middle" x="94" y="-352.8" font-family="Times,serif" font-size="14.00" fill="#000000">show()</text>
</g>
<!-- N1 -->
<g id="node1" class="node">
<title>N1</title>
<ellipse fill="none" stroke="#000000" cx="184" cy="-771" rx="27" ry="18"/>
<text text-anchor="middle" x="184" y="-767.3" font-family="Times,serif" font-size="14.00" fill="#000000">fp</text>
</g>
<!-- N2 -->
<g id="node2" class="node">
<title>N2</title>
<polygon fill="none" stroke="#000000" points="230,-681 138,-681 138,-645 230,-645 230,-681"/>
<text text-anchor="middle" x="184" y="-659.3" font-family="Courier,monospace" font-size="14.00" fill="#000000">readLine()</text>
</g>
<!-- N1&#45;&gt;N2 -->
<g id="edge1" class="edge">
<title>N1&#45;&gt;N2</title>
<path fill="none" stroke="#000000" d="M184,-752.6793C184,-735.821 184,-710.5651 184,-691.147"/>
<polygon fill="#000000" stroke="#000000" points="187.5001,-691.0501 184,-681.0502 180.5001,-691.0502 187.5001,-691.0501"/>
<text text-anchor="middle" x="203" y="-723.8" font-family="Times,serif" font-size="14.00" fill="#000000">#this</text>
</g>
<!-- N4 -->
<g id="node4" class="node">
<title>N4</title>
<polygon fill="none" stroke="#000000" points="172,-556 88,-556 88,-520 172,-520 172,-556"/>
<text text-anchor="middle" x="130" y="-534.3" font-family="Courier,monospace" font-size="14.00" fill="#000000">indexOf()</text>
</g>
<!-- N2&#45;&gt;N4 -->
<g id="edge2" class="edge">
<title>N2&#45;&gt;N4</title>
<path fill="none" stroke="#000000" d="M176.1479,-644.8239C167.1497,-623.9946 152.3056,-589.6333 141.8884,-565.5193"/>
<polygon fill="#000000" stroke="#000000" points="145.0404,-563.99 137.8615,-556.198 138.6144,-566.7661 145.0404,-563.99"/>
<text text-anchor="middle" x="178" y="-596.8" font-family="Times,serif" font-size="14.00" fill="#000000">#this</text>
</g>
<!-- N6 -->
<g id="node6" class="node">
<title>N6</title>
<polygon fill="none" stroke="#000000" points="179.5,-431 80.5,-431 80.5,-395 179.5,-395 179.5,-431"/>
<text text-anchor="middle" x="130" y="-409.3" font-family="Courier,monospace" font-size="14.00" fill="#000000">substring()</text>
</g>
<!-- N2&#45;&gt;N6 -->
<g id="edge4" class="edge">
<title>N2&#45;&gt;N6</title>
<path fill="none" stroke="#000000" d="M195.0166,-644.8274C201.3258,-632.7139 208,-616.1913 208,-600.5 208,-600.5 208,-600.5 208,-475.5 208,-459.118 197.3924,-446.3189 184.0009,-436.6879"/>
<polygon fill="#000000" stroke="#000000" points="185.6684,-433.5979 175.3729,-431.097 181.8617,-439.4724 185.6684,-433.5979"/>
<text text-anchor="middle" x="227" y="-534.3" font-family="Times,serif" font-size="14.00" fill="#000000">#this</text>
</g>
<!-- N3 -->
<g id="node3" class="node">
<title>N3</title>
<polygon fill="none" stroke="#000000" points="104,-681 50,-681 50,-645 104,-645 104,-681"/>
<text text-anchor="middle" x="77" y="-659.3" font-family="Courier,monospace" font-size="14.00" fill="#000000">&#39; &#39;</text>
</g>
<!-- N3&#45;&gt;N4 -->
<g id="edge3" class="edge">
<title>N3&#45;&gt;N4</title>
<path fill="none" stroke="#000000" d="M78.5297,-644.8344C80.2411,-630.3271 83.7865,-609.7294 91,-593 95.3103,-583.0035 101.6359,-573.0116 107.9437,-564.3401"/>
<polygon fill="#000000" stroke="#000000" points="110.8998,-566.2351 114.1702,-556.1576 105.3292,-561.9961 110.8998,-566.2351"/>
<text text-anchor="middle" x="110" y="-596.8" font-family="Times,serif" font-size="14.00" fill="#000000">#arg0</text>
</g>
<!-- N4&#45;&gt;N6 -->
<g id="edge6" class="edge">
<title>N4&#45;&gt;N6</title>
<path fill="none" stroke="#000000" d="M130,-519.8239C130,-499.2723 130,-465.5472 130,-441.4893"/>
<polygon fill="#000000" stroke="#000000" points="133.5001,-441.198 130,-431.198 126.5001,-441.198 133.5001,-441.198"/>
<text text-anchor="middle" x="149" y="-471.8" font-family="Times,serif" font-size="14.00" fill="#000000">#arg1</text>
</g>
<!-- N5 -->
<g id="node5" class="node">
<title>N5</title>
<polygon fill="none" stroke="#000000" points="70,-556 16,-556 16,-520 70,-520 70,-556"/>
<text text-anchor="middle" x="43" y="-534.3" font-family="Courier,monospace" font-size="14.00" fill="#000000">0</text>
</g>
<!-- N5&#45;&gt;N6 -->
<g id="edge5" class="edge">
<title>N5&#45;&gt;N6</title>
<path fill="none" stroke="#000000" d="M54.0754,-519.8986C62.9531,-505.6074 75.8861,-485.2677 88,-468 94.7619,-458.3613 102.5016,-448.0422 109.4796,-438.9762"/>
<polygon fill="#000000" stroke="#000000" points="112.2585,-441.1041 115.6239,-431.058 106.7282,-436.8127 112.2585,-441.1041"/>
<text text-anchor="middle" x="107" y="-471.8" font-family="Times,serif" font-size="14.00" fill="#000000">#arg0</text>
</g>
<!-- N9 -->
<g id="node7" class="node">
<title>N9</title>
<polygon fill="none" stroke="#000000" points="157,-337 103,-337 103,-301 157,-301 157,-337"/>
<text text-anchor="middle" x="130" y="-315.3" font-family="Courier,monospace" font-size="14.00" fill="#000000">get()</text>
</g>
<!-- N6&#45;&gt;N9 -->
<g id="edge7" class="edge">
<title>N6&#45;&gt;N9</title>
<path fill="none" stroke="#000000" d="M130,-394.8759C130,-381.3516 130,-362.6192 130,-347.1514"/>
<polygon fill="#000000" stroke="#000000" points="133.5001,-347.0685 130,-337.0685 126.5001,-347.0685 133.5001,-347.0685"/>
</g>
<!-- N11 -->
<g id="node10" class="node">
<title>N11</title>
<polygon fill="none" stroke="#000000" points="142,-212 88,-212 88,-176 142,-176 142,-212"/>
<text text-anchor="middle" x="115" y="-190.3" font-family="Courier,monospace" font-size="14.00" fill="#000000">+</text>
</g>
<!-- N9&#45;&gt;N11 -->
<g id="edge8" class="edge">
<title>N9&#45;&gt;N11</title>
<path fill="none" stroke="#000000" d="M127.8189,-300.8239C125.3416,-280.1798 121.2692,-246.2431 118.3798,-222.1648"/>
<polygon fill="#000000" stroke="#000000" points="121.8504,-221.7097 117.1838,-212.198 114.9002,-222.5438 121.8504,-221.7097"/>
<text text-anchor="middle" x="127" y="-252.8" font-family="Times,serif" font-size="14.00" fill="#000000">L</text>
</g>
<!-- N8 -->
<g id="node8" class="node">
<title>N8</title>
<ellipse fill="none" stroke="#000000" cx="233" cy="-121" rx="59.5901" ry="18"/>
<text text-anchor="middle" x="233" y="-117.3" font-family="Times,serif" font-size="14.00" fill="#000000">System.out</text>
</g>
<!-- N12 -->
<g id="node11" class="node">
<title>N12</title>
<polygon fill="none" stroke="#000000" points="157,-52 73,-52 73,-16 157,-16 157,-52"/>
<text text-anchor="middle" x="115" y="-30.3" font-family="Courier,monospace" font-size="14.00" fill="#000000">println()</text>
</g>
<!-- N8&#45;&gt;N12 -->
<g id="edge11" class="edge">
<title>N8&#45;&gt;N12</title>
<path fill="none" stroke="#000000" d="M210.2484,-104.2255C192.5512,-91.1776 167.7499,-72.8919 147.8916,-58.2506"/>
<polygon fill="#000000" stroke="#000000" points="149.8446,-55.3421 139.7187,-52.2248 145.6905,-60.9763 149.8446,-55.3421"/>
<text text-anchor="middle" x="200" y="-73.8" font-family="Times,serif" font-size="14.00" fill="#000000">#this</text>
</g>
<!-- N10 -->
<g id="node9" class="node">
<title>N10</title>
<polygon fill="none" stroke="#000000" points="85,-337 31,-337 31,-301 85,-301 85,-337"/>
<text text-anchor="middle" x="58" y="-315.3" font-family="Courier,monospace" font-size="14.00" fill="#000000">!!</text>
</g>
<!-- N10&#45;&gt;N11 -->
<g id="edge9" class="edge">
<title>N10&#45;&gt;N11</title>
<path fill="none" stroke="#000000" d="M66.2883,-300.8239C75.7865,-279.9946 91.4552,-245.6333 102.4512,-221.5193"/>
<polygon fill="#000000" stroke="#000000" points="105.7372,-222.7489 106.7017,-212.198 99.3681,-219.8445 105.7372,-222.7489"/>
<text text-anchor="middle" x="93" y="-252.8" font-family="Times,serif" font-size="14.00" fill="#000000">R</text>
</g>
<!-- N11&#45;&gt;N12 -->
<g id="edge10" class="edge">
<title>N11&#45;&gt;N12</title>
<path fill="none" stroke="#000000" d="M115,-175.957C115,-148.3487 115,-95.3746 115,-62.5255"/>
<polygon fill="#000000" stroke="#000000" points="118.5001,-62.2225 115,-52.2226 111.5001,-62.2226 118.5001,-62.2225"/>
<text text-anchor="middle" x="134" y="-117.3" font-family="Times,serif" font-size="14.00" fill="#000000">#arg0</text>
</g>
</g>
</svg>
