<?xml version="1.0" encoding="UTF-8" standalone="no"?>
<!DOCTYPE svg PUBLIC "-//W3C//DTD SVG 1.1//EN"
 "http://www.w3.org/Graphics/SVG/1.1/DTD/svg11.dtd">
<!-- Generated by graphviz version 2.40.1 (20161225.0304)
 -->
<!-- Title: fact2 Pages: 1 -->
<svg width="497pt" height="625pt"
 viewBox="0.00 0.00 496.70 625.00" xmlns="http://www.w3.org/2000/svg" xmlns:xlink="http://www.w3.org/1999/xlink">
<g id="graph0" class="graph" transform="scale(1 1) rotate(0) translate(4 621)">
<title>fact2</title>
<polygon fill="#ffffff" stroke="transparent" points="-4,4 -4,-621 492.7004,-621 492.7004,4 -4,4"/>
<!-- NNfact2_0 -->
<g id="node1" class="node">
<title>NNfact2_0</title>
<polygon fill="none" stroke="#000000" points="119.7004,-617 46.7004,-617 46.7004,-581 119.7004,-581 119.7004,-617"/>
<text text-anchor="middle" x="83.2004" y="-595.3" font-family="Times,serif" font-size="14.00" fill="#000000">arg0 (x)</text>
</g>
<!-- NNfact2_1 -->
<g id="node2" class="node">
<title>NNfact2_1</title>
<ellipse fill="none" stroke="#000000" cx="83.2004" cy="-526" rx="27" ry="18"/>
</g>
<!-- NNfact2_0&#45;&gt;NNfact2_1 -->
<g id="edge1" class="edge">
<title>NNfact2_0&#45;&gt;NNfact2_1</title>
<path fill="none" stroke="#000000" d="M83.2004,-580.9551C83.2004,-572.8828 83.2004,-563.1764 83.2004,-554.1817"/>
<polygon fill="#000000" stroke="#000000" points="86.7005,-554.0903 83.2004,-544.0904 79.7005,-554.0904 86.7005,-554.0903"/>
</g>
<!-- NNfact2_b0_for0_26 -->
<g id="node9" class="node">
<title>NNfact2_b0_for0_26</title>
<polygon fill="none" stroke="#000000" points="43.2004,-457 -.2013,-439 43.2004,-421 86.6021,-439 43.2004,-457"/>
<text text-anchor="middle" x="43.2004" y="-435.3" font-family="Times,serif" font-size="14.00" fill="#000000">loop</text>
</g>
<!-- NNfact2_1&#45;&gt;NNfact2_b0_for0_26 -->
<g id="edge2" class="edge">
<title>NNfact2_1&#45;&gt;NNfact2_b0_for0_26</title>
<path fill="none" stroke="#000000" d="M72.1531,-509.5568C68.3913,-503.5548 64.3462,-496.6147 61.2004,-490 57.4576,-482.1301 54.0628,-473.2631 51.2555,-465.1564"/>
<polygon fill="#000000" stroke="#000000" points="54.4995,-463.8187 48.032,-455.427 47.8547,-466.0203 54.4995,-463.8187"/>
<text text-anchor="middle" x="80.7004" y="-478.8" font-family="Times,serif" font-size="14.00" fill="#000000">enter</text>
</g>
<!-- NNfact2_b0_for0_b0_22 -->
<g id="node17" class="node">
<title>NNfact2_b0_for0_b0_22</title>
<polygon fill="none" stroke="#000000" points="140.2004,-283 86.2004,-283 86.2004,-247 140.2004,-247 140.2004,-283"/>
<text text-anchor="middle" x="113.2004" y="-261.3" font-family="Times,serif" font-size="14.00" fill="#000000">*=</text>
</g>
<!-- NNfact2_1&#45;&gt;NNfact2_b0_for0_b0_22 -->
<g id="edge3" class="edge">
<title>NNfact2_1&#45;&gt;NNfact2_b0_for0_b0_22</title>
<path fill="none" stroke="#000000" d="M92.9019,-508.9258C95.7622,-503.1 98.5623,-496.43 100.2004,-490 117.7872,-420.9651 116.9338,-336.317 114.9742,-293.1837"/>
<polygon fill="#000000" stroke="#000000" points="118.4672,-292.9557 114.4627,-283.1469 111.4763,-293.3121 118.4672,-292.9557"/>
<text text-anchor="middle" x="119.7004" y="-391.8" font-family="Times,serif" font-size="14.00" fill="#000000">R</text>
</g>
<!-- NNfact2_2 -->
<g id="node3" class="node">
<title>NNfact2_2</title>
<polygon fill="none" stroke="#000000" points="488.7004,-544 415.7004,-544 415.7004,-508 488.7004,-508 488.7004,-544"/>
<text text-anchor="middle" x="452.2004" y="-522.3" font-family="Times,serif" font-size="14.00" fill="#000000">arg1 (y)</text>
</g>
<!-- NNfact2_b0_8 -->
<g id="node4" class="node">
<title>NNfact2_b0_8</title>
<polygon fill="none" stroke="#000000" points="479.2004,-457 425.2004,-457 425.2004,-421 479.2004,-421 479.2004,-457"/>
<text text-anchor="middle" x="452.2004" y="-435.3" font-family="Times,serif" font-size="14.00" fill="#000000">&#45;&#45;</text>
</g>
<!-- NNfact2_2&#45;&gt;NNfact2_b0_8 -->
<g id="edge4" class="edge">
<title>NNfact2_2&#45;&gt;NNfact2_b0_8</title>
<path fill="none" stroke="#000000" d="M452.2004,-507.9735C452.2004,-496.1918 452.2004,-480.5607 452.2004,-467.1581"/>
<polygon fill="#000000" stroke="#000000" points="455.7005,-467.0033 452.2004,-457.0034 448.7005,-467.0034 455.7005,-467.0033"/>
</g>
<!-- NNfact2_b0_for0_30 -->
<g id="node11" class="node">
<title>NNfact2_b0_for0_30</title>
<polygon fill="none" stroke="#000000" points="436.2004,-370 392.7987,-352 436.2004,-334 479.6021,-352 436.2004,-370"/>
<text text-anchor="middle" x="436.2004" y="-348.3" font-family="Times,serif" font-size="14.00" fill="#000000">loop</text>
</g>
<!-- NNfact2_b0_8&#45;&gt;NNfact2_b0_for0_30 -->
<g id="edge5" class="edge">
<title>NNfact2_b0_8&#45;&gt;NNfact2_b0_for0_30</title>
<path fill="none" stroke="#000000" d="M448.8852,-420.9735C446.6386,-408.7578 443.631,-392.404 441.1083,-378.6865"/>
<polygon fill="#000000" stroke="#000000" points="444.5453,-378.0248 439.2942,-368.8228 437.6608,-379.291 444.5453,-378.0248"/>
<text text-anchor="middle" x="463.7004" y="-391.8" font-family="Times,serif" font-size="14.00" fill="#000000">enter</text>
</g>
<!-- NNfact2_b0_35 -->
<g id="node5" class="node">
<title>NNfact2_b0_35</title>
<polygon fill="none" stroke="#000000" points="353.2004,-36 291.2004,-36 291.2004,0 353.2004,0 353.2004,-36"/>
<text text-anchor="middle" x="322.2004" y="-14.3" font-family="Times,serif" font-size="14.00" fill="#000000">return</text>
</g>
<!-- NNfact2_b0_for0_9 -->
<g id="node6" class="node">
<title>NNfact2_b0_for0_9</title>
<polygon fill="none" stroke="#000000" points="222.2004,-544 168.2004,-544 168.2004,-508 222.2004,-508 222.2004,-544"/>
<text text-anchor="middle" x="195.2004" y="-522.3" font-family="Courier,monospace" font-size="14.00" fill="#000000">true</text>
</g>
<!-- NNfact2_b0_for0_27 -->
<g id="node10" class="node">
<title>NNfact2_b0_for0_27</title>
<polygon fill="none" stroke="#000000" points="141.2004,-196 79.5332,-178 141.2004,-160 202.8676,-178 141.2004,-196"/>
<text text-anchor="middle" x="141.2004" y="-174.3" font-family="Times,serif" font-size="14.00" fill="#000000">branch</text>
</g>
<!-- NNfact2_b0_for0_9&#45;&gt;NNfact2_b0_for0_27 -->
<g id="edge6" class="edge">
<title>NNfact2_b0_for0_9&#45;&gt;NNfact2_b0_for0_27</title>
<path fill="none" stroke="#000000" stroke-dasharray="1,5" d="M186.0594,-507.8393C178.2265,-490.5807 168.2004,-463.6711 168.2004,-439 168.2004,-439 168.2004,-439 168.2004,-265 168.2004,-243.4511 160.5514,-220.1944 153.3958,-203.1526"/>
<polygon fill="#000000" stroke="#000000" points="156.5477,-201.626 149.3013,-193.8968 150.1461,-204.4579 156.5477,-201.626"/>
<text text-anchor="middle" x="185.7004" y="-348.3" font-family="Times,serif" font-size="14.00" fill="#000000">cond</text>
</g>
<!-- NNfact2_b0_for0_31 -->
<g id="node12" class="node">
<title>NNfact2_b0_for0_31</title>
<polygon fill="none" stroke="#000000" points="319.2004,-457 257.5332,-439 319.2004,-421 380.8676,-439 319.2004,-457"/>
<text text-anchor="middle" x="319.2004" y="-435.3" font-family="Times,serif" font-size="14.00" fill="#000000">branch</text>
</g>
<!-- NNfact2_b0_for0_9&#45;&gt;NNfact2_b0_for0_31 -->
<g id="edge7" class="edge">
<title>NNfact2_b0_for0_9&#45;&gt;NNfact2_b0_for0_31</title>
<path fill="none" stroke="#000000" stroke-dasharray="1,5" d="M220.8933,-507.9735C241.8422,-493.2755 271.3298,-472.5866 292.5369,-457.7075"/>
<polygon fill="#000000" stroke="#000000" points="294.611,-460.5278 300.7869,-451.9191 290.5906,-454.7975 294.611,-460.5278"/>
<text text-anchor="middle" x="281.7004" y="-478.8" font-family="Times,serif" font-size="14.00" fill="#000000">cond</text>
</g>
<!-- NNfact2_b0_for0_10 -->
<g id="node7" class="node">
<title>NNfact2_b0_for0_10</title>
<ellipse fill="none" stroke="#000000" cx="429.2004" cy="-265" rx="27" ry="18"/>
</g>
<!-- NNfact2_b0_for0_b0_13 -->
<g id="node14" class="node">
<title>NNfact2_b0_for0_b0_13</title>
<polygon fill="none" stroke="#000000" points="338.2004,-196 284.2004,-196 284.2004,-160 338.2004,-160 338.2004,-196"/>
<text text-anchor="middle" x="311.2004" y="-174.3" font-family="Times,serif" font-size="14.00" fill="#000000">==</text>
</g>
<!-- NNfact2_b0_for0_10&#45;&gt;NNfact2_b0_for0_b0_13 -->
<g id="edge8" class="edge">
<title>NNfact2_b0_for0_10&#45;&gt;NNfact2_b0_for0_b0_13</title>
<path fill="none" stroke="#000000" d="M411.0215,-251.5969C393.2149,-238.4683 365.6782,-218.1658 344.0336,-202.2075"/>
<polygon fill="#000000" stroke="#000000" points="345.8879,-199.2263 335.762,-196.109 341.7339,-204.8605 345.8879,-199.2263"/>
<text text-anchor="middle" x="382.2004" y="-217.8" font-family="Times,serif" font-size="14.00" fill="#000000">L</text>
</g>
<!-- NNfact2_b0_for0_b0_18 -->
<g id="node16" class="node">
<title>NNfact2_b0_for0_b0_18</title>
<polygon fill="none" stroke="#000000" points="322.2004,-109 282.6529,-91 322.2004,-73 361.7479,-91 322.2004,-109"/>
<text text-anchor="middle" x="322.2004" y="-87.3" font-family="Times,serif" font-size="14.00" fill="#000000">join</text>
</g>
<!-- NNfact2_b0_for0_10&#45;&gt;NNfact2_b0_for0_b0_18 -->
<g id="edge9" class="edge">
<title>NNfact2_b0_for0_10&#45;&gt;NNfact2_b0_for0_b0_18</title>
<path fill="none" stroke="#000000" d="M432.1493,-246.8667C434.7905,-224.7327 436.1244,-186.9305 420.2004,-160 404.8172,-133.9841 375.3419,-115.2775 352.7179,-103.9609"/>
<polygon fill="#000000" stroke="#000000" points="354.0349,-100.7113 343.5024,-99.5636 351.0203,-107.029 354.0349,-100.7113"/>
<text text-anchor="middle" x="446.7004" y="-174.3" font-family="Times,serif" font-size="14.00" fill="#000000">true</text>
</g>
<!-- NNfact2_b0_for0_b0_25 -->
<g id="node18" class="node">
<title>NNfact2_b0_for0_b0_25</title>
<polygon fill="none" stroke="#000000" points="411.2004,-196 357.2004,-196 357.2004,-160 411.2004,-160 411.2004,-196"/>
<text text-anchor="middle" x="384.2004" y="-174.3" font-family="Times,serif" font-size="14.00" fill="#000000">&#45;&#45;</text>
</g>
<!-- NNfact2_b0_for0_10&#45;&gt;NNfact2_b0_for0_b0_25 -->
<g id="edge10" class="edge">
<title>NNfact2_b0_for0_10&#45;&gt;NNfact2_b0_for0_b0_25</title>
<path fill="none" stroke="#000000" d="M423.332,-247.0806C419.777,-237.0912 414.8439,-224.5714 409.2004,-214 407.5374,-210.8849 405.6558,-207.7163 403.6896,-204.6158"/>
<polygon fill="#000000" stroke="#000000" points="406.5031,-202.5268 398.035,-196.1595 400.6842,-206.4178 406.5031,-202.5268"/>
</g>
<!-- NNfact2_b0_for0_16 -->
<g id="node8" class="node">
<title>NNfact2_b0_for0_16</title>
<ellipse fill="none" stroke="#000000" cx="59.2004" cy="-352" rx="27" ry="18"/>
</g>
<!-- NNfact2_b0_for0_b0_17 -->
<g id="node15" class="node">
<title>NNfact2_b0_for0_b0_17</title>
<polygon fill="none" stroke="#000000" points="141.2004,-109 101.6529,-91 141.2004,-73 180.7479,-91 141.2004,-109"/>
<text text-anchor="middle" x="141.2004" y="-87.3" font-family="Times,serif" font-size="14.00" fill="#000000">join</text>
</g>
<!-- NNfact2_b0_for0_16&#45;&gt;NNfact2_b0_for0_b0_17 -->
<g id="edge12" class="edge">
<title>NNfact2_b0_for0_16&#45;&gt;NNfact2_b0_for0_b0_17</title>
<path fill="none" stroke="#000000" d="M56.0881,-334.0372C50.8483,-298.8 43.2895,-218.9178 70.2004,-160 80.1127,-138.2983 100.1491,-119.8451 116.4168,-107.4976"/>
<polygon fill="#000000" stroke="#000000" points="118.479,-110.3256 124.5066,-101.6124 114.361,-104.665 118.479,-110.3256"/>
<text text-anchor="middle" x="70.7004" y="-217.8" font-family="Times,serif" font-size="14.00" fill="#000000">true</text>
</g>
<!-- NNfact2_b0_for0_16&#45;&gt;NNfact2_b0_for0_b0_22 -->
<g id="edge11" class="edge">
<title>NNfact2_b0_for0_16&#45;&gt;NNfact2_b0_for0_b0_22</title>
<path fill="none" stroke="#000000" d="M69.439,-334.9417C75.4352,-325.0056 83.1852,-312.2556 90.2004,-301 92.0613,-298.0142 94.0224,-294.8988 95.9825,-291.8043"/>
<polygon fill="#000000" stroke="#000000" points="99.0017,-293.5791 101.4203,-283.264 93.097,-289.8194 99.0017,-293.5791"/>
<text text-anchor="middle" x="95.2004" y="-304.8" font-family="Times,serif" font-size="14.00" fill="#000000">L</text>
</g>
<!-- NNfact2_b0_for0_26&#45;&gt;NNfact2_b0_for0_16 -->
<g id="edge13" class="edge">
<title>NNfact2_b0_for0_26&#45;&gt;NNfact2_b0_for0_16</title>
<path fill="none" stroke="#000000" d="M46.2854,-422.2255C48.4852,-410.2639 51.4946,-393.9003 54.055,-379.9781"/>
<polygon fill="#000000" stroke="#000000" points="57.538,-380.3891 55.9046,-369.921 50.6535,-379.1229 57.538,-380.3891"/>
</g>
<!-- NNfact2_b0_for0_27&#45;&gt;NNfact2_b0_for0_26 -->
<g id="edge14" class="edge">
<title>NNfact2_b0_for0_27&#45;&gt;NNfact2_b0_for0_26</title>
<path fill="none" stroke="#000000" stroke-dasharray="5,2" d="M103.4842,-185.0458C84.9916,-190.2444 63.6483,-199.1017 49.2004,-214 -2.8993,-267.7238 19.5954,-366.9899 34.2336,-413.5899"/>
<polygon fill="#000000" stroke="#000000" points="30.9474,-414.8015 37.3844,-423.2168 37.6001,-412.6241 30.9474,-414.8015"/>
<text text-anchor="middle" x="32.7004" y="-304.8" font-family="Times,serif" font-size="14.00" fill="#000000">true</text>
</g>
<!-- NNfact2_b0_for0_27&#45;&gt;NNfact2_b0_for0_b0_17 -->
<g id="edge15" class="edge">
<title>NNfact2_b0_for0_27&#45;&gt;NNfact2_b0_for0_b0_17</title>
<path fill="none" stroke="#000000" d="M141.2004,-159.9735C141.2004,-148.1918 141.2004,-132.5607 141.2004,-119.1581"/>
<polygon fill="#000000" stroke="#000000" points="144.7005,-119.0033 141.2004,-109.0034 137.7005,-119.0034 144.7005,-119.0033"/>
<text text-anchor="middle" x="158.2004" y="-130.8" font-family="Times,serif" font-size="14.00" fill="#000000">false</text>
</g>
<!-- NNfact2_b0_for0_30&#45;&gt;NNfact2_b0_for0_10 -->
<g id="edge16" class="edge">
<title>NNfact2_b0_for0_30&#45;&gt;NNfact2_b0_for0_10</title>
<path fill="none" stroke="#000000" d="M434.7838,-334.3943C433.8382,-322.6408 432.5734,-306.9218 431.4868,-293.4167"/>
<polygon fill="#000000" stroke="#000000" points="434.9538,-292.8655 430.663,-283.1785 427.9764,-293.427 434.9538,-292.8655"/>
</g>
<!-- NNfact2_b0_for0_31&#45;&gt;NNfact2_b0_for0_30 -->
<g id="edge17" class="edge">
<title>NNfact2_b0_for0_31&#45;&gt;NNfact2_b0_for0_30</title>
<path fill="none" stroke="#000000" stroke-dasharray="5,2" d="M339.977,-426.8504C350.9895,-420.1705 364.601,-411.5268 376.2004,-403 389.4961,-393.2262 403.5926,-381.3312 414.779,-371.4882"/>
<polygon fill="#000000" stroke="#000000" points="417.2143,-374.0062 422.357,-364.7432 412.5602,-368.7774 417.2143,-374.0062"/>
<text text-anchor="middle" x="409.7004" y="-391.8" font-family="Times,serif" font-size="14.00" fill="#000000">true</text>
</g>
<!-- NNfact2_b0_for0_31&#45;&gt;NNfact2_b0_for0_b0_18 -->
<g id="edge18" class="edge">
<title>NNfact2_b0_for0_31&#45;&gt;NNfact2_b0_for0_b0_18</title>
<path fill="none" stroke="#000000" d="M294.6875,-427.7747C268.649,-413.9692 231.2004,-387.8777 231.2004,-352 231.2004,-352 231.2004,-352 231.2004,-178 231.2004,-154.4948 230.0456,-144.9674 245.2004,-127 255.7138,-114.5354 271.4973,-106.1239 286.0426,-100.589"/>
<polygon fill="#000000" stroke="#000000" points="287.528,-103.7787 295.8346,-97.2022 285.2398,-97.1632 287.528,-103.7787"/>
<text text-anchor="middle" x="248.2004" y="-261.3" font-family="Times,serif" font-size="14.00" fill="#000000">false</text>
</g>
<!-- NNfact2_b0_for0_b0_12 -->
<g id="node13" class="node">
<title>NNfact2_b0_for0_b0_12</title>
<polygon fill="none" stroke="#000000" points="337.2004,-283 283.2004,-283 283.2004,-247 337.2004,-247 337.2004,-283"/>
<text text-anchor="middle" x="310.2004" y="-261.3" font-family="Courier,monospace" font-size="14.00" fill="#000000">0</text>
</g>
<!-- NNfact2_b0_for0_b0_12&#45;&gt;NNfact2_b0_for0_b0_13 -->
<g id="edge19" class="edge">
<title>NNfact2_b0_for0_b0_12&#45;&gt;NNfact2_b0_for0_b0_13</title>
<path fill="none" stroke="#000000" d="M310.4076,-246.9735C310.543,-235.1918 310.7227,-219.5607 310.8767,-206.1581"/>
<polygon fill="#000000" stroke="#000000" points="314.3782,-206.043 310.9935,-196.0034 307.3787,-205.9624 314.3782,-206.043"/>
<text text-anchor="middle" x="315.7004" y="-217.8" font-family="Times,serif" font-size="14.00" fill="#000000">R</text>
</g>
<!-- NNfact2_b0_for0_b0_13&#45;&gt;NNfact2_b0_for0_b0_17 -->
<g id="edge20" class="edge">
<title>NNfact2_b0_for0_b0_13&#45;&gt;NNfact2_b0_for0_b0_17</title>
<path fill="none" stroke="#000000" stroke-dasharray="1,5" d="M283.887,-164.0219C252.4153,-147.9159 200.9669,-121.5864 169.2059,-105.3322"/>
<polygon fill="#000000" stroke="#000000" points="170.5215,-102.0739 160.025,-100.6338 167.3325,-108.3053 170.5215,-102.0739"/>
<text text-anchor="middle" x="253.7004" y="-130.8" font-family="Times,serif" font-size="14.00" fill="#000000">cond</text>
</g>
<!-- NNfact2_b0_for0_b0_13&#45;&gt;NNfact2_b0_for0_b0_18 -->
<g id="edge21" class="edge">
<title>NNfact2_b0_for0_b0_13&#45;&gt;NNfact2_b0_for0_b0_18</title>
<path fill="none" stroke="#000000" stroke-dasharray="1,5" d="M313.4796,-159.9735C314.999,-147.9561 317.0248,-131.9339 318.7415,-118.3566"/>
<polygon fill="#000000" stroke="#000000" points="322.2543,-118.4755 320.0364,-108.1154 315.3096,-117.5973 322.2543,-118.4755"/>
<text text-anchor="middle" x="334.7004" y="-130.8" font-family="Times,serif" font-size="14.00" fill="#000000">cond</text>
</g>
<!-- NNfact2_b0_for0_b0_18&#45;&gt;NNfact2_b0_35 -->
<g id="edge22" class="edge">
<title>NNfact2_b0_for0_b0_18&#45;&gt;NNfact2_b0_35</title>
<path fill="none" stroke="#000000" d="M322.2004,-72.9551C322.2004,-64.8828 322.2004,-55.1764 322.2004,-46.1817"/>
<polygon fill="#000000" stroke="#000000" points="325.7005,-46.0903 322.2004,-36.0904 318.7005,-46.0904 325.7005,-46.0903"/>
</g>
<!-- NNfact2_b0_for0_b0_22&#45;&gt;NNfact2_b0_for0_27 -->
<g id="edge23" class="edge">
<title>NNfact2_b0_for0_b0_22&#45;&gt;NNfact2_b0_for0_27</title>
<path fill="none" stroke="#000000" d="M119.002,-246.9735C122.959,-234.6785 128.2652,-218.1914 132.6975,-204.4196"/>
<polygon fill="#000000" stroke="#000000" points="136.1478,-205.1234 135.8798,-194.532 129.4844,-202.9788 136.1478,-205.1234"/>
</g>
<!-- NNfact2_b0_for0_b0_25&#45;&gt;NNfact2_b0_for0_31 -->
<g id="edge24" class="edge">
<title>NNfact2_b0_for0_b0_25&#45;&gt;NNfact2_b0_for0_31</title>
<path fill="none" stroke="#000000" d="M379.662,-196.2234C368.4022,-241.436 339.1398,-358.9358 325.8913,-412.1334"/>
<polygon fill="#000000" stroke="#000000" points="322.4856,-411.3256 323.4652,-421.8751 329.2782,-413.0173 322.4856,-411.3256"/>
</g>
</g>
</svg>
