<?xml version="1.0" encoding="UTF-8" standalone="no"?>
<!DOCTYPE svg PUBLIC "-//W3C//DTD SVG 1.1//EN"
 "http://www.w3.org/Graphics/SVG/1.1/DTD/svg11.dtd">
<!-- Generated by graphviz version 2.40.1 (20161225.0304)
 -->
<!-- Title: fact1 Pages: 1 -->
<svg width="541pt" height="451pt"
 viewBox="0.00 0.00 541.00 451.00" xmlns="http://www.w3.org/2000/svg" xmlns:xlink="http://www.w3.org/1999/xlink">
<g id="graph0" class="graph" transform="scale(1 1) rotate(0) translate(4 447)">
<title>fact1</title>
<polygon fill="#ffffff" stroke="transparent" points="-4,4 -4,-447 537,-447 537,4 -4,4"/>
<!-- NNfact1_0 -->
<g id="node1" class="node">
<title>NNfact1_0</title>
<polygon fill="none" stroke="#000000" points="149.5,-443 76.5,-443 76.5,-407 149.5,-407 149.5,-443"/>
<text text-anchor="middle" x="113" y="-421.3" font-family="Times,serif" font-size="14.00" fill="#000000">arg0 (x)</text>
</g>
<!-- NNfact1_b0_while0_b0_14 -->
<g id="node13" class="node">
<title>NNfact1_b0_while0_b0_14</title>
<polygon fill="none" stroke="#000000" points="140,-356 86,-356 86,-320 140,-320 140,-356"/>
<text text-anchor="middle" x="113" y="-334.3" font-family="Times,serif" font-size="14.00" fill="#000000">*=</text>
</g>
<!-- NNfact1_0&#45;&gt;NNfact1_b0_while0_b0_14 -->
<g id="edge1" class="edge">
<title>NNfact1_0&#45;&gt;NNfact1_b0_while0_b0_14</title>
<path fill="none" stroke="#000000" d="M113,-406.9735C113,-395.1918 113,-379.5607 113,-366.1581"/>
<polygon fill="#000000" stroke="#000000" points="116.5001,-366.0033 113,-356.0034 109.5001,-366.0034 116.5001,-366.0033"/>
<text text-anchor="middle" x="118.5" y="-377.8" font-family="Times,serif" font-size="14.00" fill="#000000">R</text>
</g>
<!-- NNfact1_2 -->
<g id="node2" class="node">
<title>NNfact1_2</title>
<polygon fill="none" stroke="#000000" points="371.5,-269 298.5,-269 298.5,-233 371.5,-233 371.5,-269"/>
<text text-anchor="middle" x="335" y="-247.3" font-family="Times,serif" font-size="14.00" fill="#000000">arg1 (y)</text>
</g>
<!-- NNfact1_b0_while0_18 -->
<g id="node8" class="node">
<title>NNfact1_b0_while0_18</title>
<polygon fill="none" stroke="#000000" points="357,-182 313.5983,-164 357,-146 400.4017,-164 357,-182"/>
<text text-anchor="middle" x="357" y="-160.3" font-family="Times,serif" font-size="14.00" fill="#000000">loop</text>
</g>
<!-- NNfact1_2&#45;&gt;NNfact1_b0_while0_18 -->
<g id="edge2" class="edge">
<title>NNfact1_2&#45;&gt;NNfact1_b0_while0_18</title>
<path fill="none" stroke="#000000" d="M333.1548,-232.7375C332.7029,-222.8681 333.0303,-210.5721 336,-200 337.267,-195.4895 339.2365,-190.9576 341.4721,-186.7037"/>
<polygon fill="#000000" stroke="#000000" points="344.5671,-188.3454 346.6218,-177.9516 338.5339,-184.7955 344.5671,-188.3454"/>
<text text-anchor="middle" x="355.5" y="-203.8" font-family="Times,serif" font-size="14.00" fill="#000000">enter</text>
</g>
<!-- NNfact1_b0_4 -->
<g id="node3" class="node">
<title>NNfact1_b0_4</title>
<polygon fill="none" stroke="#000000" points="54,-269 0,-269 0,-233 54,-233 54,-269"/>
<text text-anchor="middle" x="27" y="-247.3" font-family="Courier,monospace" font-size="14.00" fill="#000000">1</text>
</g>
<!-- NNfact1_b0_while0_22 -->
<g id="node10" class="node">
<title>NNfact1_b0_while0_22</title>
<polygon fill="none" stroke="#000000" points="90,-182 46.5983,-164 90,-146 133.4017,-164 90,-182"/>
<text text-anchor="middle" x="90" y="-160.3" font-family="Times,serif" font-size="14.00" fill="#000000">loop</text>
</g>
<!-- NNfact1_b0_4&#45;&gt;NNfact1_b0_while0_22 -->
<g id="edge3" class="edge">
<title>NNfact1_b0_4&#45;&gt;NNfact1_b0_while0_22</title>
<path fill="none" stroke="#000000" d="M27.225,-232.7269C28.1334,-222.3858 30.6334,-209.6358 37,-200 42.7343,-191.3213 51.3515,-184.1793 59.9802,-178.6094"/>
<polygon fill="#000000" stroke="#000000" points="62.0199,-181.4699 68.8561,-173.3755 58.4643,-175.4401 62.0199,-181.4699"/>
<text text-anchor="middle" x="56.5" y="-203.8" font-family="Times,serif" font-size="14.00" fill="#000000">enter</text>
</g>
<!-- NNfact1_b0_27 -->
<g id="node4" class="node">
<title>NNfact1_b0_27</title>
<polygon fill="none" stroke="#000000" points="533,-182 471,-182 471,-146 533,-146 533,-182"/>
<text text-anchor="middle" x="502" y="-160.3" font-family="Times,serif" font-size="14.00" fill="#000000">return</text>
</g>
<!-- NNfact1_b0_while0_6 -->
<g id="node5" class="node">
<title>NNfact1_b0_while0_6</title>
<polygon fill="none" stroke="#000000" points="297,-443 243,-443 243,-407 297,-407 297,-443"/>
<text text-anchor="middle" x="270" y="-421.3" font-family="Courier,monospace" font-size="14.00" fill="#000000">0</text>
</g>
<!-- NNfact1_b0_while0_9 -->
<g id="node7" class="node">
<title>NNfact1_b0_while0_9</title>
<polygon fill="none" stroke="#000000" points="297,-356 243,-356 243,-320 297,-320 297,-356"/>
<text text-anchor="middle" x="270" y="-334.3" font-family="Times,serif" font-size="14.00" fill="#000000">&lt;</text>
</g>
<!-- NNfact1_b0_while0_6&#45;&gt;NNfact1_b0_while0_9 -->
<g id="edge4" class="edge">
<title>NNfact1_b0_while0_6&#45;&gt;NNfact1_b0_while0_9</title>
<path fill="none" stroke="#000000" d="M270,-406.9735C270,-395.1918 270,-379.5607 270,-366.1581"/>
<polygon fill="#000000" stroke="#000000" points="273.5001,-366.0033 270,-356.0034 266.5001,-366.0034 273.5001,-366.0033"/>
<text text-anchor="middle" x="275" y="-377.8" font-family="Times,serif" font-size="14.00" fill="#000000">L</text>
</g>
<!-- NNfact1_b0_while0_7 -->
<g id="node6" class="node">
<title>NNfact1_b0_while0_7</title>
<ellipse fill="none" stroke="#000000" cx="357" cy="-91" rx="27" ry="18"/>
</g>
<!-- NNfact1_b0_while0_7&#45;&gt;NNfact1_b0_while0_9 -->
<g id="edge5" class="edge">
<title>NNfact1_b0_while0_7&#45;&gt;NNfact1_b0_while0_9</title>
<path fill="none" stroke="#000000" d="M339.5151,-104.7531C327.8744,-114.891 313.2533,-129.7055 305,-146 277.8512,-199.6 271.5201,-271.0687 270.1928,-309.933"/>
<polygon fill="#000000" stroke="#000000" points="266.6926,-309.9027 269.938,-319.9882 273.6903,-310.0801 266.6926,-309.9027"/>
<text text-anchor="middle" x="289.5" y="-203.8" font-family="Times,serif" font-size="14.00" fill="#000000">R</text>
</g>
<!-- NNfact1_b0_while0_b0_17 -->
<g id="node14" class="node">
<title>NNfact1_b0_while0_b0_17</title>
<polygon fill="none" stroke="#000000" points="434,-36 380,-36 380,0 434,0 434,-36"/>
<text text-anchor="middle" x="407" y="-14.3" font-family="Times,serif" font-size="14.00" fill="#000000">&#45;&#45;</text>
</g>
<!-- NNfact1_b0_while0_7&#45;&gt;NNfact1_b0_while0_b0_17 -->
<g id="edge6" class="edge">
<title>NNfact1_b0_while0_7&#45;&gt;NNfact1_b0_while0_b0_17</title>
<path fill="none" stroke="#000000" d="M368.3458,-74.4352C374.4072,-65.5854 382.0135,-54.4803 388.8717,-44.4673"/>
<polygon fill="#000000" stroke="#000000" points="391.8851,-46.2614 394.6485,-36.0332 386.1099,-42.3057 391.8851,-46.2614"/>
</g>
<!-- NNfact1_b0_while0_19 -->
<g id="node9" class="node">
<title>NNfact1_b0_while0_19</title>
<polygon fill="none" stroke="#000000" points="451,-269 389.3328,-251 451,-233 512.6672,-251 451,-269"/>
<text text-anchor="middle" x="451" y="-247.3" font-family="Times,serif" font-size="14.00" fill="#000000">branch</text>
</g>
<!-- NNfact1_b0_while0_9&#45;&gt;NNfact1_b0_while0_19 -->
<g id="edge7" class="edge">
<title>NNfact1_b0_while0_9&#45;&gt;NNfact1_b0_while0_19</title>
<path fill="none" stroke="#000000" stroke-dasharray="1,5" d="M297.0975,-324.9752C329.4592,-309.4202 383.5575,-283.4171 418.2366,-266.7482"/>
<polygon fill="#000000" stroke="#000000" points="419.972,-269.7974 427.4687,-262.3106 416.9395,-263.4883 419.972,-269.7974"/>
<text text-anchor="middle" x="388.5" y="-290.8" font-family="Times,serif" font-size="14.00" fill="#000000">cond</text>
</g>
<!-- NNfact1_b0_while0_23 -->
<g id="node11" class="node">
<title>NNfact1_b0_while0_23</title>
<polygon fill="none" stroke="#000000" points="180,-269 118.3328,-251 180,-233 241.6672,-251 180,-269"/>
<text text-anchor="middle" x="180" y="-247.3" font-family="Times,serif" font-size="14.00" fill="#000000">branch</text>
</g>
<!-- NNfact1_b0_while0_9&#45;&gt;NNfact1_b0_while0_23 -->
<g id="edge8" class="edge">
<title>NNfact1_b0_while0_9&#45;&gt;NNfact1_b0_while0_23</title>
<path fill="none" stroke="#000000" stroke-dasharray="1,5" d="M242.804,-319.951C235.4176,-314.5433 227.6336,-308.3512 221,-302 212.294,-293.6647 203.7623,-283.4788 196.7556,-274.4079"/>
<polygon fill="#000000" stroke="#000000" points="199.355,-272.0409 190.5492,-266.1494 193.759,-276.2464 199.355,-272.0409"/>
<text text-anchor="middle" x="238.5" y="-290.8" font-family="Times,serif" font-size="14.00" fill="#000000">cond</text>
</g>
<!-- NNfact1_b0_while0_18&#45;&gt;NNfact1_b0_while0_7 -->
<g id="edge9" class="edge">
<title>NNfact1_b0_while0_18&#45;&gt;NNfact1_b0_while0_7</title>
<path fill="none" stroke="#000000" d="M357,-145.9551C357,-137.8828 357,-128.1764 357,-119.1817"/>
<polygon fill="#000000" stroke="#000000" points="360.5001,-119.0903 357,-109.0904 353.5001,-119.0904 360.5001,-119.0903"/>
</g>
<!-- NNfact1_b0_while0_19&#45;&gt;NNfact1_b0_27 -->
<g id="edge11" class="edge">
<title>NNfact1_b0_while0_19&#45;&gt;NNfact1_b0_27</title>
<path fill="none" stroke="#000000" d="M460.1178,-235.4461C467.3782,-223.0608 477.7112,-205.4339 486.2968,-190.7878"/>
<polygon fill="#000000" stroke="#000000" points="489.3359,-192.5242 491.3737,-182.1272 483.297,-188.9841 489.3359,-192.5242"/>
<text text-anchor="middle" x="496" y="-203.8" font-family="Times,serif" font-size="14.00" fill="#000000">false</text>
</g>
<!-- NNfact1_b0_while0_19&#45;&gt;NNfact1_b0_while0_18 -->
<g id="edge10" class="edge">
<title>NNfact1_b0_while0_19&#45;&gt;NNfact1_b0_while0_18</title>
<path fill="none" stroke="#000000" stroke-dasharray="5,2" d="M430.3252,-238.9781C420.0691,-232.527 407.8104,-224.0512 398,-215 388.7944,-206.5069 379.9135,-195.87 372.785,-186.5112"/>
<polygon fill="#000000" stroke="#000000" points="375.5298,-184.3363 366.7721,-178.3738 369.9001,-188.4964 375.5298,-184.3363"/>
<text text-anchor="middle" x="413.5" y="-203.8" font-family="Times,serif" font-size="14.00" fill="#000000">true</text>
</g>
<!-- NNfact1_b0_while0_22&#45;&gt;NNfact1_b0_while0_b0_14 -->
<g id="edge12" class="edge">
<title>NNfact1_b0_while0_22&#45;&gt;NNfact1_b0_while0_b0_14</title>
<path fill="none" stroke="#000000" d="M90.9081,-181.9066C92.1157,-202.8636 94.6243,-238.5758 99,-269 100.9576,-282.6111 103.8983,-297.5845 106.58,-310.0944"/>
<polygon fill="#000000" stroke="#000000" points="103.1788,-310.9241 108.7445,-319.9392 110.0155,-309.4209 103.1788,-310.9241"/>
<text text-anchor="middle" x="104" y="-247.3" font-family="Times,serif" font-size="14.00" fill="#000000">L</text>
</g>
<!-- NNfact1_b0_while0_23&#45;&gt;NNfact1_b0_while0_22 -->
<g id="edge13" class="edge">
<title>NNfact1_b0_while0_23&#45;&gt;NNfact1_b0_while0_22</title>
<path fill="none" stroke="#000000" stroke-dasharray="5,2" d="M165.5399,-237.0219C150.6308,-222.6098 127.2534,-200.0116 110.4532,-183.7714"/>
<polygon fill="#000000" stroke="#000000" points="112.8736,-181.2432 103.2511,-176.8094 108.0084,-186.2761 112.8736,-181.2432"/>
<text text-anchor="middle" x="156.5" y="-203.8" font-family="Times,serif" font-size="14.00" fill="#000000">true</text>
</g>
<!-- NNfact1_b0_while0_25 -->
<g id="node12" class="node">
<title>NNfact1_b0_while0_25</title>
<ellipse fill="none" stroke="#000000" cx="180" cy="-164" rx="27" ry="18"/>
</g>
<!-- NNfact1_b0_while0_23&#45;&gt;NNfact1_b0_while0_25 -->
<g id="edge14" class="edge">
<title>NNfact1_b0_while0_23&#45;&gt;NNfact1_b0_while0_25</title>
<path fill="none" stroke="#000000" d="M180,-232.9735C180,-221.1918 180,-205.5607 180,-192.1581"/>
<polygon fill="#000000" stroke="#000000" points="183.5001,-192.0033 180,-182.0034 176.5001,-192.0034 183.5001,-192.0033"/>
<text text-anchor="middle" x="197" y="-203.8" font-family="Times,serif" font-size="14.00" fill="#000000">false</text>
</g>
<!-- NNfact1_b0_while0_b0_14&#45;&gt;NNfact1_b0_while0_23 -->
<g id="edge15" class="edge">
<title>NNfact1_b0_while0_b0_14&#45;&gt;NNfact1_b0_while0_23</title>
<path fill="none" stroke="#000000" d="M126.8824,-319.9735C137.1997,-306.5765 151.3499,-288.2024 162.4513,-273.7871"/>
<polygon fill="#000000" stroke="#000000" points="165.2548,-275.883 168.5834,-265.8246 159.7088,-271.6119 165.2548,-275.883"/>
</g>
<!-- NNfact1_b0_while0_b0_17&#45;&gt;NNfact1_b0_while0_19 -->
<g id="edge16" class="edge">
<title>NNfact1_b0_while0_b0_17&#45;&gt;NNfact1_b0_while0_19</title>
<path fill="none" stroke="#000000" d="M410.421,-36.1157C418.1108,-76.8369 436.7977,-175.7923 445.8781,-223.8771"/>
<polygon fill="#000000" stroke="#000000" points="442.4697,-224.6901 447.7646,-233.867 449.3481,-223.3911 442.4697,-224.6901"/>
</g>
</g>
</svg>
