<?xml version="1.0" encoding="UTF-8" standalone="no"?>
<svg xmlns="http://www.w3.org/2000/svg" 
     xmlns:xlink="http://www.w3.org/1999/xlink"
     version="1.1" width="240" height="200">
  <defs>
  <marker id="arrow" viewBox="-5 -5 10 10" markerWidth="4" markerHeight="4" orient="auto">
    <polygon points="-5,-5 5,0 -5,5" fill="black" stroke="none" />
  </marker>
  <marker id="arrow2" viewBox="-5 -5 10 10" markerWidth="6" markerHeight="6" orient="auto">
    <path d="M-5,-5 L5,0 L-5,5" stroke="black" fill="none" stroke-width="2" />
  </marker>
  </defs>
  
  <g transform="translate(0.5,0.5)">

    <g transform="translate(20,30)">
    <text x="-20" y="-10">Graph 1</text>
     <g stroke="black" fill="none" stroke-width="1">
       <path d="M0,20 L40,20 L80,0 L120,0 L160,20 M40,20 L80,40 L120,40 L160,20 L200,20" />
       <g fill="white">
	 <circle cx="0" cy="20" r="4"/>
	 <circle cx="40" cy="20" r="4"/>
	 <circle cx="80" cy="0" r="4"/>
	 <circle cx="80" cy="40" r="4"/>
	 <circle cx="120" cy="0" r="4"/>
	 <circle cx="120" cy="40" r="4"/>
	 <circle cx="160" cy="20" r="4"/>
	 <circle cx="200" cy="20" r="4"/>
       </g>
       <path d="M0,10 L40,10 L80,-10 L120,-10 L160,10 L200,10 M40,30 L80,50 L120,50 L160,30 L200,30"
	     stroke-width="3" />
    </g>
    </g>
    
    <g transform="translate(20,120)">
    <text x="-20" y="-10">Graph 2</text>
     <g stroke="black" fill="none" stroke-width="1">
       <path d="M0,20 L40,20 L80,0 L120,0 L160,20 M40,20 L80,40 L120,40 L160,20 L200,20" />
       <g fill="white">
	 <circle cx="0" cy="20" r="4"/>
	 <circle cx="40" cy="20" r="4"/>
	 <circle cx="80" cy="0" r="4"/>
	 <circle cx="80" cy="40" r="4"/>
	 <circle cx="120" cy="0" r="4"/>
	 <circle cx="120" cy="40" r="4"/>
	 <circle cx="160" cy="20" r="4"/>
	 <circle cx="200" cy="20" r="4"/>
       </g>
       <path d="M0,30 L40,30 L80,50 L120,50 L160,30 L200,30 M40,10 L80,-10 L120,-10 L160,10 L200,10"
	     stroke-width="3" />
    </g>
    </g>

  </g>
</svg>
