<?xml version="1.0" encoding="UTF-8" standalone="no"?>
<svg xmlns="http://www.w3.org/2000/svg" 
     xmlns:xlink="http://www.w3.org/1999/xlink"
     version="1.1" width="300" height="360">
  <defs>
  <marker id="arrow" viewBox="-5 -5 10 10" markerWidth="4" markerHeight="4" orient="auto">
    <polygon points="-5,-5 5,0 -5,5" fill="black" stroke="none" />
  </marker>
  <marker id="arrow2" viewBox="-5 -5 10 10" markerWidth="6" markerHeight="6" orient="auto">
    <path d="M-5,-5 L5,0 L-5,5" stroke="black" fill="none" stroke-width="2" />
  </marker>
  </defs>
  
  <g transform="translate(10.5,0.5)">

    <g fill="white" stroke="black" stroke-width="1">
      <rect x="10" y="75" width="275" height="255"
	    rx="10" ry="10" stroke-dasharray="4,4" />
      <text text-anchor="end" style="font-size:75%;"
	    fill="black" stroke="none" x="30" y="65" dy="0.5em">Frame</text>
    </g>
    
    <g fill="none" stroke="black" stroke-width="2">
      <path d="M40,10 l0,70 m0,5 l0,5 m0,5 l0,75 m0,5 l0,5 m0,5 l0,85 l40,40 l0,40" />
      <path d="M80,10 l0,70 m0,5 l0,5 m0,5 l0,75 m0,5 l0,5 m0,5 l0,85 l40,40 l0,40" />
      <path d="M120,10 l0,70 m0,5 l0,5 m0,5 l0,75 m0,5 l0,5 m0,5 l0,85 l40,40 l0,40" />
      <path d="M160,10 l0,70 m0,5 l0,5 m0,5 l0,75 m0,5 l0,5 m0,5 l0,85 l40,40 l0,40" />
      <path d="M200,10 l0,70 m0,5 l0,5 m0,5 l0,75 m0,5 l0,5 m0,5 l0,85 l40,40 l0,40" />
      
      <path d="M40,150 c300,40,300,120,40,160" />
      <path d="M80,150 c250,40,250,120,40,160" />
      <path d="M120,150 c200,40,200,120,40,160" />
      <path d="M160,150 c150,40,150,120,40,160" />
      <path d="M200,150 c100,40,100,120,40,160" />
    </g>
    
    <g fill="white" stroke="black" stroke-width="1" transform="translate(20,20)">
      <circle cx="20" cy="0" r="4"/>
      <circle cx="60" cy="0" r="4"/>
      <circle cx="100" cy="0" r="4"/>
      <circle cx="140" cy="0" r="4"/>
      <circle cx="180" cy="0" r="4"/>
    </g>
    
    <g fill="white" stroke="black" stroke-width="1" transform="translate(0,50)">
      <polygon points="0,-15 -30,0 0,15 30,0" transform="translate(200,0)" />
      <polygon points="0,-15 -30,0 0,15 30,0" transform="translate(160,0)" />
      <polygon points="0,-15 -30,0 0,15 30,0" transform="translate(120,0)" />
      <polygon points="0,-15 -30,0 0,15 30,0" transform="translate(80,0)" />
      <polygon points="0,-15 -30,0 0,15 30,0" transform="translate(40,0)" />
      <text text-anchor="middle" style="font-size:75%;"
	    fill="black" stroke="none" x="40" y="0" dy="0.4em">Begin</text>
    </g>
    
    <g fill="white" stroke="black" stroke-width="1" transform="translate(20,110)">
      <rect x="0" y="0" width="200" height="40" />
      <circle cx="20" cy="0" r="4"/>
      <circle cx="60" cy="0" r="4"/>
      <circle cx="100" cy="0" r="4"/>
      <circle cx="140" cy="0" r="4"/>
      <circle cx="180" cy="0" r="4"/>
      <circle cx="20" cy="40" r="4"/>
      <circle cx="60" cy="40" r="4"/>
      <circle cx="100" cy="40" r="4"/>
      <circle cx="140" cy="40" r="4"/>
      <circle cx="180" cy="40" r="4"/>
    </g>
    
    <g text-anchor="middle" style="font-family: monospace; font-size: 120%;">
      <text x="120" y="130" dy="0.5em">break;</text>
    </g>
    
    <g fill="white" stroke="black" stroke-width="1" transform="translate(20,200)">
      <rect x="0" y="0" width="200" height="40" />
      <circle cx="20" cy="0" r="4"/>
      <circle cx="60" cy="0" r="4"/>
      <circle cx="100" cy="0" r="4"/>
      <circle cx="140" cy="0" r="4"/>
      <circle cx="180" cy="0" r="4"/>
      <circle cx="20" cy="40" r="4"/>
      <circle cx="60" cy="40" r="4"/>
      <circle cx="100" cy="40" r="4"/>
      <circle cx="140" cy="40" r="4"/>
      <circle cx="180" cy="40" r="4"/>
    </g>
    
    <g fill="white" stroke="black" stroke-width="1" transform="translate(0,270)">
      <polygon points="0,-15 -30,0 0,15 30,0" transform="translate(200,0)" />
      <polygon points="0,-15 -30,0 0,15 30,0" transform="translate(160,0)" />
      <polygon points="0,-15 -30,0 0,15 30,0" transform="translate(120,0)" />
      <polygon points="0,-15 -30,0 0,15 30,0" transform="translate(80,0)" />
      <polygon points="0,-15 -30,0 0,15 30,0" transform="translate(40,0)" />
      <text text-anchor="middle" style="font-size:75%;"
	    fill="black" stroke="none" x="40" y="0" dy="0.4em">End</text>
    </g>
    
    <g fill="white" stroke="black" stroke-width="1" transform="translate(40,310)">
      <polygon points="0,-15 -30,0 0,15 30,0" transform="translate(200,0)" />
      <polygon points="0,-15 -30,0 0,15 30,0" transform="translate(160,0)" />
      <polygon points="0,-15 -30,0 0,15 30,0" transform="translate(120,0)" />
      <polygon points="0,-15 -30,0 0,15 30,0" transform="translate(80,0)" />
      <polygon points="0,-15 -30,0 0,15 30,0" transform="translate(40,0)" />
      <text text-anchor="middle" style="font-size:75%;"
	    fill="black" stroke="none" x="40" y="0" dy="0.4em">Select</text>
    </g>
    
    <g fill="white" stroke="black" stroke-width="1" transform="translate(60,340)">
      <circle cx="20" cy="0" r="4"/>
      <circle cx="60" cy="0" r="4"/>
      <circle cx="100" cy="0" r="4"/>
      <circle cx="140" cy="0" r="4"/>
      <circle cx="180" cy="0" r="4"/>
    </g>

  </g>
</svg>
