<?xml version="1.0" encoding="UTF-8" standalone="no"?>
<svg xmlns="http://www.w3.org/2000/svg" 
     xmlns:xlink="http://www.w3.org/1999/xlink"
     version="1.1" width="420" height="220">
  <defs>
  <marker id="arrow" viewBox="-5 -5 10 10" markerWidth="4" markerHeight="4" orient="auto">
    <polygon points="-5,-5 5,0 -5,5" fill="black" stroke="none" />
  </marker>
  <marker id="arrow2" viewBox="-5 -5 10 10" markerWidth="6" markerHeight="6" orient="auto">
    <path d="M-5,-5 L5,0 L-5,5" stroke="black" fill="none" stroke-width="2" />
  </marker>
  </defs>
  
  <g transform="translate(0.5,0.5)">
    <rect fill="none" stroke="black" stroke-width="1"
	  x="20" y="20" width="399" height="176" />
    
    <g transform="translate(0,60)">
      <g fill="white" stroke="black" stroke-width="1">
	<rect x="60" y="20" width="100" height="40" />
      </g>
      <g fill="none" stroke="black" stroke-width="2">
	<path d="M120,-60 l0,20" />
	<path d="M120,-40 C0,0,0,120,140,120" marker-end="url(#arrow2)" stroke-dasharray="4,4" />
	<path d="M180,-40 L80,20 m0,30 l0,10 L180,120" />
	<path d="M240,-40 L140,20 l0,40 L250,120" />
      </g>
      <g fill="white" stroke="black" stroke-width="1">
        <circle cx="80" cy="20" r="4"/>
        <circle cx="140" cy="20" r="4"/>
        <circle cx="80" cy="60" r="4"/>
        <circle cx="140" cy="60" r="4"/>
	<rect x="62" y="30" width="36" height="20" />
        <g fill="black" stroke="none">
  	  <text x="84" y="0" dy="0.5em">y</text>
  	  <text x="144" y="0" dy="0.5em">z</text>
  	  <text x="84" y="70" dy="0.5em">y</text>
  	  <text x="144" y="70" dy="0.5em">z</text>
	  <g style="font-family: monospace; font-size: 120%;">
  	    <text text-anchor="middle" x="80" y="40" dy="0.5em">1</text>
  	    <text x="170" y="30" dy="0.5em">y=1</text>
  	  </g>
        </g>
      </g>
    </g>
    
    <g transform="translate(220,60)">
      <g fill="white" stroke="black" stroke-width="1">
	<rect x="60" y="20" width="100" height="40" />
      </g>
      <g fill="none" stroke="black" stroke-width="2">
	<path d="M-40,-60 l0,20 L80,20 l0,40 L-40,120 l0,30" />
	<path d="M20,-60 l0,20 L140,20 m0,30 l0,10 L30,120 l0,30" />
      </g>
      <g fill="white" stroke="black" stroke-width="1">
        <circle cx="80" cy="20" r="4"/>
        <circle cx="140" cy="20" r="4"/>
        <circle cx="80" cy="60" r="4"/>
        <circle cx="140" cy="60" r="4"/>
	<rect x="122" y="30" width="36" height="20" />
        <g fill="black" stroke="none">
  	  <text x="84" y="0" dy="0.5em">y</text>
  	  <text x="144" y="0" dy="0.5em">z</text>
  	  <text x="84" y="66" dy="0.5em">y</text>
  	  <text x="144" y="66" dy="0.5em">z</text>
	  <g style="font-family: monospace; font-size: 120%;">
  	    <text text-anchor="middle" x="140" y="40" dy="0.5em">2</text>
  	    <text x="170" y="30" dy="0.5em">z=2</text>
	  </g>
        </g>
      </g>
    </g>

    <g transform="translate(100,20)">
      <g fill="white" stroke="black" stroke-width="1">
        <circle cx="20" cy="0" r="4"/>
        <circle cx="80" cy="0" r="4"/>
        <circle cx="140" cy="0" r="4"/>
        <g fill="black" stroke="none">
  	  <text x="24" y="-10" dy="0.5em">x</text>
  	  <text x="84" y="-10" dy="0.5em">y</text>
  	  <text x="144" y="-10" dy="0.5em">z</text>
	  
  	  <text text-anchor="middle" x="0" y="164" dy="0.5em">cond</text>
  	  <text x="84" y="180" dy="0.5em">y</text>
  	  <text x="154" y="180" dy="0.5em">z</text>
	</g>
      </g>
    </g>

    <g transform="translate(180,180)">
      <g fill="white" stroke="black" stroke-width="1">
	<polygon points="0,-15 -30,0 0,15 30,0" />
      </g>
      <text text-anchor="middle" style="font-size:75%;" x="0" y="0" dy="0.4em">Select</text>
    </g>
    <g transform="translate(250,180)">
      <g fill="white" stroke="black" stroke-width="1">
	<polygon points="0,-15 -30,0 0,15 30,0" />
      </g>
      <text text-anchor="middle" style="font-size:75%;" x="0" y="0" dy="0.4em">Select</text>
    </g>
    
  </g>
</svg>
