<?xml version="1.0" encoding="UTF-8" standalone="no"?>
<!DOCTYPE svg PUBLIC "-//W3C//DTD SVG 1.1//EN"
 "http://www.w3.org/Graphics/SVG/1.1/DTD/svg11.dtd">
<!-- Generated by graphviz version 2.40.1 (20161225.0304)
 -->
<!-- Title: iter Pages: 1 -->
<svg width="198pt" height="350pt"
 viewBox="0.00 0.00 198.31 350.00" xmlns="http://www.w3.org/2000/svg" xmlns:xlink="http://www.w3.org/1999/xlink">
<g id="graph0" class="graph" transform="scale(1 1) rotate(0) translate(4 346)">
<title>iter</title>
<polygon fill="#ffffff" stroke="transparent" points="-4,4 -4,-346 194.3111,-346 194.3111,4 -4,4"/>
<!-- N0 -->
<g id="node1" class="node">
<title>N0</title>
<ellipse fill="none" stroke="#000000" cx="53.3111" cy="-324" rx="27" ry="18"/>
<text text-anchor="middle" x="53.3111" y="-320.3" font-family="Times,serif" font-size="14.00" fill="#000000">x</text>
</g>
<!-- N1 -->
<g id="node2" class="node">
<title>N1</title>
<polygon fill="none" stroke="#000000" points="53.3111,-269 .1882,-251 53.3111,-233 106.434,-251 53.3111,-269"/>
<text text-anchor="middle" x="53.3111" y="-247.3" font-family="Times,serif" font-size="14.00" fill="#000000">Begin</text>
</g>
<!-- N0&#45;&gt;N1 -->
<g id="edge1" class="edge">
<title>N0&#45;&gt;N1</title>
<path fill="none" stroke="#000000" d="M53.3111,-305.9551C53.3111,-297.8828 53.3111,-288.1764 53.3111,-279.1817"/>
<polygon fill="#000000" stroke="#000000" points="56.8112,-279.0903 53.3111,-269.0904 49.8112,-279.0904 56.8112,-279.0903"/>
</g>
<!-- N2 -->
<g id="node3" class="node">
<title>N2</title>
<polygon fill="none" stroke="#000000" points="80.3111,-196 26.3111,-196 26.3111,-160 80.3111,-160 80.3111,-196"/>
<text text-anchor="middle" x="53.3111" y="-174.3" font-family="Times,serif" font-size="14.00" fill="#000000">...</text>
</g>
<!-- N1&#45;&gt;N2 -->
<g id="edge2" class="edge">
<title>N1&#45;&gt;N2</title>
<path fill="none" stroke="#000000" d="M53.3111,-232.9551C53.3111,-224.8828 53.3111,-215.1764 53.3111,-206.1817"/>
<polygon fill="#000000" stroke="#000000" points="56.8112,-206.0903 53.3111,-196.0904 49.8112,-206.0904 56.8112,-206.0903"/>
</g>
<!-- N3 -->
<g id="node4" class="node">
<title>N3</title>
<polygon fill="none" stroke="#000000" points="80.3111,-109 39.0865,-91 80.3111,-73 121.5357,-91 80.3111,-109"/>
<text text-anchor="middle" x="80.3111" y="-87.3" font-family="Times,serif" font-size="14.00" fill="#000000">End</text>
</g>
<!-- N2&#45;&gt;N3 -->
<g id="edge3" class="edge">
<title>N2&#45;&gt;N3</title>
<path fill="none" stroke="#000000" d="M58.9055,-159.9735C62.7705,-147.5199 67.9702,-130.7653 72.2769,-116.8879"/>
<polygon fill="#000000" stroke="#000000" points="75.7381,-117.5436 75.3594,-106.9556 69.0526,-115.4688 75.7381,-117.5436"/>
</g>
<!-- N3&#45;&gt;N1 -->
<g id="edge6" class="edge">
<title>N3&#45;&gt;N1</title>
<path fill="none" stroke="#000000" stroke-dasharray="5,2" d="M85.2897,-107.0273C90.9809,-127.9486 98.4078,-165.4923 89.3111,-196 85.8158,-207.7224 78.9363,-219.2706 72.1193,-228.7353"/>
<polygon fill="#000000" stroke="#000000" points="69.2592,-226.7138 65.9752,-236.7869 74.824,-230.9603 69.2592,-226.7138"/>
</g>
<!-- N5 -->
<g id="node6" class="node">
<title>N5</title>
<ellipse fill="none" stroke="#000000" cx="80.3111" cy="-18" rx="27" ry="18"/>
<text text-anchor="middle" x="80.3111" y="-14.3" font-family="Times,serif" font-size="14.00" fill="#000000">x</text>
</g>
<!-- N3&#45;&gt;N5 -->
<g id="edge5" class="edge">
<title>N3&#45;&gt;N5</title>
<path fill="none" stroke="#000000" d="M80.3111,-72.9551C80.3111,-64.8828 80.3111,-55.1764 80.3111,-46.1817"/>
<polygon fill="#000000" stroke="#000000" points="83.8112,-46.0903 80.3111,-36.0904 76.8112,-46.0904 83.8112,-46.0903"/>
</g>
<!-- N4 -->
<g id="node5" class="node">
<title>N4</title>
<ellipse fill="none" stroke="#000000" cx="163.3111" cy="-178" rx="27" ry="18"/>
<text text-anchor="middle" x="163.3111" y="-174.3" font-family="Times,serif" font-size="14.00" fill="#000000">x</text>
</g>
<!-- N4&#45;&gt;N3 -->
<g id="edge4" class="edge">
<title>N4&#45;&gt;N3</title>
<path fill="none" stroke="#000000" stroke-dasharray="1,5" d="M148.4724,-162.4461C134.8926,-148.2119 114.7079,-127.0544 99.826,-111.4553"/>
<polygon fill="#000000" stroke="#000000" points="102.0254,-108.6903 92.5901,-103.8708 96.9605,-113.5222 102.0254,-108.6903"/>
<text text-anchor="middle" x="143.8111" y="-130.8" font-family="Times,serif" font-size="14.00" fill="#000000">cond</text>
</g>
</g>
</svg>
