<?xml version="1.0" encoding="UTF-8" standalone="no"?>
<!DOCTYPE svg PUBLIC "-//W3C//DTD SVG 1.1//EN"
 "http://www.w3.org/Graphics/SVG/1.1/DTD/svg11.dtd">
<!-- Generated by graphviz version 2.40.1 (20161225.0304)
 -->
<!-- Title: max Pages: 1 -->
<svg width="369pt" height="538pt"
 viewBox="0.00 0.00 369.36 538.00" xmlns="http://www.w3.org/2000/svg" xmlns:xlink="http://www.w3.org/1999/xlink">
<g id="graph0" class="graph" transform="scale(1 1) rotate(0) translate(4 534)">
<title>max</title>
<polygon fill="#ffffff" stroke="transparent" points="-4,4 -4,-534 365.3621,-534 365.3621,4 -4,4"/>
<!-- NNmax_0 -->
<g id="node1" class="node">
<title>NNmax_0</title>
<polygon fill="none" stroke="#000000" points="146.8621,-530 73.8621,-530 73.8621,-494 146.8621,-494 146.8621,-530"/>
<text text-anchor="middle" x="110.3621" y="-508.3" font-family="Times,serif" font-size="14.00" fill="#000000">arg0 (a)</text>
</g>
<!-- NNmax_b0_efor0_7 -->
<g id="node4" class="node">
<title>NNmax_b0_efor0_7</title>
<polygon fill="none" stroke="#000000" points="137.3621,-443 83.3621,-443 83.3621,-407 137.3621,-407 137.3621,-443"/>
<text text-anchor="middle" x="110.3621" y="-421.3" font-family="Times,serif" font-size="14.00" fill="#000000">iter</text>
</g>
<!-- NNmax_0&#45;&gt;NNmax_b0_efor0_7 -->
<g id="edge1" class="edge">
<title>NNmax_0&#45;&gt;NNmax_b0_efor0_7</title>
<path fill="none" stroke="#000000" d="M110.3621,-493.9735C110.3621,-482.1918 110.3621,-466.5607 110.3621,-453.1581"/>
<polygon fill="#000000" stroke="#000000" points="113.8622,-453.0033 110.3621,-443.0034 106.8622,-453.0034 113.8622,-453.0033"/>
</g>
<!-- NNmax_b0_3 -->
<g id="node2" class="node">
<title>NNmax_b0_3</title>
<polygon fill="none" stroke="#000000" points="303.3621,-530 249.3621,-530 249.3621,-494 303.3621,-494 303.3621,-530"/>
<text text-anchor="middle" x="276.3621" y="-508.3" font-family="Times,serif" font-size="14.00" fill="#000000">&#45;1</text>
</g>
<!-- NNmax_b0_efor0_20 -->
<g id="node7" class="node">
<title>NNmax_b0_efor0_20</title>
<polygon fill="none" stroke="#000000" points="276.3621,-443 223.2392,-425 276.3621,-407 329.485,-425 276.3621,-443"/>
<text text-anchor="middle" x="276.3621" y="-421.3" font-family="Times,serif" font-size="14.00" fill="#000000">Begin</text>
</g>
<!-- NNmax_b0_3&#45;&gt;NNmax_b0_efor0_20 -->
<g id="edge2" class="edge">
<title>NNmax_b0_3&#45;&gt;NNmax_b0_efor0_20</title>
<path fill="none" stroke="#000000" d="M276.3621,-493.9735C276.3621,-482.1918 276.3621,-466.5607 276.3621,-453.1581"/>
<polygon fill="#000000" stroke="#000000" points="279.8622,-453.0033 276.3621,-443.0034 272.8622,-453.0034 279.8622,-453.0033"/>
<text text-anchor="middle" x="295.8621" y="-464.8" font-family="Times,serif" font-size="14.00" fill="#000000">enter</text>
</g>
<!-- NNmax_b0_25 -->
<g id="node3" class="node">
<title>NNmax_b0_25</title>
<polygon fill="none" stroke="#000000" points="72.3621,-36 10.3621,-36 10.3621,0 72.3621,0 72.3621,-36"/>
<text text-anchor="middle" x="41.3621" y="-14.3" font-family="Times,serif" font-size="14.00" fill="#000000">return</text>
</g>
<!-- NNmax_b0_efor0_11 -->
<g id="node6" class="node">
<title>NNmax_b0_efor0_11</title>
<ellipse fill="none" stroke="#000000" cx="192.3621" cy="-352" rx="27" ry="18"/>
</g>
<!-- NNmax_b0_efor0_7&#45;&gt;NNmax_b0_efor0_11 -->
<g id="edge4" class="edge">
<title>NNmax_b0_efor0_7&#45;&gt;NNmax_b0_efor0_11</title>
<path fill="none" stroke="#000000" d="M130.6317,-406.9551C142.1476,-396.7032 156.6244,-383.8153 168.6637,-373.0974"/>
<polygon fill="#000000" stroke="#000000" points="171.0258,-375.6805 176.1676,-366.417 166.3713,-370.4521 171.0258,-375.6805"/>
</g>
<!-- NNmax_b0_efor0_21 -->
<g id="node8" class="node">
<title>NNmax_b0_efor0_21</title>
<polygon fill="none" stroke="#000000" points="41.3621,-123 .1375,-105 41.3621,-87 82.5867,-105 41.3621,-123"/>
<text text-anchor="middle" x="41.3621" y="-101.3" font-family="Times,serif" font-size="14.00" fill="#000000">End</text>
</g>
<!-- NNmax_b0_efor0_7&#45;&gt;NNmax_b0_efor0_21 -->
<g id="edge3" class="edge">
<title>NNmax_b0_efor0_7&#45;&gt;NNmax_b0_efor0_21</title>
<path fill="none" stroke="#000000" stroke-dasharray="1,5" d="M82.9392,-413.8042C59.4404,-402.1796 29.3621,-381.532 29.3621,-352 29.3621,-352 29.3621,-352 29.3621,-178 29.3621,-162.3407 32.0839,-145.0392 34.935,-131.2115"/>
<polygon fill="#000000" stroke="#000000" points="38.3632,-131.9183 37.0975,-121.3993 31.5272,-130.4117 38.3632,-131.9183"/>
<text text-anchor="middle" x="46.8621" y="-261.3" font-family="Times,serif" font-size="14.00" fill="#000000">cond</text>
</g>
<!-- NNmax_b0_efor0_9 -->
<g id="node5" class="node">
<title>NNmax_b0_efor0_9</title>
<ellipse fill="none" stroke="#000000" cx="276.3621" cy="-352" rx="27" ry="18"/>
</g>
<!-- NNmax_b0_efor0_b0_13 -->
<g id="node9" class="node">
<title>NNmax_b0_efor0_b0_13</title>
<polygon fill="none" stroke="#000000" points="361.3621,-283 307.3621,-283 307.3621,-247 361.3621,-247 361.3621,-283"/>
<text text-anchor="middle" x="334.3621" y="-261.3" font-family="Times,serif" font-size="14.00" fill="#000000">&lt;</text>
</g>
<!-- NNmax_b0_efor0_9&#45;&gt;NNmax_b0_efor0_b0_13 -->
<g id="edge5" class="edge">
<title>NNmax_b0_efor0_9&#45;&gt;NNmax_b0_efor0_b0_13</title>
<path fill="none" stroke="#000000" d="M287.5451,-335.2255C295.7777,-322.8766 307.1381,-305.836 316.6063,-291.6337"/>
<polygon fill="#000000" stroke="#000000" points="319.5773,-293.4868 322.2122,-283.2248 313.753,-289.6039 319.5773,-293.4868"/>
<text text-anchor="middle" x="313.3621" y="-304.8" font-family="Times,serif" font-size="14.00" fill="#000000">L</text>
</g>
<!-- NNmax_b0_efor0_b0_19 -->
<g id="node10" class="node">
<title>NNmax_b0_efor0_b0_19</title>
<polygon fill="none" stroke="#000000" points="243.3621,-196 186.3866,-178 243.3621,-160 300.3376,-178 243.3621,-196"/>
<text text-anchor="middle" x="243.3621" y="-174.3" font-family="Times,serif" font-size="14.00" fill="#000000">Select</text>
</g>
<!-- NNmax_b0_efor0_9&#45;&gt;NNmax_b0_efor0_b0_19 -->
<g id="edge6" class="edge">
<title>NNmax_b0_efor0_9&#45;&gt;NNmax_b0_efor0_b0_19</title>
<path fill="none" stroke="#000000" d="M272.9548,-334.0343C267.1643,-303.5029 255.3699,-241.3139 248.5492,-205.3503"/>
<polygon fill="#000000" stroke="#000000" points="251.9064,-204.2679 246.6043,-195.0952 245.029,-205.5722 251.9064,-204.2679"/>
<text text-anchor="middle" x="279.3621" y="-261.3" font-family="Times,serif" font-size="14.00" fill="#000000">false</text>
</g>
<!-- NNmax_b0_efor0_11&#45;&gt;NNmax_b0_efor0_b0_13 -->
<g id="edge7" class="edge">
<title>NNmax_b0_efor0_11&#45;&gt;NNmax_b0_efor0_b0_13</title>
<path fill="none" stroke="#000000" d="M212.406,-339.7195C234.6601,-326.085 271.0306,-303.8017 298.2724,-287.1113"/>
<polygon fill="#000000" stroke="#000000" points="300.4291,-289.8947 307.1275,-281.686 296.7721,-283.9258 300.4291,-289.8947"/>
<text text-anchor="middle" x="276.8621" y="-304.8" font-family="Times,serif" font-size="14.00" fill="#000000">R</text>
</g>
<!-- NNmax_b0_efor0_b0_b0_18 -->
<g id="node11" class="node">
<title>NNmax_b0_efor0_b0_b0_18</title>
<polygon fill="none" stroke="#000000" points="219.3621,-283 165.3621,-283 165.3621,-247 219.3621,-247 219.3621,-283"/>
<text text-anchor="middle" x="192.3621" y="-261.3" font-family="Times,serif" font-size="14.00" fill="#000000">=</text>
</g>
<!-- NNmax_b0_efor0_11&#45;&gt;NNmax_b0_efor0_b0_b0_18 -->
<g id="edge8" class="edge">
<title>NNmax_b0_efor0_11&#45;&gt;NNmax_b0_efor0_b0_b0_18</title>
<path fill="none" stroke="#000000" d="M192.3621,-333.9735C192.3621,-322.1918 192.3621,-306.5607 192.3621,-293.1581"/>
<polygon fill="#000000" stroke="#000000" points="195.8622,-293.0033 192.3621,-283.0034 188.8622,-293.0034 195.8622,-293.0033"/>
</g>
<!-- NNmax_b0_efor0_20&#45;&gt;NNmax_b0_efor0_9 -->
<g id="edge9" class="edge">
<title>NNmax_b0_efor0_20&#45;&gt;NNmax_b0_efor0_9</title>
<path fill="none" stroke="#000000" d="M276.3621,-406.9551C276.3621,-398.8828 276.3621,-389.1764 276.3621,-380.1817"/>
<polygon fill="#000000" stroke="#000000" points="279.8622,-380.0903 276.3621,-370.0904 272.8622,-380.0904 279.8622,-380.0903"/>
</g>
<!-- NNmax_b0_efor0_21&#45;&gt;NNmax_b0_25 -->
<g id="edge11" class="edge">
<title>NNmax_b0_efor0_21&#45;&gt;NNmax_b0_25</title>
<path fill="none" stroke="#000000" d="M41.3621,-86.9735C41.3621,-75.1918 41.3621,-59.5607 41.3621,-46.1581"/>
<polygon fill="#000000" stroke="#000000" points="44.8622,-46.0033 41.3621,-36.0034 37.8622,-46.0034 44.8622,-46.0033"/>
<text text-anchor="middle" x="55.3621" y="-57.8" font-family="Times,serif" font-size="14.00" fill="#000000">exit</text>
</g>
<!-- NNmax_b0_efor0_21&#45;&gt;NNmax_b0_efor0_20 -->
<g id="edge10" class="edge">
<title>NNmax_b0_efor0_21&#45;&gt;NNmax_b0_efor0_20</title>
<path fill="none" stroke="#000000" stroke-dasharray="5,2" d="M43.9444,-121.935C51.8914,-168.3187 80.2215,-298.6936 156.3621,-370 178.9557,-391.1591 211.1134,-405.3013 236.4533,-413.9408"/>
<polygon fill="#000000" stroke="#000000" points="235.5534,-417.3286 246.1456,-417.094 237.719,-410.672 235.5534,-417.3286"/>
<text text-anchor="middle" x="117.8621" y="-261.3" font-family="Times,serif" font-size="14.00" fill="#000000">repeat</text>
</g>
<!-- NNmax_b0_efor0_b0_13&#45;&gt;NNmax_b0_efor0_b0_19 -->
<g id="edge12" class="edge">
<title>NNmax_b0_efor0_b0_13&#45;&gt;NNmax_b0_efor0_b0_19</title>
<path fill="none" stroke="#000000" stroke-dasharray="1,5" d="M315.5068,-246.9735C300.8773,-232.9871 280.5735,-213.5758 265.2314,-198.908"/>
<polygon fill="#000000" stroke="#000000" points="267.3638,-196.1045 257.717,-191.7239 262.5265,-201.1642 267.3638,-196.1045"/>
<text text-anchor="middle" x="310.8621" y="-217.8" font-family="Times,serif" font-size="14.00" fill="#000000">cond</text>
</g>
<!-- NNmax_b0_efor0_b0_19&#45;&gt;NNmax_b0_efor0_21 -->
<g id="edge13" class="edge">
<title>NNmax_b0_efor0_b0_19&#45;&gt;NNmax_b0_efor0_21</title>
<path fill="none" stroke="#000000" d="M216.538,-168.3062C179.536,-154.9342 112.9316,-130.8642 73.3725,-116.5681"/>
<polygon fill="#000000" stroke="#000000" points="74.5266,-113.2637 63.9324,-113.1566 72.1475,-119.847 74.5266,-113.2637"/>
</g>
<!-- NNmax_b0_efor0_b0_b0_18&#45;&gt;NNmax_b0_efor0_b0_19 -->
<g id="edge14" class="edge">
<title>NNmax_b0_efor0_b0_b0_18&#45;&gt;NNmax_b0_efor0_b0_19</title>
<path fill="none" stroke="#000000" d="M196.8625,-246.7496C199.8176,-236.6567 204.2732,-224.1435 210.3621,-214 213.493,-208.7842 217.4611,-203.6642 221.5513,-198.996"/>
<polygon fill="#000000" stroke="#000000" points="224.1614,-201.3289 228.4235,-191.6291 219.0428,-196.5539 224.1614,-201.3289"/>
<text text-anchor="middle" x="225.8621" y="-217.8" font-family="Times,serif" font-size="14.00" fill="#000000">true</text>
</g>
</g>
</svg>
