<?xml version="1.0" encoding="UTF-8" standalone="no"?>
<svg xmlns="http://www.w3.org/2000/svg" 
     xmlns:xlink="http://www.w3.org/1999/xlink"
     version="1.1" width="360" height="200">
  <defs>
  <marker id="arrow" viewBox="-5 -5 10 10" markerWidth="4" markerHeight="4" orient="auto">
    <polygon points="-5,-5 5,0 -5,5" fill="black" stroke="none" />
  </marker>
  <marker id="arrow2" viewBox="-5 -5 10 10" markerWidth="6" markerHeight="6" orient="auto">
    <path d="M-5,-5 L5,0 L-5,5" stroke="black" fill="none" stroke-width="2" />
  </marker>
  </defs>
  
  <g transform="translate(0.5,0.5)">
    <g fill="none" stroke="black" stroke-width="1">
      <rect x="0" y="40" width="220" height="60" />
      <rect x="0" y="120" width="220" height="60" />

      <path d="M20,0 L20,40" stroke-width="2" />
      <path d="M80,0 L80,40 L100,60" stroke-width="2" />
      <path d="M140,0 L140,40 L120,60" stroke-width="2" />
      <path d="M110,80 L20,100 L20,200" stroke-width="2" />
      <path d="M200,0 L200,120" stroke-width="2" />
      <path d="M80,0 L80,84 m0,6 L80,138 m0,6 L80,200" stroke-width="2" />
      <path d="M140,0 L140,158 m0,6 L140,200" stroke-width="2" />
      <path d="M20,120 L200,180 L200,200" stroke-width="2" />
    </g>
    
    <g fill="white" stroke="black" stroke-width="1">
      <circle cx="20" cy="40" r="4"/>
      <circle cx="80" cy="40" r="4"/>
      <circle cx="140" cy="40" r="4"/>
      <circle cx="200" cy="40" r="4"/>
      <circle cx="20" cy="100" r="4"/>
      <circle cx="80" cy="100" r="4"/>
      <circle cx="140" cy="100" r="4"/>
      <circle cx="200" cy="100" r="4"/>
      <circle cx="20" cy="120" r="4"/>
      <circle cx="80" cy="120" r="4"/>
      <circle cx="140" cy="120" r="4"/>
      <circle cx="200" cy="120" r="4"/>
      <circle cx="20" cy="180" r="4"/>
      <circle cx="80" cy="180" r="4"/>
      <circle cx="140" cy="180" r="4"/>
      <circle cx="200" cy="180" r="4"/>
      <rect x="90" y="60" width="40" height="20" />
    </g>
    
    <g text-anchor="start" style="font-family: monospace; font-size: 120%;">
      <text x="240" y="60" dy="0.5em">a = b + c;</text>
      <text x="240" y="140" dy="0.5em">x = a;</text>
    </g>
    <text x="110" y="70" dy="0.5em" text-anchor="middle">+</text>
    <g text-anchor="middle" transform="translate(10,20)">
      <text x="20" y="0" dy="0.5em">a</text>
      <text x="80" y="0" dy="0.5em">b</text>
      <text x="140" y="0" dy="0.5em">c</text>
      <text x="200" y="0" dy="0.5em">x</text>
    </g>
    <g text-anchor="middle" transform="translate(10,106)">
      <text x="20" y="0" dy="0.5em">a</text>
      <text x="80" y="0" dy="0.5em">b</text>
      <text x="140" y="0" dy="0.5em">c</text>
      <text x="200" y="0" dy="0.5em">x</text>
    </g>
    <g text-anchor="middle" transform="translate(10,188)">
      <text x="20" y="0" dy="0.5em">a</text>
      <text x="80" y="0" dy="0.5em">b</text>
      <text x="140" y="0" dy="0.5em">c</text>
      <text x="200" y="0" dy="0.5em">x</text>
    </g>
  </g>
</svg>
