<?xml version="1.0" encoding="UTF-8" standalone="no"?>
<!DOCTYPE svg PUBLIC "-//W3C//DTD SVG 1.1//EN"
 "http://www.w3.org/Graphics/SVG/1.1/DTD/svg11.dtd">
<!-- Generated by graphviz version 2.40.1 (20161225.0304)
 -->
<!-- Title: f3 Pages: 1 -->
<svg width="565pt" height="844pt"
 viewBox="0.00 0.00 565.00 844.00" xmlns="http://www.w3.org/2000/svg" xmlns:xlink="http://www.w3.org/1999/xlink">
<g id="graph0" class="graph" transform="scale(1 1) rotate(0) translate(4 840)">
<title>f3</title>
<polygon fill="#ffffff" stroke="transparent" points="-4,4 -4,-840 561,-840 561,4 -4,4"/>
<!-- N1 -->
<g id="node1" class="node">
<title>N1</title>
<ellipse fill="none" stroke="#000000" cx="154" cy="-818" rx="36.2938" ry="18"/>
<text text-anchor="middle" x="154" y="-814.3" font-family="Times,serif" font-size="14.00" fill="#000000">Arg 0</text>
</g>
<!-- N2 -->
<g id="node2" class="node">
<title>N2</title>
<polygon fill="none" stroke="#000000" points="181,-763 127,-763 127,-727 181,-727 181,-763"/>
<text text-anchor="middle" x="154" y="-741.3" font-family="Times,serif" font-size="14.00" fill="#000000">x</text>
</g>
<!-- N1&#45;&gt;N2 -->
<g id="edge1" class="edge">
<title>N1&#45;&gt;N2</title>
<path fill="none" stroke="#000000" d="M154,-799.9551C154,-791.8828 154,-782.1764 154,-773.1817"/>
<polygon fill="#000000" stroke="#000000" points="157.5001,-773.0903 154,-763.0904 150.5001,-773.0904 157.5001,-773.0903"/>
</g>
<!-- N26 -->
<g id="node19" class="node">
<title>N26</title>
<ellipse fill="none" stroke="#000000" cx="154" cy="-658" rx="33.5952" ry="18"/>
<text text-anchor="middle" x="154" y="-654.3" font-family="Times,serif" font-size="14.00" fill="#000000">Loop</text>
</g>
<!-- N2&#45;&gt;N26 -->
<g id="edge2" class="edge">
<title>N2&#45;&gt;N26</title>
<path fill="none" stroke="#000000" d="M154,-726.9735C154,-715.1918 154,-699.5607 154,-686.1581"/>
<polygon fill="#000000" stroke="#000000" points="157.5001,-686.0033 154,-676.0034 150.5001,-686.0034 157.5001,-686.0033"/>
<text text-anchor="middle" x="166.5" y="-697.8" font-family="Times,serif" font-size="14.00" fill="#000000">init</text>
</g>
<!-- N3 -->
<g id="node3" class="node">
<title>N3</title>
<ellipse fill="none" stroke="#000000" cx="444" cy="-411" rx="36.2938" ry="18"/>
<text text-anchor="middle" x="444" y="-407.3" font-family="Times,serif" font-size="14.00" fill="#000000">Arg 1</text>
</g>
<!-- N4 -->
<g id="node4" class="node">
<title>N4</title>
<polygon fill="none" stroke="#000000" points="475,-356 421,-356 421,-320 475,-320 475,-356"/>
<text text-anchor="middle" x="448" y="-334.3" font-family="Times,serif" font-size="14.00" fill="#000000">y</text>
</g>
<!-- N3&#45;&gt;N4 -->
<g id="edge3" class="edge">
<title>N3&#45;&gt;N4</title>
<path fill="none" stroke="#000000" d="M444.9888,-392.9551C445.4311,-384.8828 445.9629,-375.1764 446.4558,-366.1817"/>
<polygon fill="#000000" stroke="#000000" points="449.9563,-366.2669 447.0087,-356.0904 442.9668,-365.8839 449.9563,-366.2669"/>
</g>
<!-- N22 -->
<g id="node17" class="node">
<title>N22</title>
<ellipse fill="none" stroke="#000000" cx="483" cy="-251" rx="33.5952" ry="18"/>
<text text-anchor="middle" x="483" y="-247.3" font-family="Times,serif" font-size="14.00" fill="#000000">Loop</text>
</g>
<!-- N4&#45;&gt;N22 -->
<g id="edge4" class="edge">
<title>N4&#45;&gt;N22</title>
<path fill="none" stroke="#000000" d="M455.252,-319.9735C460.1179,-307.8784 466.6158,-291.7263 472.1004,-278.0934"/>
<polygon fill="#000000" stroke="#000000" points="475.3918,-279.2894 475.877,-268.7057 468.8976,-276.6768 475.3918,-279.2894"/>
<text text-anchor="middle" x="479.5" y="-290.8" font-family="Times,serif" font-size="14.00" fill="#000000">init</text>
</g>
<!-- N5 -->
<g id="node5" class="node">
<title>N5</title>
<ellipse fill="none" stroke="#000000" cx="27" cy="-411" rx="27" ry="18"/>
<text text-anchor="middle" x="27" y="-407.3" font-family="Times,serif" font-size="14.00" fill="#000000">1</text>
</g>
<!-- N6 -->
<g id="node6" class="node">
<title>N6</title>
<polygon fill="none" stroke="#000000" points="54,-356 0,-356 0,-320 54,-320 54,-356"/>
<text text-anchor="middle" x="27" y="-334.3" font-family="Times,serif" font-size="14.00" fill="#000000">z</text>
</g>
<!-- N5&#45;&gt;N6 -->
<g id="edge5" class="edge">
<title>N5&#45;&gt;N6</title>
<path fill="none" stroke="#000000" d="M27,-392.9551C27,-384.8828 27,-375.1764 27,-366.1817"/>
<polygon fill="#000000" stroke="#000000" points="30.5001,-366.0903 27,-356.0904 23.5001,-366.0904 30.5001,-366.0903"/>
</g>
<!-- N30 -->
<g id="node21" class="node">
<title>N30</title>
<ellipse fill="none" stroke="#000000" cx="84" cy="-251" rx="33.5952" ry="18"/>
<text text-anchor="middle" x="84" y="-247.3" font-family="Times,serif" font-size="14.00" fill="#000000">Loop</text>
</g>
<!-- N6&#45;&gt;N30 -->
<g id="edge6" class="edge">
<title>N6&#45;&gt;N30</title>
<path fill="none" stroke="#000000" d="M38.8104,-319.9735C46.9957,-307.4802 58.0168,-290.6585 67.1258,-276.7554"/>
<polygon fill="#000000" stroke="#000000" points="70.2338,-278.3981 72.7865,-268.1154 64.3785,-274.5619 70.2338,-278.3981"/>
<text text-anchor="middle" x="70.5" y="-290.8" font-family="Times,serif" font-size="14.00" fill="#000000">init</text>
</g>
<!-- N7 -->
<g id="node7" class="node">
<title>N7</title>
<ellipse fill="none" stroke="#000000" cx="268" cy="-745" rx="27" ry="18"/>
<text text-anchor="middle" x="268" y="-741.3" font-family="Times,serif" font-size="14.00" fill="#000000">0</text>
</g>
<!-- N9 -->
<g id="node8" class="node">
<title>N9</title>
<ellipse fill="none" stroke="#000000" cx="268" cy="-658" rx="27" ry="18"/>
<text text-anchor="middle" x="268" y="-654.3" font-family="Times,serif" font-size="14.00" fill="#000000">&lt;</text>
</g>
<!-- N7&#45;&gt;N9 -->
<g id="edge7" class="edge">
<title>N7&#45;&gt;N9</title>
<path fill="none" stroke="#000000" d="M268,-726.9735C268,-715.1918 268,-699.5607 268,-686.1581"/>
<polygon fill="#000000" stroke="#000000" points="271.5001,-686.0033 268,-676.0034 264.5001,-686.0034 271.5001,-686.0033"/>
<text text-anchor="middle" x="273" y="-697.8" font-family="Times,serif" font-size="14.00" fill="#000000">L</text>
</g>
<!-- N23 -->
<g id="node18" class="node">
<title>N23</title>
<polygon fill="none" stroke="#000000" points="379,-603 316.4946,-585 379,-567 441.5054,-585 379,-603"/>
<text text-anchor="middle" x="379" y="-581.3" font-family="Times,serif" font-size="14.00" fill="#000000">Branch</text>
</g>
<!-- N9&#45;&gt;N23 -->
<g id="edge8" class="edge">
<title>N9&#45;&gt;N23</title>
<path fill="none" stroke="#000000" stroke-dasharray="1,5" d="M287.3347,-645.2844C305.0818,-633.6129 331.5674,-616.1944 351.5118,-603.0778"/>
<polygon fill="#000000" stroke="#000000" points="353.4549,-605.989 359.8868,-597.5699 349.6086,-600.1405 353.4549,-605.989"/>
</g>
<!-- N27 -->
<g id="node20" class="node">
<title>N27</title>
<polygon fill="none" stroke="#000000" points="154,-603 91.4946,-585 154,-567 216.5054,-585 154,-603"/>
<text text-anchor="middle" x="154" y="-581.3" font-family="Times,serif" font-size="14.00" fill="#000000">Branch</text>
</g>
<!-- N9&#45;&gt;N27 -->
<g id="edge9" class="edge">
<title>N9&#45;&gt;N27</title>
<path fill="none" stroke="#000000" stroke-dasharray="1,5" d="M248.4027,-645.4509C230.2136,-633.8035 202.9269,-616.3304 182.3606,-603.1608"/>
<polygon fill="#000000" stroke="#000000" points="184.0319,-600.0749 173.7231,-597.6297 180.257,-605.9699 184.0319,-600.0749"/>
</g>
<!-- N31 -->
<g id="node22" class="node">
<title>N31</title>
<polygon fill="none" stroke="#000000" points="245,-196 182.4946,-178 245,-160 307.5054,-178 245,-196"/>
<text text-anchor="middle" x="245" y="-174.3" font-family="Times,serif" font-size="14.00" fill="#000000">Branch</text>
</g>
<!-- N9&#45;&gt;N31 -->
<g id="edge10" class="edge">
<title>N9&#45;&gt;N31</title>
<path fill="none" stroke="#000000" stroke-dasharray="1,5" d="M259.3047,-640.7782C252.7915,-626.2801 245,-604.7988 245,-585 245,-585 245,-585 245,-251 245,-236.2996 245,-219.934 245,-206.4302"/>
<polygon fill="#000000" stroke="#000000" points="248.5001,-206.3003 245,-196.3003 241.5001,-206.3004 248.5001,-206.3003"/>
</g>
<!-- N12 -->
<g id="node9" class="node">
<title>N12</title>
<ellipse fill="none" stroke="#000000" cx="108" cy="-411" rx="27" ry="18"/>
<text text-anchor="middle" x="108" y="-407.3" font-family="Times,serif" font-size="14.00" fill="#000000">*=</text>
</g>
<!-- N14 -->
<g id="node11" class="node">
<title>N14</title>
<polygon fill="none" stroke="#000000" points="126,-356 72,-356 72,-320 126,-320 126,-356"/>
<text text-anchor="middle" x="99" y="-334.3" font-family="Times,serif" font-size="14.00" fill="#000000">z</text>
</g>
<!-- N12&#45;&gt;N14 -->
<g id="edge11" class="edge">
<title>N12&#45;&gt;N14</title>
<path fill="none" stroke="#000000" d="M105.7753,-392.9551C104.7801,-384.8828 103.5834,-375.1764 102.4745,-366.1817"/>
<polygon fill="#000000" stroke="#000000" points="105.9277,-365.5869 101.2303,-356.0904 98.9803,-366.4435 105.9277,-365.5869"/>
</g>
<!-- N13 -->
<g id="node10" class="node">
<title>N13</title>
<ellipse fill="none" stroke="#000000" cx="164" cy="-91" rx="27" ry="18"/>
</g>
<!-- N13&#45;&gt;N12 -->
<g id="edge12" class="edge">
<title>N13&#45;&gt;N12</title>
<path fill="none" stroke="#000000" d="M160.7256,-108.9262C157.8092,-126.4683 154,-153.9783 154,-178 154,-338 154,-338 154,-338 154,-357.1041 142.5841,-375.2906 131.1263,-388.7327"/>
<polygon fill="#000000" stroke="#000000" points="128.2376,-386.7063 124.0886,-396.455 133.4114,-391.4215 128.2376,-386.7063"/>
<text text-anchor="middle" x="159" y="-247.3" font-family="Times,serif" font-size="14.00" fill="#000000">L</text>
</g>
<!-- N14&#45;&gt;N30 -->
<g id="edge13" class="edge">
<title>N14&#45;&gt;N30</title>
<path fill="none" stroke="#000000" d="M95.892,-319.9735C93.8607,-308.1918 91.1656,-292.5607 88.8548,-279.1581"/>
<polygon fill="#000000" stroke="#000000" points="92.2523,-278.2633 87.104,-269.0034 85.3541,-279.4527 92.2523,-278.2633"/>
<text text-anchor="middle" x="107.5" y="-290.8" font-family="Times,serif" font-size="14.00" fill="#000000">loop</text>
</g>
<!-- N15 -->
<g id="node12" class="node">
<title>N15</title>
<ellipse fill="none" stroke="#000000" cx="108" cy="-498" rx="27" ry="18"/>
</g>
<!-- N15&#45;&gt;N12 -->
<g id="edge14" class="edge">
<title>N15&#45;&gt;N12</title>
<path fill="none" stroke="#000000" d="M108,-479.9735C108,-468.1918 108,-452.5607 108,-439.1581"/>
<polygon fill="#000000" stroke="#000000" points="111.5001,-439.0033 108,-429.0034 104.5001,-439.0034 111.5001,-439.0033"/>
<text text-anchor="middle" x="113.5" y="-450.8" font-family="Times,serif" font-size="14.00" fill="#000000">R</text>
</g>
<!-- N17 -->
<g id="node13" class="node">
<title>N17</title>
<ellipse fill="none" stroke="#000000" cx="372" cy="-498" rx="27" ry="18"/>
<text text-anchor="middle" x="372" y="-494.3" font-family="Times,serif" font-size="14.00" fill="#000000">1</text>
</g>
<!-- N18 -->
<g id="node14" class="node">
<title>N18</title>
<ellipse fill="none" stroke="#000000" cx="363" cy="-411" rx="27" ry="18"/>
<text text-anchor="middle" x="363" y="-407.3" font-family="Times,serif" font-size="14.00" fill="#000000">&#45;=</text>
</g>
<!-- N17&#45;&gt;N18 -->
<g id="edge15" class="edge">
<title>N17&#45;&gt;N18</title>
<path fill="none" stroke="#000000" d="M370.1352,-479.9735C368.9164,-468.1918 367.2994,-452.5607 365.9129,-439.1581"/>
<polygon fill="#000000" stroke="#000000" points="369.3729,-438.5901 364.8624,-429.0034 362.4101,-439.3105 369.3729,-438.5901"/>
<text text-anchor="middle" x="373.5" y="-450.8" font-family="Times,serif" font-size="14.00" fill="#000000">R</text>
</g>
<!-- N20 -->
<g id="node16" class="node">
<title>N20</title>
<polygon fill="none" stroke="#000000" points="399,-356 345,-356 345,-320 399,-320 399,-356"/>
<text text-anchor="middle" x="372" y="-334.3" font-family="Times,serif" font-size="14.00" fill="#000000">y</text>
</g>
<!-- N18&#45;&gt;N20 -->
<g id="edge16" class="edge">
<title>N18&#45;&gt;N20</title>
<path fill="none" stroke="#000000" d="M365.2247,-392.9551C366.2199,-384.8828 367.4166,-375.1764 368.5255,-366.1817"/>
<polygon fill="#000000" stroke="#000000" points="372.0197,-366.4435 369.7697,-356.0904 365.0723,-365.5869 372.0197,-366.4435"/>
</g>
<!-- N19 -->
<g id="node15" class="node">
<title>N19</title>
<ellipse fill="none" stroke="#000000" cx="444" cy="-498" rx="27" ry="18"/>
</g>
<!-- N19&#45;&gt;N18 -->
<g id="edge17" class="edge">
<title>N19&#45;&gt;N18</title>
<path fill="none" stroke="#000000" d="M429.5188,-482.4461C416.9638,-468.9611 398.6236,-449.2623 384.3791,-433.9627"/>
<polygon fill="#000000" stroke="#000000" points="386.7317,-431.3532 377.3558,-426.4192 381.6084,-436.1231 386.7317,-431.3532"/>
<text text-anchor="middle" x="413" y="-450.8" font-family="Times,serif" font-size="14.00" fill="#000000">L</text>
</g>
<!-- N20&#45;&gt;N22 -->
<g id="edge18" class="edge">
<title>N20&#45;&gt;N22</title>
<path fill="none" stroke="#000000" d="M390.2713,-319.9923C400.9128,-309.8593 414.798,-297.2278 428,-287 435.5528,-281.1487 444.0477,-275.2744 452.0608,-270.0179"/>
<polygon fill="#000000" stroke="#000000" points="453.9846,-272.9421 460.4994,-264.5869 450.1962,-267.0558 453.9846,-272.9421"/>
<text text-anchor="middle" x="443.5" y="-290.8" font-family="Times,serif" font-size="14.00" fill="#000000">loop</text>
</g>
<!-- N22&#45;&gt;N9 -->
<g id="edge20" class="edge">
<title>N22&#45;&gt;N9</title>
<path fill="none" stroke="#000000" d="M502.9336,-265.9396C521.3906,-281.6375 546,-308.1625 546,-338 546,-585 546,-585 546,-585 546,-634.2074 381.0004,-650.9228 305.2342,-656.0044"/>
<polygon fill="#000000" stroke="#000000" points="304.9191,-652.5173 295.162,-656.6464 305.3644,-659.5031 304.9191,-652.5173"/>
<text text-anchor="middle" x="551.5" y="-450.8" font-family="Times,serif" font-size="14.00" fill="#000000">R</text>
</g>
<!-- N22&#45;&gt;N23 -->
<g id="edge19" class="edge">
<title>N22&#45;&gt;N23</title>
<path fill="none" stroke="#000000" d="M491.1859,-268.5707C498.477,-285.8492 508,-313.1697 508,-338 508,-498 508,-498 508,-498 508,-539.5353 461.4633,-562.5616 424.2921,-574.329"/>
<polygon fill="#000000" stroke="#000000" points="423.1757,-571.0095 414.5913,-577.2191 425.1744,-577.7181 423.1757,-571.0095"/>
</g>
<!-- N23&#45;&gt;N19 -->
<g id="edge21" class="edge">
<title>N23&#45;&gt;N19</title>
<path fill="none" stroke="#000000" d="M390.3221,-569.8458C400.0519,-556.8229 414.267,-537.7965 425.6248,-522.5946"/>
<polygon fill="#000000" stroke="#000000" points="428.7449,-524.266 431.9263,-514.1601 423.1372,-520.0763 428.7449,-524.266"/>
<text text-anchor="middle" x="430.5" y="-537.8" font-family="Times,serif" font-size="14.00" fill="#000000">true</text>
</g>
<!-- N34 -->
<g id="node23" class="node">
<title>N34</title>
<polygon fill="none" stroke="#000000" points="327,-516 273,-516 273,-480 327,-480 327,-516"/>
<text text-anchor="middle" x="300" y="-494.3" font-family="Times,serif" font-size="14.00" fill="#000000">y</text>
</g>
<!-- N23&#45;&gt;N34 -->
<g id="edge22" class="edge">
<title>N23&#45;&gt;N34</title>
<path fill="none" stroke="#000000" d="M365.9548,-570.6337C354.3857,-557.8932 337.2133,-538.9817 323.2911,-523.6497"/>
<polygon fill="#000000" stroke="#000000" points="325.6675,-521.0604 316.3539,-516.01 320.4852,-525.7661 325.6675,-521.0604"/>
<text text-anchor="middle" x="361" y="-537.8" font-family="Times,serif" font-size="14.00" fill="#000000">false</text>
</g>
<!-- N26&#45;&gt;N27 -->
<g id="edge23" class="edge">
<title>N26&#45;&gt;N27</title>
<path fill="none" stroke="#000000" d="M154,-639.9551C154,-631.8828 154,-622.1764 154,-613.1817"/>
<polygon fill="#000000" stroke="#000000" points="157.5001,-613.0903 154,-603.0904 150.5001,-613.0904 157.5001,-613.0903"/>
</g>
<!-- N27&#45;&gt;N15 -->
<g id="edge24" class="edge">
<title>N27&#45;&gt;N15</title>
<path fill="none" stroke="#000000" d="M143.0932,-569.9633C138.749,-563.6496 133.8724,-556.1286 130,-549 125.9221,-541.4932 122.0318,-533.0741 118.6878,-525.2733"/>
<polygon fill="#000000" stroke="#000000" points="121.8376,-523.7321 114.771,-515.8381 115.3725,-526.4159 121.8376,-523.7321"/>
<text text-anchor="middle" x="145.5" y="-537.8" font-family="Times,serif" font-size="14.00" fill="#000000">true</text>
</g>
<!-- N36 -->
<g id="node24" class="node">
<title>N36</title>
<polygon fill="none" stroke="#000000" points="207,-516 153,-516 153,-480 207,-480 207,-516"/>
<text text-anchor="middle" x="180" y="-494.3" font-family="Times,serif" font-size="14.00" fill="#000000">x</text>
</g>
<!-- N27&#45;&gt;N36 -->
<g id="edge25" class="edge">
<title>N27&#45;&gt;N36</title>
<path fill="none" stroke="#000000" d="M159.0131,-568.2255C162.5991,-556.2261 167.509,-539.7968 171.6781,-525.8462"/>
<polygon fill="#000000" stroke="#000000" points="175.0435,-526.8083 174.5535,-516.2248 168.3366,-524.8039 175.0435,-526.8083"/>
<text text-anchor="middle" x="185" y="-537.8" font-family="Times,serif" font-size="14.00" fill="#000000">false</text>
</g>
<!-- N30&#45;&gt;N31 -->
<g id="edge26" class="edge">
<title>N30&#45;&gt;N31</title>
<path fill="none" stroke="#000000" d="M109.8674,-239.2713C137.3788,-226.7972 181.0091,-207.0145 211.2173,-193.3176"/>
<polygon fill="#000000" stroke="#000000" points="212.8539,-196.4186 220.5161,-189.1014 209.9632,-190.0433 212.8539,-196.4186"/>
</g>
<!-- N31&#45;&gt;N13 -->
<g id="edge27" class="edge">
<title>N31&#45;&gt;N13</title>
<path fill="none" stroke="#000000" d="M230.9101,-163.7537C224.4761,-157.1856 216.7926,-149.2533 210,-142 201.6382,-133.071 192.5907,-123.1079 184.7499,-114.3734"/>
<polygon fill="#000000" stroke="#000000" points="187.2181,-111.8829 177.9428,-106.7624 182.0005,-116.5494 187.2181,-111.8829"/>
<text text-anchor="middle" x="225.5" y="-130.8" font-family="Times,serif" font-size="14.00" fill="#000000">true</text>
</g>
<!-- N37 -->
<g id="node25" class="node">
<title>N37</title>
<polygon fill="none" stroke="#000000" points="272,-109 218,-109 218,-73 272,-73 272,-109"/>
<text text-anchor="middle" x="245" y="-87.3" font-family="Times,serif" font-size="14.00" fill="#000000">z</text>
</g>
<!-- N31&#45;&gt;N37 -->
<g id="edge28" class="edge">
<title>N31&#45;&gt;N37</title>
<path fill="none" stroke="#000000" d="M245,-159.9735C245,-148.1918 245,-132.5607 245,-119.1581"/>
<polygon fill="#000000" stroke="#000000" points="248.5001,-119.0033 245,-109.0034 241.5001,-119.0034 248.5001,-119.0033"/>
<text text-anchor="middle" x="262" y="-130.8" font-family="Times,serif" font-size="14.00" fill="#000000">false</text>
</g>
<!-- N39 -->
<g id="node26" class="node">
<title>N39</title>
<ellipse fill="none" stroke="#000000" cx="245" cy="-18" rx="42.7926" ry="18"/>
<text text-anchor="middle" x="245" y="-14.3" font-family="Times,serif" font-size="14.00" fill="#000000">Return</text>
</g>
<!-- N37&#45;&gt;N39 -->
<g id="edge29" class="edge">
<title>N37&#45;&gt;N39</title>
<path fill="none" stroke="#000000" d="M245,-72.9551C245,-64.8828 245,-55.1764 245,-46.1817"/>
<polygon fill="#000000" stroke="#000000" points="248.5001,-46.0903 245,-36.0904 241.5001,-46.0904 248.5001,-46.0903"/>
</g>
</g>
</svg>
