<?xml version="1.0" encoding="UTF-8" standalone="no"?>
<!DOCTYPE svg PUBLIC "-//W3C//DTD SVG 1.1//EN"
 "http://www.w3.org/Graphics/SVG/1.1/DTD/svg11.dtd">
<!-- Generated by graphviz version 2.40.1 (20161225.0304)
 -->
<!-- Title: max Pages: 1 -->
<svg width="374pt" height="305pt"
 viewBox="0.00 0.00 374.00 305.00" xmlns="http://www.w3.org/2000/svg" xmlns:xlink="http://www.w3.org/1999/xlink">
<g id="graph0" class="graph" transform="scale(1 1) rotate(0) translate(4 301)">
<title>max</title>
<polygon fill="#ffffff" stroke="transparent" points="-4,4 -4,-301 370,-301 370,4 -4,4"/>
<!-- N0 -->
<g id="node1" class="node">
<title>N0</title>
<polygon fill="none" stroke="#000000" points="312,-297 201,-297 201,-261 312,-261 312,-297"/>
<text text-anchor="middle" x="256.5" y="-275.3" font-family="Times,serif" font-size="14.00" fill="#000000">(start)</text>
</g>
<!-- N2 -->
<g id="node3" class="node">
<title>N2</title>
<polygon fill="none" stroke="#000000" points="366,-210 147,-210 147,-174 366,-174 366,-210"/>
<text text-anchor="middle" x="256.5" y="-188.3" font-family="Times,serif" font-size="14.00" fill="#000000">for (int x : a)</text>
</g>
<!-- N0&#45;&gt;N2 -->
<g id="edge1" class="edge">
<title>N0&#45;&gt;N2</title>
<path fill="none" stroke="#000000" d="M256.5,-260.9735C256.5,-249.1918 256.5,-233.5607 256.5,-220.1581"/>
<polygon fill="#000000" stroke="#000000" points="260.0001,-220.0033 256.5,-210.0034 253.0001,-220.0034 260.0001,-220.0033"/>
<text text-anchor="middle" x="263.5" y="-231.8" font-family="Times,serif" font-size="14.00" fill="#000000">a</text>
</g>
<!-- N1 -->
<g id="node2" class="node">
<title>N1</title>
<polygon fill="none" stroke="#000000" points="128.5,-210 30.5,-210 30.5,-174 128.5,-174 128.5,-210"/>
<text text-anchor="middle" x="79.5" y="-188.3" font-family="Times,serif" font-size="14.00" fill="#000000">y = &#45;1</text>
</g>
<!-- N3 -->
<g id="node4" class="node">
<title>N3</title>
<polygon fill="none" stroke="#000000" points="332.5,-123 180.5,-123 180.5,-87 332.5,-87 332.5,-123"/>
<text text-anchor="middle" x="256.5" y="-101.3" font-family="Times,serif" font-size="14.00" fill="#000000">if (y &lt; x)</text>
</g>
<!-- N1&#45;&gt;N3 -->
<g id="edge2" class="edge">
<title>N1&#45;&gt;N3</title>
<path fill="none" stroke="#000000" d="M105.7069,-173.8778C121.4446,-163.463 142.1147,-150.5879 161.5,-141 171.7713,-135.9199 182.9478,-131.0996 193.9085,-126.7345"/>
<polygon fill="#000000" stroke="#000000" points="195.4059,-129.9076 203.4569,-123.0206 192.8683,-123.3837 195.4059,-129.9076"/>
<text text-anchor="middle" x="168.5" y="-144.8" font-family="Times,serif" font-size="14.00" fill="#000000">y</text>
</g>
<!-- N4 -->
<g id="node5" class="node">
<title>N4</title>
<polygon fill="none" stroke="#000000" points="162.5,-123 78.5,-123 78.5,-87 162.5,-87 162.5,-123"/>
<text text-anchor="middle" x="120.5" y="-101.3" font-family="Times,serif" font-size="14.00" fill="#000000">y = x</text>
</g>
<!-- N1&#45;&gt;N4 -->
<g id="edge4" class="edge">
<title>N1&#45;&gt;N4</title>
<path fill="none" stroke="#000000" d="M87.9952,-173.9735C93.6575,-161.9585 101.2064,-145.9401 107.6041,-132.3646"/>
<polygon fill="#000000" stroke="#000000" points="110.9187,-133.5413 112.0157,-123.0034 104.5866,-130.5571 110.9187,-133.5413"/>
<text text-anchor="middle" x="108.5" y="-144.8" font-family="Times,serif" font-size="14.00" fill="#000000">y</text>
</g>
<!-- N5 -->
<g id="node6" class="node">
<title>N5</title>
<polygon fill="none" stroke="#000000" points="125,-36 0,-36 0,0 125,0 125,-36"/>
<text text-anchor="middle" x="62.5" y="-14.3" font-family="Times,serif" font-size="14.00" fill="#000000">return y</text>
</g>
<!-- N1&#45;&gt;N5 -->
<g id="edge6" class="edge">
<title>N1&#45;&gt;N5</title>
<path fill="none" stroke="#000000" d="M71.3658,-173.9899C65.656,-160.3176 58.5214,-140.8834 55.5,-123 51.152,-97.2641 53.8369,-67.5523 57.0592,-46.3172"/>
<polygon fill="#000000" stroke="#000000" points="60.5306,-46.7768 58.7072,-36.3401 53.6242,-45.636 60.5306,-46.7768"/>
<text text-anchor="middle" x="62.5" y="-101.3" font-family="Times,serif" font-size="14.00" fill="#000000">y</text>
</g>
<!-- N2&#45;&gt;N3 -->
<g id="edge3" class="edge">
<title>N2&#45;&gt;N3</title>
<path fill="none" stroke="#000000" d="M256.5,-173.9735C256.5,-162.1918 256.5,-146.5607 256.5,-133.1581"/>
<polygon fill="#000000" stroke="#000000" points="260.0001,-133.0033 256.5,-123.0034 253.0001,-133.0034 260.0001,-133.0033"/>
<text text-anchor="middle" x="263.5" y="-144.8" font-family="Times,serif" font-size="14.00" fill="#000000">x</text>
</g>
<!-- N2&#45;&gt;N4 -->
<g id="edge5" class="edge">
<title>N2&#45;&gt;N4</title>
<path fill="none" stroke="#000000" d="M228.3207,-173.9735C207.715,-160.792 179.5771,-142.792 157.2129,-128.4855"/>
<polygon fill="#000000" stroke="#000000" points="158.9531,-125.4438 148.6432,-123.0034 155.181,-131.3405 158.9531,-125.4438"/>
<text text-anchor="middle" x="203.5" y="-144.8" font-family="Times,serif" font-size="14.00" fill="#000000">x</text>
</g>
<!-- N4&#45;&gt;N5 -->
<g id="edge7" class="edge">
<title>N4&#45;&gt;N5</title>
<path fill="none" stroke="#000000" d="M108.4824,-86.9735C100.3168,-74.7252 89.3777,-58.3165 80.2177,-44.5766"/>
<polygon fill="#000000" stroke="#000000" points="82.9615,-42.3824 74.5022,-36.0034 77.1371,-46.2653 82.9615,-42.3824"/>
<text text-anchor="middle" x="101.5" y="-57.8" font-family="Times,serif" font-size="14.00" fill="#000000">y</text>
</g>
</g>
</svg>
