<?xml version="1.0" encoding="UTF-8" standalone="no"?>
<!DOCTYPE svg PUBLIC "-//W3C//DTD SVG 1.1//EN"
 "http://www.w3.org/Graphics/SVG/1.1/DTD/svg11.dtd">
<!-- Generated by graphviz version 2.40.1 (20161225.0304)
 -->
<!-- Title: dfg_loop Pages: 1 -->
<svg width="210pt" height="277pt"
 viewBox="0.00 0.00 210.00 277.00" xmlns="http://www.w3.org/2000/svg" xmlns:xlink="http://www.w3.org/1999/xlink">
<g id="graph0" class="graph" transform="scale(1 1) rotate(0) translate(4 273)">
<title>dfg_loop</title>
<polygon fill="#ffffff" stroke="transparent" points="-4,4 -4,-273 206,-273 206,4 -4,4"/>
<!-- N0 -->
<g id="node1" class="node">
<title>N0</title>
<ellipse fill="none" stroke="#000000" cx="64" cy="-251" rx="27" ry="18"/>
<text text-anchor="middle" x="64" y="-247.3" font-family="Times,serif" font-size="14.00" fill="#000000">a</text>
</g>
<!-- NN1 -->
<g id="node3" class="node">
<title>NN1</title>
<polygon fill="none" stroke="#000000" stroke-dasharray="5,2" points="54,-196 0,-196 0,-160 54,-160 54,-196"/>
<text text-anchor="middle" x="27" y="-174.3" font-family="Times,serif" font-size="14.00" fill="#000000">S</text>
</g>
<!-- N0&#45;&gt;NN1 -->
<g id="edge1" class="edge">
<title>N0&#45;&gt;NN1</title>
<path fill="none" stroke="#000000" d="M50.2931,-235.1601C44.8631,-226.453 38.9713,-215.4071 34.3052,-205.3515"/>
<polygon fill="#000000" stroke="#000000" points="37.4807,-203.8777 30.262,-196.1226 31.069,-206.6867 37.4807,-203.8777"/>
</g>
<!-- NN2 -->
<g id="node4" class="node">
<title>NN2</title>
<polygon fill="none" stroke="#000000" points="130,-196 72,-196 72,-160 130,-160 130,-196"/>
<text text-anchor="middle" x="101" y="-174.3" font-family="Times,serif" font-size="14.00" fill="#000000">break</text>
</g>
<!-- N0&#45;&gt;NN2 -->
<g id="edge2" class="edge">
<title>N0&#45;&gt;NN2</title>
<path fill="none" stroke="#000000" d="M72.7685,-233.7C77.0638,-225.2254 82.3376,-214.8203 87.1597,-205.3066"/>
<polygon fill="#000000" stroke="#000000" points="90.379,-206.6966 91.7781,-196.1945 84.1352,-203.5319 90.379,-206.6966"/>
</g>
<!-- N1 -->
<g id="node2" class="node">
<title>N1</title>
<ellipse fill="none" stroke="#000000" cx="175" cy="-178" rx="27" ry="18"/>
<text text-anchor="middle" x="175" y="-174.3" font-family="Times,serif" font-size="14.00" fill="#000000">t</text>
</g>
<!-- N2 -->
<g id="node5" class="node">
<title>N2</title>
<polygon fill="none" stroke="#000000" points="101,-109 46.5385,-91 101,-73 155.4615,-91 101,-109"/>
<text text-anchor="middle" x="101" y="-87.3" font-family="Times,serif" font-size="14.00" fill="#000000">Join</text>
</g>
<!-- N1&#45;&gt;N2 -->
<g id="edge7" class="edge">
<title>N1&#45;&gt;N2</title>
<path fill="none" stroke="#000000" stroke-dasharray="1,5" d="M163.1805,-161.5344C155.6822,-151.3492 145.6137,-138.1379 136,-127 131.6641,-121.9767 126.812,-116.7576 122.1341,-111.9033"/>
<polygon fill="#000000" stroke="#000000" points="124.5268,-109.3444 115.0258,-104.656 119.5294,-114.246 124.5268,-109.3444"/>
<text text-anchor="middle" x="165.5" y="-130.8" font-family="Times,serif" font-size="14.00" fill="#000000">cond</text>
</g>
<!-- NN1&#45;&gt;N0 -->
<g id="edge4" class="edge">
<title>NN1&#45;&gt;N0</title>
<path fill="none" stroke="#000000" stroke-dasharray="5,2" d="M42.0893,-196.0904C47.1396,-204.4321 52.4596,-214.5118 56.7401,-223.7461"/>
<polygon fill="#000000" stroke="#000000" points="53.5544,-225.1968 60.7697,-232.9551 59.9673,-222.3906 53.5544,-225.1968"/>
</g>
<!-- NN1&#45;&gt;N2 -->
<g id="edge3" class="edge">
<title>NN1&#45;&gt;N2</title>
<path fill="none" stroke="#000000" d="M38.5073,-159.8895C45.2016,-149.8404 54.0622,-137.3244 63,-127 67.7157,-121.5528 73.1551,-116.0268 78.4177,-110.9932"/>
<polygon fill="#000000" stroke="#000000" points="80.9577,-113.4106 85.8966,-104.0373 76.1904,-108.2848 80.9577,-113.4106"/>
<text text-anchor="middle" x="80" y="-130.8" font-family="Times,serif" font-size="14.00" fill="#000000">false</text>
</g>
<!-- NN2&#45;&gt;N2 -->
<g id="edge5" class="edge">
<title>NN2&#45;&gt;N2</title>
<path fill="none" stroke="#000000" d="M101,-159.9735C101,-148.1918 101,-132.5607 101,-119.1581"/>
<polygon fill="#000000" stroke="#000000" points="104.5001,-119.0033 101,-109.0034 97.5001,-119.0034 104.5001,-119.0033"/>
<text text-anchor="middle" x="116.5" y="-130.8" font-family="Times,serif" font-size="14.00" fill="#000000">true</text>
</g>
<!-- N3 -->
<g id="node6" class="node">
<title>N3</title>
<ellipse fill="none" stroke="#000000" cx="101" cy="-18" rx="27" ry="18"/>
<text text-anchor="middle" x="101" y="-14.3" font-family="Times,serif" font-size="14.00" fill="#000000">a</text>
</g>
<!-- N2&#45;&gt;N3 -->
<g id="edge6" class="edge">
<title>N2&#45;&gt;N3</title>
<path fill="none" stroke="#000000" d="M101,-72.9551C101,-64.8828 101,-55.1764 101,-46.1817"/>
<polygon fill="#000000" stroke="#000000" points="104.5001,-46.0903 101,-36.0904 97.5001,-46.0904 104.5001,-46.0903"/>
</g>
</g>
</svg>
