<?xml version="1.0" encoding="UTF-8" standalone="no"?>
<!DOCTYPE svg PUBLIC "-//W3C//DTD SVG 1.1//EN"
 "http://www.w3.org/Graphics/SVG/1.1/DTD/svg11.dtd">
<!-- Generated by graphviz version 2.40.1 (20161225.0304)
 -->
<!-- Title: dfg_basic Pages: 1 -->
<svg width="206pt" height="332pt"
 viewBox="0.00 0.00 206.00 332.00" xmlns="http://www.w3.org/2000/svg" xmlns:xlink="http://www.w3.org/1999/xlink">
<g id="graph0" class="graph" transform="scale(1 1) rotate(0) translate(4 328)">
<title>dfg_basic</title>
<polygon fill="#ffffff" stroke="transparent" points="-4,4 -4,-328 202,-328 202,4 -4,4"/>
<!-- N1 -->
<g id="node1" class="node">
<title>N1</title>
<ellipse fill="none" stroke="#000000" cx="27" cy="-306" rx="27" ry="18"/>
<text text-anchor="middle" x="27" y="-302.3" font-family="Times,serif" font-size="14.00" fill="#000000">a</text>
</g>
<!-- N4 -->
<g id="node4" class="node">
<title>N4</title>
<polygon fill="none" stroke="#000000" points="126,-252 72,-252 72,-216 126,-216 126,-252"/>
<text text-anchor="middle" x="99" y="-230.3" font-family="Times,serif" font-size="14.00" fill="#000000">+</text>
</g>
<!-- N1&#45;&gt;N4 -->
<g id="edge2" class="edge">
<title>N1&#45;&gt;N4</title>
<path fill="none" stroke="#000000" d="M42.2693,-290.7307C51.3708,-281.6292 63.1539,-269.8461 73.6212,-259.3788"/>
<polygon fill="#000000" stroke="#000000" points="76.3571,-261.5927 80.9533,-252.0467 71.4073,-256.6429 76.3571,-261.5927"/>
</g>
<!-- N6 -->
<g id="node5" class="node">
<title>N6</title>
<polygon fill="none" stroke="#000000" points="54,-180 0,-180 0,-144 54,-144 54,-180"/>
<text text-anchor="middle" x="27" y="-158.3" font-family="Times,serif" font-size="14.00" fill="#000000">&#45;</text>
</g>
<!-- N1&#45;&gt;N6 -->
<g id="edge3" class="edge">
<title>N1&#45;&gt;N6</title>
<path fill="none" stroke="#000000" d="M27,-287.7623C27,-263.201 27,-219.2474 27,-190.3541"/>
<polygon fill="#000000" stroke="#000000" points="30.5001,-190.0896 27,-180.0896 23.5001,-190.0897 30.5001,-190.0896"/>
</g>
<!-- N0 -->
<g id="node2" class="node">
<title>N0</title>
<ellipse fill="none" stroke="#000000" cx="99" cy="-306" rx="27" ry="18"/>
<text text-anchor="middle" x="99" y="-302.3" font-family="Times,serif" font-size="14.00" fill="#000000">b</text>
</g>
<!-- N0&#45;&gt;N4 -->
<g id="edge1" class="edge">
<title>N0&#45;&gt;N4</title>
<path fill="none" stroke="#000000" d="M99,-287.8314C99,-280.131 99,-270.9743 99,-262.4166"/>
<polygon fill="#000000" stroke="#000000" points="102.5001,-262.4132 99,-252.4133 95.5001,-262.4133 102.5001,-262.4132"/>
</g>
<!-- N3 -->
<g id="node3" class="node">
<title>N3</title>
<ellipse fill="none" stroke="#000000" cx="171" cy="-306" rx="27" ry="18"/>
<text text-anchor="middle" x="171" y="-302.3" font-family="Times,serif" font-size="14.00" fill="#000000">c</text>
</g>
<!-- N7 -->
<g id="node6" class="node">
<title>N7</title>
<polygon fill="none" stroke="#000000" points="126,-180 72,-180 72,-144 126,-144 126,-180"/>
<text text-anchor="middle" x="99" y="-158.3" font-family="Times,serif" font-size="14.00" fill="#000000">*</text>
</g>
<!-- N3&#45;&gt;N7 -->
<g id="edge4" class="edge">
<title>N3&#45;&gt;N7</title>
<path fill="none" stroke="#000000" d="M165.1368,-288.2672C158.7369,-269.7595 147.692,-240.1278 135,-216 130.1725,-206.8228 124.1634,-197.2651 118.4461,-188.7865"/>
<polygon fill="#000000" stroke="#000000" points="121.2185,-186.6418 112.6555,-180.4027 115.4588,-190.62 121.2185,-186.6418"/>
</g>
<!-- N4&#45;&gt;N7 -->
<g id="edge5" class="edge">
<title>N4&#45;&gt;N7</title>
<path fill="none" stroke="#000000" d="M99,-215.8314C99,-208.131 99,-198.9743 99,-190.4166"/>
<polygon fill="#000000" stroke="#000000" points="102.5001,-190.4132 99,-180.4133 95.5001,-190.4133 102.5001,-190.4132"/>
</g>
<!-- N8 -->
<g id="node7" class="node">
<title>N8</title>
<polygon fill="none" stroke="#000000" points="90,-108 36,-108 36,-72 90,-72 90,-108"/>
<text text-anchor="middle" x="63" y="-86.3" font-family="Times,serif" font-size="14.00" fill="#000000">+</text>
</g>
<!-- N6&#45;&gt;N8 -->
<g id="edge6" class="edge">
<title>N6&#45;&gt;N8</title>
<path fill="none" stroke="#000000" d="M36.0843,-143.8314C40.0615,-135.8771 44.8155,-126.369 49.2139,-117.5723"/>
<polygon fill="#000000" stroke="#000000" points="52.4517,-118.9228 53.7934,-108.4133 46.1907,-115.7923 52.4517,-118.9228"/>
</g>
<!-- N7&#45;&gt;N8 -->
<g id="edge7" class="edge">
<title>N7&#45;&gt;N8</title>
<path fill="none" stroke="#000000" d="M89.9157,-143.8314C85.9385,-135.8771 81.1845,-126.369 76.7861,-117.5723"/>
<polygon fill="#000000" stroke="#000000" points="79.8093,-115.7923 72.2066,-108.4133 73.5483,-118.9228 79.8093,-115.7923"/>
</g>
<!-- N9 -->
<g id="node8" class="node">
<title>N9</title>
<polygon fill="none" stroke="#000000" points="94,-36 32,-36 32,0 94,0 94,-36"/>
<text text-anchor="middle" x="63" y="-14.3" font-family="Times,serif" font-size="14.00" fill="#000000">return</text>
</g>
<!-- N8&#45;&gt;N9 -->
<g id="edge8" class="edge">
<title>N8&#45;&gt;N9</title>
<path fill="none" stroke="#000000" d="M63,-71.8314C63,-64.131 63,-54.9743 63,-46.4166"/>
<polygon fill="#000000" stroke="#000000" points="66.5001,-46.4132 63,-36.4133 59.5001,-46.4133 66.5001,-46.4132"/>
</g>
</g>
</svg>
