<?xml version="1.0" encoding="UTF-8" standalone="no"?>
<!DOCTYPE svg PUBLIC "-//W3C//DTD SVG 1.1//EN"
 "http://www.w3.org/Graphics/SVG/1.1/DTD/svg11.dtd">
<!-- Generated by graphviz version 2.40.1 (20161225.0304)
 -->
<!-- Title: dfg_cond Pages: 1 -->
<svg width="247pt" height="204pt"
 viewBox="0.00 0.00 247.00 204.00" xmlns="http://www.w3.org/2000/svg" xmlns:xlink="http://www.w3.org/1999/xlink">
<g id="graph0" class="graph" transform="scale(1 1) rotate(0) translate(4 200)">
<title>dfg_cond</title>
<polygon fill="#ffffff" stroke="transparent" points="-4,4 -4,-200 243,-200 243,4 -4,4"/>
<!-- N0 -->
<g id="node1" class="node">
<title>N0</title>
<ellipse fill="none" stroke="#000000" cx="27" cy="-178" rx="27" ry="18"/>
<text text-anchor="middle" x="27" y="-174.3" font-family="Times,serif" font-size="14.00" fill="#000000">1</text>
</g>
<!-- N3 -->
<g id="node4" class="node">
<title>N3</title>
<polygon fill="none" stroke="#000000" points="105,-109 14.8451,-91 105,-73 195.1549,-91 105,-109"/>
<text text-anchor="middle" x="105" y="-87.3" font-family="Times,serif" font-size="14.00" fill="#000000">Join</text>
</g>
<!-- N0&#45;&gt;N3 -->
<g id="edge1" class="edge">
<title>N0&#45;&gt;N3</title>
<path fill="none" stroke="#000000" d="M30.5967,-159.9836C33.4059,-149.4787 38.1834,-136.4752 46,-127 51.9441,-119.7947 59.7286,-113.6427 67.6846,-108.5696"/>
<polygon fill="#000000" stroke="#000000" points="69.4674,-111.5816 76.3061,-103.4894 65.9137,-105.5507 69.4674,-111.5816"/>
<text text-anchor="middle" x="74.5" y="-130.8" font-family="Times,serif" font-size="14.00" fill="#000000">true</text>
</g>
<!-- N1 -->
<g id="node2" class="node">
<title>N1</title>
<ellipse fill="none" stroke="#000000" cx="105" cy="-178" rx="27" ry="18"/>
<text text-anchor="middle" x="105" y="-174.3" font-family="Times,serif" font-size="14.00" fill="#000000">2</text>
</g>
<!-- N1&#45;&gt;N3 -->
<g id="edge2" class="edge">
<title>N1&#45;&gt;N3</title>
<path fill="none" stroke="#000000" d="M105,-159.9735C105,-148.1918 105,-132.5607 105,-119.1581"/>
<polygon fill="#000000" stroke="#000000" points="108.5001,-119.0033 105,-109.0034 101.5001,-119.0034 108.5001,-119.0033"/>
<text text-anchor="middle" x="139" y="-130.8" font-family="Times,serif" font-size="14.00" fill="#000000">false</text>
</g>
<!-- N2 -->
<g id="node3" class="node">
<title>N2</title>
<ellipse fill="none" stroke="#000000" cx="196" cy="-178" rx="27" ry="18"/>
<text text-anchor="middle" x="196" y="-174.3" font-family="Times,serif" font-size="14.00" fill="#000000">x</text>
</g>
<!-- N2&#45;&gt;N3 -->
<g id="edge3" class="edge">
<title>N2&#45;&gt;N3</title>
<path fill="none" stroke="#000000" stroke-dasharray="1,5" d="M191.4582,-159.7723C188.0717,-149.1924 182.5318,-136.1843 174,-127 166.5433,-118.973 156.8879,-112.4193 147.1747,-107.2109"/>
<polygon fill="#000000" stroke="#000000" points="148.4288,-103.9263 137.9141,-102.6252 145.3225,-110.1994 148.4288,-103.9263"/>
<text text-anchor="middle" x="211.5" y="-130.8" font-family="Times,serif" font-size="14.00" fill="#000000">cond</text>
</g>
<!-- N4 -->
<g id="node5" class="node">
<title>N4</title>
<ellipse fill="none" stroke="#000000" cx="105" cy="-18" rx="27" ry="18"/>
<text text-anchor="middle" x="105" y="-14.3" font-family="Times,serif" font-size="14.00" fill="#000000">y</text>
</g>
<!-- N3&#45;&gt;N4 -->
<g id="edge4" class="edge">
<title>N3&#45;&gt;N4</title>
<path fill="none" stroke="#000000" d="M105,-72.9551C105,-64.8828 105,-55.1764 105,-46.1817"/>
<polygon fill="#000000" stroke="#000000" points="108.5001,-46.0903 105,-36.0904 101.5001,-46.0904 108.5001,-46.0903"/>
</g>
</g>
</svg>
