<?xml version="1.0" encoding="UTF-8" standalone="no"?>
<!DOCTYPE svg PUBLIC "-//W3C//DTD SVG 1.1//EN"
 "http://www.w3.org/Graphics/SVG/1.1/DTD/svg11.dtd">
<!-- Generated by graphviz version 2.40.1 (20161225.0304)
 -->
<!-- Title: dfg_loop Pages: 1 -->
<svg width="243pt" height="378pt"
 viewBox="0.00 0.00 243.31 378.00" xmlns="http://www.w3.org/2000/svg" xmlns:xlink="http://www.w3.org/1999/xlink">
<g id="graph0" class="graph" transform="scale(1 1) rotate(0) translate(4 374)">
<title>dfg_loop</title>
<polygon fill="#ffffff" stroke="transparent" points="-4,4 -4,-374 239.3111,-374 239.3111,4 -4,4"/>
<g id="clust1" class="cluster">
<title>cluster_1</title>
<polygon fill="none" stroke="#000000" points="18.3111,-166 18.3111,-218 88.3111,-218 88.3111,-166 18.3111,-166"/>
</g>
<!-- N0 -->
<g id="node1" class="node">
<title>N0</title>
<ellipse fill="none" stroke="#000000" cx="53.3111" cy="-352" rx="27" ry="18"/>
<text text-anchor="middle" x="53.3111" y="-348.3" font-family="Times,serif" font-size="14.00" fill="#000000">x</text>
</g>
<!-- N3 -->
<g id="node5" class="node">
<title>N3</title>
<polygon fill="none" stroke="#000000" points="53.3111,-283 .1882,-265 53.3111,-247 106.434,-265 53.3111,-283"/>
<text text-anchor="middle" x="53.3111" y="-261.3" font-family="Times,serif" font-size="14.00" fill="#000000">Begin</text>
</g>
<!-- N0&#45;&gt;N3 -->
<g id="edge1" class="edge">
<title>N0&#45;&gt;N3</title>
<path fill="none" stroke="#000000" d="M53.3111,-333.9735C53.3111,-322.1918 53.3111,-306.5607 53.3111,-293.1581"/>
<polygon fill="#000000" stroke="#000000" points="56.8112,-293.0033 53.3111,-283.0034 49.8112,-293.0034 56.8112,-293.0033"/>
<text text-anchor="middle" x="72.8111" y="-304.8" font-family="Times,serif" font-size="14.00" fill="#000000">enter</text>
</g>
<!-- N1 -->
<g id="node2" class="node">
<title>N1</title>
<ellipse fill="none" stroke="#000000" cx="208.3111" cy="-192" rx="27" ry="18"/>
<text text-anchor="middle" x="208.3111" y="-188.3" font-family="Times,serif" font-size="14.00" fill="#000000">p</text>
</g>
<!-- N4 -->
<g id="node6" class="node">
<title>N4</title>
<polygon fill="none" stroke="#000000" points="114.3111,-123 73.0865,-105 114.3111,-87 155.5357,-105 114.3111,-123"/>
<text text-anchor="middle" x="114.3111" y="-101.3" font-family="Times,serif" font-size="14.00" fill="#000000">End</text>
</g>
<!-- N1&#45;&gt;N4 -->
<g id="edge4" class="edge">
<title>N1&#45;&gt;N4</title>
<path fill="none" stroke="#000000" stroke-dasharray="1,5" d="M192.3653,-177.2416C176.558,-162.6114 152.2679,-140.1302 134.9865,-124.1357"/>
<polygon fill="#000000" stroke="#000000" points="137.3117,-121.5187 127.5952,-117.2948 132.5569,-126.6561 137.3117,-121.5187"/>
<text text-anchor="middle" x="183.8111" y="-144.8" font-family="Times,serif" font-size="14.00" fill="#000000">cond</text>
</g>
<!-- NN -->
<g id="node3" class="node">
<title>NN</title>
<polygon fill="none" stroke="#000000" stroke-dasharray="1,5" points="80.3111,-210 26.3111,-210 26.3111,-174 80.3111,-174 80.3111,-210"/>
<text text-anchor="middle" x="53.3111" y="-188.3" font-family="Times,serif" font-size="14.00" fill="#000000">S</text>
</g>
<!-- NN&#45;&gt;N4 -->
<g id="edge3" class="edge">
<title>NN&#45;&gt;N4</title>
<path fill="none" stroke="#000000" d="M65.9504,-173.9735C75.4293,-160.4545 88.4618,-141.8671 98.6096,-127.394"/>
<polygon fill="#000000" stroke="#000000" points="101.6225,-129.1934 104.4977,-118.9962 95.891,-125.1747 101.6225,-129.1934"/>
</g>
<!-- N2 -->
<g id="node4" class="node">
<title>N2</title>
<ellipse fill="none" stroke="#000000" cx="114.3111" cy="-18" rx="27" ry="18"/>
<text text-anchor="middle" x="114.3111" y="-14.3" font-family="Times,serif" font-size="14.00" fill="#000000">x</text>
</g>
<!-- N3&#45;&gt;NN -->
<g id="edge2" class="edge">
<title>N3&#45;&gt;NN</title>
<path fill="none" stroke="#000000" d="M53.3111,-246.9551C53.3111,-238.8828 53.3111,-229.1764 53.3111,-220.1817"/>
<polygon fill="#000000" stroke="#000000" points="56.8112,-220.0903 53.3111,-210.0904 49.8112,-220.0904 56.8112,-220.0903"/>
</g>
<!-- N4&#45;&gt;N2 -->
<g id="edge5" class="edge">
<title>N4&#45;&gt;N2</title>
<path fill="none" stroke="#000000" d="M114.3111,-86.9735C114.3111,-75.1918 114.3111,-59.5607 114.3111,-46.1581"/>
<polygon fill="#000000" stroke="#000000" points="117.8112,-46.0033 114.3111,-36.0034 110.8112,-46.0034 117.8112,-46.0033"/>
<text text-anchor="middle" x="128.3111" y="-57.8" font-family="Times,serif" font-size="14.00" fill="#000000">exit</text>
</g>
<!-- N4&#45;&gt;N3 -->
<g id="edge6" class="edge">
<title>N4&#45;&gt;N3</title>
<path fill="none" stroke="#000000" stroke-dasharray="5,2" d="M113.5687,-122.6808C112.0135,-145.6637 107.2012,-186.5726 92.3111,-218 87.9103,-227.2885 81.2503,-236.2817 74.6731,-243.8714"/>
<polygon fill="#000000" stroke="#000000" points="71.8548,-241.7664 67.6794,-251.5038 77.0158,-246.4955 71.8548,-241.7664"/>
<text text-anchor="middle" x="130.8111" y="-188.3" font-family="Times,serif" font-size="14.00" fill="#000000">repeat</text>
</g>
</g>
</svg>
